%TF.GenerationSoftware,KiCad,Pcbnew,9.0.0*%
%TF.CreationDate,2025-02-27T19:38:36-05:00*%
%TF.ProjectId,S25-26,5332352d-3236-42e6-9b69-6361645f7063,rev?*%
%TF.SameCoordinates,Original*%
%TF.FileFunction,Soldermask,Top*%
%TF.FilePolarity,Negative*%
%FSLAX46Y46*%
G04 Gerber Fmt 4.6, Leading zero omitted, Abs format (unit mm)*
G04 Created by KiCad (PCBNEW 9.0.0) date 2025-02-27 19:38:36*
%MOMM*%
%LPD*%
G01*
G04 APERTURE LIST*
G04 Aperture macros list*
%AMRoundRect*
0 Rectangle with rounded corners*
0 $1 Rounding radius*
0 $2 $3 $4 $5 $6 $7 $8 $9 X,Y pos of 4 corners*
0 Add a 4 corners polygon primitive as box body*
4,1,4,$2,$3,$4,$5,$6,$7,$8,$9,$2,$3,0*
0 Add four circle primitives for the rounded corners*
1,1,$1+$1,$2,$3*
1,1,$1+$1,$4,$5*
1,1,$1+$1,$6,$7*
1,1,$1+$1,$8,$9*
0 Add four rect primitives between the rounded corners*
20,1,$1+$1,$2,$3,$4,$5,0*
20,1,$1+$1,$4,$5,$6,$7,0*
20,1,$1+$1,$6,$7,$8,$9,0*
20,1,$1+$1,$8,$9,$2,$3,0*%
G04 Aperture macros list end*
%ADD10R,7.250000X10.300000*%
%ADD11R,3.000000X1.000000*%
%ADD12RoundRect,0.225000X-0.250000X0.225000X-0.250000X-0.225000X0.250000X-0.225000X0.250000X0.225000X0*%
%ADD13C,1.000000*%
%ADD14R,3.000000X3.000000*%
%ADD15C,3.000000*%
%ADD16C,3.250000*%
%ADD17C,1.900000*%
%ADD18R,1.900000X1.900000*%
%ADD19C,2.500000*%
%ADD20RoundRect,0.200000X0.200000X0.275000X-0.200000X0.275000X-0.200000X-0.275000X0.200000X-0.275000X0*%
%ADD21R,0.450000X0.850000*%
%ADD22RoundRect,0.250000X-0.312500X-0.625000X0.312500X-0.625000X0.312500X0.625000X-0.312500X0.625000X0*%
%ADD23RoundRect,0.250000X-0.250000X-0.475000X0.250000X-0.475000X0.250000X0.475000X-0.250000X0.475000X0*%
%ADD24RoundRect,0.250000X-0.350000X0.850000X-0.350000X-0.850000X0.350000X-0.850000X0.350000X0.850000X0*%
%ADD25RoundRect,0.249997X-2.650003X2.950003X-2.650003X-2.950003X2.650003X-2.950003X2.650003X2.950003X0*%
%ADD26RoundRect,0.250000X-0.262500X-0.450000X0.262500X-0.450000X0.262500X0.450000X-0.262500X0.450000X0*%
%ADD27RoundRect,0.250000X1.025000X-0.787500X1.025000X0.787500X-1.025000X0.787500X-1.025000X-0.787500X0*%
%ADD28RoundRect,0.250000X-0.625000X0.312500X-0.625000X-0.312500X0.625000X-0.312500X0.625000X0.312500X0*%
%ADD29RoundRect,0.250002X1.699998X-1.699998X1.699998X1.699998X-1.699998X1.699998X-1.699998X-1.699998X0*%
%ADD30C,3.900000*%
%ADD31RoundRect,0.250000X0.650000X-0.325000X0.650000X0.325000X-0.650000X0.325000X-0.650000X-0.325000X0*%
%ADD32R,0.600000X1.200000*%
%ADD33RoundRect,0.200000X0.275000X-0.200000X0.275000X0.200000X-0.275000X0.200000X-0.275000X-0.200000X0*%
%ADD34RoundRect,0.150000X-0.512500X-0.150000X0.512500X-0.150000X0.512500X0.150000X-0.512500X0.150000X0*%
%ADD35R,2.000000X2.000000*%
%ADD36R,1.150000X1.800000*%
%ADD37RoundRect,0.250000X0.450000X-0.262500X0.450000X0.262500X-0.450000X0.262500X-0.450000X-0.262500X0*%
%ADD38RoundRect,0.225000X-0.225000X-0.250000X0.225000X-0.250000X0.225000X0.250000X-0.225000X0.250000X0*%
%ADD39RoundRect,0.250000X0.625000X-0.312500X0.625000X0.312500X-0.625000X0.312500X-0.625000X-0.312500X0*%
%ADD40RoundRect,0.225000X0.225000X0.250000X-0.225000X0.250000X-0.225000X-0.250000X0.225000X-0.250000X0*%
%ADD41R,1.525000X0.650000*%
%ADD42C,0.410000*%
%ADD43RoundRect,0.250000X-0.650000X0.325000X-0.650000X-0.325000X0.650000X-0.325000X0.650000X0.325000X0*%
%ADD44RoundRect,0.200000X-0.275000X0.200000X-0.275000X-0.200000X0.275000X-0.200000X0.275000X0.200000X0*%
%ADD45R,2.200000X2.200000*%
%ADD46O,2.200000X2.200000*%
%ADD47R,0.800000X0.200000*%
%ADD48R,0.200000X0.800000*%
%ADD49R,3.800000X3.800000*%
%ADD50R,0.850000X0.650000*%
%ADD51R,0.850000X0.250000*%
%ADD52R,1.700000X1.700000*%
%ADD53O,1.700000X1.700000*%
%ADD54C,0.640000*%
G04 APERTURE END LIST*
D10*
%TO.C,IC3*%
X141500000Y-64500000D03*
D11*
X131200000Y-67040000D03*
X131200000Y-64500000D03*
X131200000Y-61960000D03*
%TD*%
D12*
%TO.C,C28*%
X186500000Y-57100000D03*
X186500000Y-58650000D03*
%TD*%
D13*
%TO.C,2V1*%
X196000000Y-64900000D03*
%TD*%
D14*
%TO.C,J3*%
X113600000Y-111620000D03*
D15*
X113600000Y-115500000D03*
%TD*%
D16*
%TO.C,J4*%
X119875000Y-121460000D03*
X119875000Y-132890000D03*
D17*
X116495000Y-133500000D03*
X114975000Y-130960000D03*
X116495000Y-123390000D03*
X114975000Y-120850000D03*
D18*
X128765000Y-121460000D03*
D17*
X126225000Y-122730000D03*
X128765000Y-124000000D03*
X126225000Y-125270000D03*
X128765000Y-126540000D03*
X126225000Y-127810000D03*
X128765000Y-129080000D03*
X126225000Y-130350000D03*
X128765000Y-131620000D03*
X126225000Y-132890000D03*
D19*
X122925000Y-119400000D03*
X122925000Y-134950000D03*
%TD*%
D20*
%TO.C,RP3_2*%
X179700000Y-68900000D03*
X178050000Y-68900000D03*
%TD*%
D21*
%TO.C,IC4*%
X134870000Y-85300000D03*
X133600000Y-85300000D03*
X132330000Y-85300000D03*
X131060000Y-85300000D03*
X131060000Y-93200000D03*
X132330000Y-93200000D03*
X133600000Y-93200000D03*
X134870000Y-93200000D03*
%TD*%
D22*
%TO.C,R1*%
X122937500Y-85400000D03*
X125862500Y-85400000D03*
%TD*%
D23*
%TO.C,C63*%
X176100000Y-81400000D03*
X178000000Y-81400000D03*
%TD*%
D24*
%TO.C,Q1*%
X168600000Y-129600000D03*
X166320000Y-129600000D03*
X164040000Y-129600000D03*
D25*
X166320000Y-135900000D03*
%TD*%
D20*
%TO.C,R3*%
X137700000Y-122500000D03*
X136050000Y-122500000D03*
%TD*%
D13*
%TO.C,3V3*%
X167200000Y-52500000D03*
%TD*%
%TO.C,VCORE1*%
X173000000Y-124200000D03*
%TD*%
D22*
%TO.C,R2*%
X122937500Y-89600000D03*
X125862500Y-89600000D03*
%TD*%
D26*
%TO.C,R6*%
X165875000Y-126400000D03*
X167700000Y-126400000D03*
%TD*%
D27*
%TO.C,C21*%
X123950000Y-65000000D03*
X123950000Y-58775000D03*
%TD*%
D12*
%TO.C,C48*%
X132050000Y-106175000D03*
X132050000Y-107725000D03*
%TD*%
D28*
%TO.C,R5*%
X181950000Y-88487500D03*
X181950000Y-91412500D03*
%TD*%
D29*
%TO.C,J1*%
X111825000Y-70675000D03*
D30*
X111825000Y-62875000D03*
%TD*%
D12*
%TO.C,C26*%
X183200000Y-64900000D03*
X183200000Y-66450000D03*
%TD*%
%TO.C,C30*%
X128050000Y-106175000D03*
X128050000Y-107725000D03*
%TD*%
D31*
%TO.C,Cin1*%
X117950000Y-65475000D03*
X117950000Y-62525000D03*
%TD*%
D20*
%TO.C,RP2_2*%
X179700000Y-61000000D03*
X178050000Y-61000000D03*
%TD*%
D32*
%TO.C,IC7*%
X174600000Y-86000000D03*
X173650000Y-86000000D03*
X172700000Y-86000000D03*
X172700000Y-88500000D03*
X174600000Y-88500000D03*
%TD*%
D33*
%TO.C,RLVDS3*%
X163332000Y-119995000D03*
X163332000Y-118345000D03*
%TD*%
%TO.C,RLVDS11*%
X163334000Y-95035000D03*
X163334000Y-93385000D03*
%TD*%
D34*
%TO.C,U2*%
X172400000Y-64900000D03*
X172400000Y-65850000D03*
X172400000Y-66800000D03*
X174675000Y-66800000D03*
X174675000Y-64900000D03*
%TD*%
D35*
%TO.C,TP11*%
X131600000Y-80600000D03*
%TD*%
D33*
%TO.C,RLVDS7*%
X163346000Y-107590000D03*
X163346000Y-105940000D03*
%TD*%
D36*
%TO.C,TR2*%
X118875000Y-89600000D03*
X116075000Y-89600000D03*
%TD*%
D37*
%TO.C,RP1_1*%
X136450000Y-56325000D03*
X136450000Y-54500000D03*
%TD*%
D13*
%TO.C,3V0*%
X196000000Y-57100000D03*
%TD*%
D38*
%TO.C,C37*%
X156225000Y-128000000D03*
X157775000Y-128000000D03*
%TD*%
D39*
%TO.C,R4*%
X133675000Y-135500000D03*
X133675000Y-132575000D03*
%TD*%
D21*
%TO.C,IC5*%
X142140000Y-85300000D03*
X140870000Y-85300000D03*
X139600000Y-85300000D03*
X138330000Y-85300000D03*
X138330000Y-93200000D03*
X139600000Y-93200000D03*
X140870000Y-93200000D03*
X142140000Y-93200000D03*
%TD*%
D40*
%TO.C,C55*%
X150350000Y-94800000D03*
X148800000Y-94800000D03*
%TD*%
D12*
%TO.C,C27*%
X186500000Y-64925000D03*
X186500000Y-66475000D03*
%TD*%
D38*
%TO.C,C23*%
X169150000Y-61800000D03*
X170700000Y-61800000D03*
%TD*%
D33*
%TO.C,RLVDS8*%
X163346000Y-104490000D03*
X163346000Y-102840000D03*
%TD*%
D38*
%TO.C,C64*%
X176000000Y-83600000D03*
X177550000Y-83600000D03*
%TD*%
D33*
%TO.C,RLVDS6*%
X163346000Y-110690000D03*
X163346000Y-109040000D03*
%TD*%
D41*
%TO.C,IC9*%
X160370000Y-109630000D03*
X160370000Y-108360000D03*
X160370000Y-107090000D03*
X160370000Y-105820000D03*
X160370000Y-104550000D03*
X160370000Y-103280000D03*
X160370000Y-102010000D03*
X160370000Y-100740000D03*
X154946000Y-100740000D03*
X154946000Y-102010000D03*
X154946000Y-103280000D03*
X154946000Y-104550000D03*
X154946000Y-105820000D03*
X154946000Y-107090000D03*
X154946000Y-108360000D03*
X154946000Y-109630000D03*
%TD*%
D33*
%TO.C,RLVDS9*%
X163346000Y-101390000D03*
X163346000Y-99740000D03*
%TD*%
D31*
%TO.C,C22*%
X131450000Y-56475000D03*
X131450000Y-53525000D03*
%TD*%
D42*
%TO.C,IC6*%
X149800000Y-101200000D03*
X149800000Y-102000000D03*
X149800000Y-102800000D03*
X149800000Y-103600000D03*
X149800000Y-104400000D03*
X149800000Y-105200000D03*
X149800000Y-106000000D03*
X149800000Y-106800000D03*
X149800000Y-107600000D03*
X149800000Y-108400000D03*
X149800000Y-109200000D03*
X149800000Y-110000000D03*
X149800000Y-110800000D03*
X149800000Y-111600000D03*
X149800000Y-112400000D03*
X149800000Y-113200000D03*
X149800000Y-114000000D03*
X149800000Y-114800000D03*
X149000000Y-101200000D03*
X149000000Y-102000000D03*
X149000000Y-102800000D03*
X149000000Y-103600000D03*
X149000000Y-104400000D03*
X149000000Y-105200000D03*
X149000000Y-106000000D03*
X149000000Y-106800000D03*
X149000000Y-107600000D03*
X149000000Y-108400000D03*
X149000000Y-109200000D03*
X149000000Y-110000000D03*
X149000000Y-110800000D03*
X149000000Y-111600000D03*
X149000000Y-112400000D03*
X149000000Y-113200000D03*
X149000000Y-114000000D03*
X149000000Y-114800000D03*
X148200000Y-101200000D03*
X148200000Y-102000000D03*
X148200000Y-102800000D03*
X148200000Y-103600000D03*
X148200000Y-104400000D03*
X148200000Y-105200000D03*
X148200000Y-106000000D03*
X148200000Y-106800000D03*
X148200000Y-107600000D03*
X148200000Y-108400000D03*
X148200000Y-109200000D03*
X148200000Y-110000000D03*
X148200000Y-110800000D03*
X148200000Y-111600000D03*
X148200000Y-112400000D03*
X148200000Y-113200000D03*
X148200000Y-114000000D03*
X148200000Y-114800000D03*
X147400000Y-101200000D03*
X147400000Y-102000000D03*
X147400000Y-102800000D03*
X147400000Y-103600000D03*
X147400000Y-104400000D03*
X147400000Y-105200000D03*
X147400000Y-106000000D03*
X147400000Y-106800000D03*
X147400000Y-107600000D03*
X147400000Y-108400000D03*
X147400000Y-109200000D03*
X147400000Y-110000000D03*
X147400000Y-110800000D03*
X147400000Y-111600000D03*
X147400000Y-112400000D03*
X147400000Y-113200000D03*
X147400000Y-114000000D03*
X147400000Y-114800000D03*
X146600000Y-101200000D03*
X146600000Y-102000000D03*
X146600000Y-102800000D03*
X146600000Y-103600000D03*
X146600000Y-112400000D03*
X146600000Y-113200000D03*
X146600000Y-114000000D03*
X146600000Y-114800000D03*
X145800000Y-101200000D03*
X145800000Y-102000000D03*
X145800000Y-102800000D03*
X145800000Y-103600000D03*
X145800000Y-105200000D03*
X145800000Y-106000000D03*
X145800000Y-106800000D03*
X145800000Y-107600000D03*
X145800000Y-108400000D03*
X145800000Y-109200000D03*
X145800000Y-110000000D03*
X145800000Y-110800000D03*
X145800000Y-112400000D03*
X145800000Y-113200000D03*
X145800000Y-114000000D03*
X145800000Y-114800000D03*
X145000000Y-101200000D03*
X145000000Y-102000000D03*
X145000000Y-102800000D03*
X145000000Y-103600000D03*
X145000000Y-105200000D03*
X145000000Y-106000000D03*
X145000000Y-110000000D03*
X145000000Y-110800000D03*
X145000000Y-112400000D03*
X145000000Y-113200000D03*
X145000000Y-114000000D03*
X145000000Y-114800000D03*
X144200000Y-101200000D03*
X144200000Y-102000000D03*
X144200000Y-102800000D03*
X144200000Y-103600000D03*
X144200000Y-105200000D03*
X144200000Y-106800000D03*
X144200000Y-107600000D03*
X144200000Y-108400000D03*
X144200000Y-109200000D03*
X144200000Y-110800000D03*
X144200000Y-112400000D03*
X144200000Y-113200000D03*
X144200000Y-114000000D03*
X144200000Y-114800000D03*
X143400000Y-101200000D03*
X143400000Y-102000000D03*
X143400000Y-102800000D03*
X143400000Y-103600000D03*
X143400000Y-105200000D03*
X143400000Y-106800000D03*
X143400000Y-107600000D03*
X143400000Y-108400000D03*
X143400000Y-109200000D03*
X143400000Y-110800000D03*
X143400000Y-112400000D03*
X143400000Y-113200000D03*
X143400000Y-114000000D03*
X143400000Y-114800000D03*
X142600000Y-101200000D03*
X142600000Y-102000000D03*
X142600000Y-102800000D03*
X142600000Y-103600000D03*
X142600000Y-105200000D03*
X142600000Y-106800000D03*
X142600000Y-107600000D03*
X142600000Y-108400000D03*
X142600000Y-109200000D03*
X142600000Y-110800000D03*
X142600000Y-112400000D03*
X142600000Y-113200000D03*
X142600000Y-114000000D03*
X142600000Y-114800000D03*
X141800000Y-101200000D03*
X141800000Y-102000000D03*
X141800000Y-102800000D03*
X141800000Y-103600000D03*
X141800000Y-105200000D03*
X141800000Y-106800000D03*
X141800000Y-107600000D03*
X141800000Y-108400000D03*
X141800000Y-109200000D03*
X141800000Y-110800000D03*
X141800000Y-112400000D03*
X141800000Y-113200000D03*
X141800000Y-114000000D03*
X141800000Y-114800000D03*
X141000000Y-101200000D03*
X141000000Y-102000000D03*
X141000000Y-102800000D03*
X141000000Y-103600000D03*
X141000000Y-105200000D03*
X141000000Y-106000000D03*
X141000000Y-110000000D03*
X141000000Y-110800000D03*
X141000000Y-112400000D03*
X141000000Y-113200000D03*
X141000000Y-114000000D03*
X141000000Y-114800000D03*
X140200000Y-101200000D03*
X140200000Y-102000000D03*
X140200000Y-102800000D03*
X140200000Y-103600000D03*
X140200000Y-105200000D03*
X140200000Y-106000000D03*
X140200000Y-106800000D03*
X140200000Y-107600000D03*
X140200000Y-108400000D03*
X140200000Y-109200000D03*
X140200000Y-110000000D03*
X140200000Y-110800000D03*
X140200000Y-112400000D03*
X140200000Y-113200000D03*
X140200000Y-114000000D03*
X140200000Y-114800000D03*
X139400000Y-101200000D03*
X139400000Y-102000000D03*
X139400000Y-102800000D03*
X139400000Y-103600000D03*
X139400000Y-112400000D03*
X139400000Y-113200000D03*
X139400000Y-114000000D03*
X139400000Y-114800000D03*
X138600000Y-101200000D03*
X138600000Y-102000000D03*
X138600000Y-102800000D03*
X138600000Y-103600000D03*
X138600000Y-104400000D03*
X138600000Y-105200000D03*
X138600000Y-106000000D03*
X138600000Y-106800000D03*
X138600000Y-107600000D03*
X138600000Y-108400000D03*
X138600000Y-109200000D03*
X138600000Y-110000000D03*
X138600000Y-110800000D03*
X138600000Y-111600000D03*
X138600000Y-112400000D03*
X138600000Y-113200000D03*
X138600000Y-114000000D03*
X138600000Y-114800000D03*
X137800000Y-101200000D03*
X137800000Y-102000000D03*
X137800000Y-102800000D03*
X137800000Y-103600000D03*
X137800000Y-104400000D03*
X137800000Y-105200000D03*
X137800000Y-106000000D03*
X137800000Y-106800000D03*
X137800000Y-107600000D03*
X137800000Y-108400000D03*
X137800000Y-109200000D03*
X137800000Y-110000000D03*
X137800000Y-110800000D03*
X137800000Y-111600000D03*
X137800000Y-112400000D03*
X137800000Y-113200000D03*
X137800000Y-114000000D03*
X137800000Y-114800000D03*
X137000000Y-101200000D03*
X137000000Y-102000000D03*
X137000000Y-102800000D03*
X137000000Y-103600000D03*
X137000000Y-104400000D03*
X137000000Y-105200000D03*
X137000000Y-106000000D03*
X137000000Y-106800000D03*
X137000000Y-107600000D03*
X137000000Y-108400000D03*
X137000000Y-109200000D03*
X137000000Y-110000000D03*
X137000000Y-110800000D03*
X137000000Y-111600000D03*
X137000000Y-112400000D03*
X137000000Y-113200000D03*
X137000000Y-114000000D03*
X137000000Y-114800000D03*
X136200000Y-101200000D03*
X136200000Y-102000000D03*
X136200000Y-102800000D03*
X136200000Y-103600000D03*
X136200000Y-104400000D03*
X136200000Y-105200000D03*
X136200000Y-106000000D03*
X136200000Y-106800000D03*
X136200000Y-107600000D03*
X136200000Y-108400000D03*
X136200000Y-109200000D03*
X136200000Y-110000000D03*
X136200000Y-110800000D03*
X136200000Y-111600000D03*
X136200000Y-112400000D03*
X136200000Y-113200000D03*
X136200000Y-114000000D03*
X136200000Y-114800000D03*
%TD*%
D43*
%TO.C,Cin2*%
X152450000Y-69000000D03*
X152450000Y-71950000D03*
%TD*%
D41*
%TO.C,IC8*%
X160332000Y-122065000D03*
X160332000Y-120795000D03*
X160332000Y-119525000D03*
X160332000Y-118255000D03*
X160332000Y-116985000D03*
X160332000Y-115715000D03*
X160332000Y-114445000D03*
X160332000Y-113175000D03*
X154908000Y-113175000D03*
X154908000Y-114445000D03*
X154908000Y-115715000D03*
X154908000Y-116985000D03*
X154908000Y-118255000D03*
X154908000Y-119525000D03*
X154908000Y-120795000D03*
X154908000Y-122065000D03*
%TD*%
D12*
%TO.C,C40*%
X130000000Y-106175000D03*
X130000000Y-107725000D03*
%TD*%
D44*
%TO.C,RP2_1*%
X179800000Y-57100000D03*
X179800000Y-58750000D03*
%TD*%
D41*
%TO.C,IC10*%
X160358000Y-98475000D03*
X160358000Y-97205000D03*
X160358000Y-95935000D03*
X160358000Y-94665000D03*
X160358000Y-93395000D03*
X160358000Y-92125000D03*
X160358000Y-90855000D03*
X160358000Y-89585000D03*
X154934000Y-89585000D03*
X154934000Y-90855000D03*
X154934000Y-92125000D03*
X154934000Y-93395000D03*
X154934000Y-94665000D03*
X154934000Y-95935000D03*
X154934000Y-97205000D03*
X154934000Y-98475000D03*
%TD*%
D44*
%TO.C,RP3_1*%
X179800000Y-64875000D03*
X179800000Y-66525000D03*
%TD*%
D45*
%TO.C,D1*%
X132900000Y-72030000D03*
D46*
X143060000Y-72030000D03*
%TD*%
D38*
%TO.C,C24*%
X168750000Y-69700000D03*
X170300000Y-69700000D03*
%TD*%
D13*
%TO.C,XRES1*%
X141900000Y-118800000D03*
%TD*%
D12*
%TO.C,C25*%
X183200000Y-57125000D03*
X183200000Y-58675000D03*
%TD*%
D33*
%TO.C,RLVDS2*%
X163332000Y-123095000D03*
X163332000Y-121445000D03*
%TD*%
D37*
%TO.C,RP1_2*%
X147950000Y-55500000D03*
X147950000Y-53675000D03*
%TD*%
D34*
%TO.C,U1*%
X172525000Y-57100000D03*
X172525000Y-58050000D03*
X172525000Y-59000000D03*
X174800000Y-59000000D03*
X174800000Y-57100000D03*
%TD*%
D23*
%TO.C,C39*%
X157100000Y-136000000D03*
X159000000Y-136000000D03*
%TD*%
D40*
%TO.C,C57*%
X150275000Y-98250000D03*
X148725000Y-98250000D03*
%TD*%
D33*
%TO.C,RLVDS1*%
X170200000Y-88025000D03*
X170200000Y-86375000D03*
%TD*%
D47*
%TO.C,IC2*%
X135100000Y-126050000D03*
X135100000Y-126450000D03*
X135100000Y-126850000D03*
X135100000Y-127250000D03*
X135100000Y-127650000D03*
X135100000Y-128050000D03*
X135100000Y-128450000D03*
X135100000Y-128850000D03*
X135100000Y-129250000D03*
X135100000Y-129650000D03*
D48*
X135800000Y-130350000D03*
X136200000Y-130350000D03*
X136600000Y-130350000D03*
X137000000Y-130350000D03*
X137400000Y-130350000D03*
X137800000Y-130350000D03*
X138200000Y-130350000D03*
X138600000Y-130350000D03*
X139000000Y-130350000D03*
X139400000Y-130350000D03*
D47*
X140100000Y-129650000D03*
X140100000Y-129250000D03*
X140100000Y-128850000D03*
X140100000Y-128450000D03*
X140100000Y-128050000D03*
X140100000Y-127650000D03*
X140100000Y-127250000D03*
X140100000Y-126850000D03*
X140100000Y-126450000D03*
X140100000Y-126050000D03*
D48*
X139400000Y-125350000D03*
X139000000Y-125350000D03*
X138600000Y-125350000D03*
X138200000Y-125350000D03*
X137800000Y-125350000D03*
X137400000Y-125350000D03*
X137000000Y-125350000D03*
X136600000Y-125350000D03*
X136200000Y-125350000D03*
X135800000Y-125350000D03*
D49*
X137600000Y-127850000D03*
%TD*%
D36*
%TO.C,TR1*%
X118900000Y-85400000D03*
X116100000Y-85400000D03*
%TD*%
D50*
%TO.C,Y1*%
X158550000Y-132550000D03*
D51*
X158550000Y-131725000D03*
D50*
X158550000Y-130900000D03*
X157100000Y-130900000D03*
D51*
X157100000Y-131725000D03*
D50*
X157100000Y-132550000D03*
%TD*%
D52*
%TO.C,J2*%
X151700000Y-138200000D03*
D53*
X149160000Y-138200000D03*
X146620000Y-138200000D03*
X144080000Y-138200000D03*
%TD*%
D40*
%TO.C,C60*%
X150325000Y-96550000D03*
X148775000Y-96550000D03*
%TD*%
D33*
%TO.C,RLVDS5*%
X163332000Y-113745000D03*
X163332000Y-112095000D03*
%TD*%
D45*
%TO.C,D2*%
X154000000Y-64000000D03*
D46*
X154000000Y-53840000D03*
%TD*%
D38*
%TO.C,C43*%
X142600000Y-94900000D03*
X144150000Y-94900000D03*
%TD*%
D35*
%TO.C,TP9*%
X131350000Y-117100000D03*
%TD*%
D33*
%TO.C,RLVDS4*%
X163332000Y-116895000D03*
X163332000Y-115245000D03*
%TD*%
D38*
%TO.C,C42*%
X135325000Y-94900000D03*
X136875000Y-94900000D03*
%TD*%
D12*
%TO.C,C62*%
X170100000Y-125300000D03*
X170100000Y-126850000D03*
%TD*%
D54*
%TO.C,IC1*%
X175970000Y-102560000D03*
X175970000Y-103830000D03*
X175970000Y-105100000D03*
X175970000Y-106370000D03*
X175970000Y-107640000D03*
X175970000Y-108910000D03*
X175970000Y-110180000D03*
X175970000Y-111450000D03*
X175970000Y-112720000D03*
X175970000Y-113990000D03*
X175970000Y-115260000D03*
X177240000Y-101290000D03*
X177240000Y-102560000D03*
X177240000Y-103830000D03*
X177240000Y-105100000D03*
X177240000Y-106370000D03*
X177240000Y-107640000D03*
X177240000Y-108910000D03*
X177240000Y-110180000D03*
X177240000Y-111450000D03*
X177240000Y-112720000D03*
X177240000Y-113990000D03*
X177240000Y-115260000D03*
X178510000Y-101290000D03*
X178510000Y-102560000D03*
X178510000Y-103830000D03*
X178510000Y-105100000D03*
X178510000Y-106370000D03*
X178510000Y-107640000D03*
X178510000Y-108910000D03*
X178510000Y-110180000D03*
X178510000Y-111450000D03*
X178510000Y-112720000D03*
X178510000Y-113990000D03*
X178510000Y-115260000D03*
X179780000Y-101290000D03*
X179780000Y-102560000D03*
X179780000Y-103830000D03*
X179780000Y-105100000D03*
X179780000Y-106370000D03*
X179780000Y-107640000D03*
X179780000Y-108910000D03*
X179780000Y-110180000D03*
X179780000Y-111450000D03*
X179780000Y-112720000D03*
X179780000Y-113990000D03*
X179780000Y-115260000D03*
X181050000Y-101290000D03*
X181050000Y-102560000D03*
X181050000Y-103830000D03*
X181050000Y-105100000D03*
X181050000Y-106370000D03*
X181050000Y-107640000D03*
X181050000Y-108910000D03*
X181050000Y-110180000D03*
X181050000Y-111450000D03*
X181050000Y-112720000D03*
X181050000Y-113990000D03*
X181050000Y-115260000D03*
X182320000Y-101290000D03*
X182320000Y-102560000D03*
X182320000Y-103830000D03*
X182320000Y-105100000D03*
X182320000Y-106370000D03*
X182320000Y-107640000D03*
X182320000Y-108910000D03*
X182320000Y-110180000D03*
X182320000Y-111450000D03*
X182320000Y-112720000D03*
X182320000Y-113990000D03*
X182320000Y-115260000D03*
X183590000Y-101290000D03*
X183590000Y-102560000D03*
X183590000Y-103830000D03*
X183590000Y-105100000D03*
X183590000Y-106370000D03*
X183590000Y-107640000D03*
X183590000Y-108910000D03*
X183590000Y-110180000D03*
X183590000Y-111450000D03*
X183590000Y-112720000D03*
X183590000Y-113990000D03*
X183590000Y-115260000D03*
X184860000Y-101290000D03*
X184860000Y-102560000D03*
X184860000Y-103830000D03*
X184860000Y-105100000D03*
X184860000Y-106370000D03*
X184860000Y-107640000D03*
X184860000Y-108910000D03*
X184860000Y-110180000D03*
X184860000Y-111450000D03*
X184860000Y-112720000D03*
X184860000Y-113990000D03*
X184860000Y-115260000D03*
%TD*%
D33*
%TO.C,RLVDS10*%
X163334000Y-98235000D03*
X163334000Y-96585000D03*
%TD*%
M02*
