%TF.GenerationSoftware,KiCad,Pcbnew,9.0.0*%
%TF.CreationDate,2025-02-27T19:38:36-05:00*%
%TF.ProjectId,S25-26,5332352d-3236-42e6-9b69-6361645f7063,rev?*%
%TF.SameCoordinates,Original*%
%TF.FileFunction,Soldermask,Bot*%
%TF.FilePolarity,Negative*%
%FSLAX46Y46*%
G04 Gerber Fmt 4.6, Leading zero omitted, Abs format (unit mm)*
G04 Created by KiCad (PCBNEW 9.0.0) date 2025-02-27 19:38:36*
%MOMM*%
%LPD*%
G01*
G04 APERTURE LIST*
G04 Aperture macros list*
%AMRoundRect*
0 Rectangle with rounded corners*
0 $1 Rounding radius*
0 $2 $3 $4 $5 $6 $7 $8 $9 X,Y pos of 4 corners*
0 Add a 4 corners polygon primitive as box body*
4,1,4,$2,$3,$4,$5,$6,$7,$8,$9,$2,$3,0*
0 Add four circle primitives for the rounded corners*
1,1,$1+$1,$2,$3*
1,1,$1+$1,$4,$5*
1,1,$1+$1,$6,$7*
1,1,$1+$1,$8,$9*
0 Add four rect primitives between the rounded corners*
20,1,$1+$1,$2,$3,$4,$5,0*
20,1,$1+$1,$4,$5,$6,$7,0*
20,1,$1+$1,$6,$7,$8,$9,0*
20,1,$1+$1,$8,$9,$2,$3,0*%
G04 Aperture macros list end*
%ADD10RoundRect,0.225000X0.225000X0.250000X-0.225000X0.250000X-0.225000X-0.250000X0.225000X-0.250000X0*%
%ADD11R,3.000000X3.000000*%
%ADD12C,3.000000*%
%ADD13C,3.250000*%
%ADD14C,1.900000*%
%ADD15R,1.900000X1.900000*%
%ADD16C,2.500000*%
%ADD17RoundRect,0.250002X1.699998X-1.699998X1.699998X1.699998X-1.699998X1.699998X-1.699998X-1.699998X0*%
%ADD18C,3.900000*%
%ADD19R,2.200000X2.200000*%
%ADD20O,2.200000X2.200000*%
%ADD21R,1.700000X1.700000*%
%ADD22O,1.700000X1.700000*%
%ADD23C,0.640000*%
%ADD24RoundRect,0.225000X-0.225000X-0.250000X0.225000X-0.250000X0.225000X0.250000X-0.225000X0.250000X0*%
%ADD25R,2.000000X2.000000*%
%ADD26RoundRect,0.225000X0.250000X-0.225000X0.250000X0.225000X-0.250000X0.225000X-0.250000X-0.225000X0*%
%ADD27RoundRect,0.225000X-0.250000X0.225000X-0.250000X-0.225000X0.250000X-0.225000X0.250000X0.225000X0*%
%ADD28RoundRect,0.250000X0.475000X-0.250000X0.475000X0.250000X-0.475000X0.250000X-0.475000X-0.250000X0*%
G04 APERTURE END LIST*
D10*
%TO.C,C38*%
X138575000Y-106650000D03*
X140125000Y-106650000D03*
%TD*%
D11*
%TO.C,J3*%
X113600000Y-111620000D03*
D12*
X113600000Y-115500000D03*
%TD*%
D13*
%TO.C,J4*%
X119875000Y-121460000D03*
X119875000Y-132890000D03*
D14*
X116495000Y-133500000D03*
X114975000Y-130960000D03*
X116495000Y-123390000D03*
X114975000Y-120850000D03*
D15*
X128765000Y-121460000D03*
D14*
X126225000Y-122730000D03*
X128765000Y-124000000D03*
X126225000Y-125270000D03*
X128765000Y-126540000D03*
X126225000Y-127810000D03*
X128765000Y-129080000D03*
X126225000Y-130350000D03*
X128765000Y-131620000D03*
X126225000Y-132890000D03*
D16*
X122925000Y-119400000D03*
X122925000Y-134950000D03*
%TD*%
D17*
%TO.C,J1*%
X111825000Y-70675000D03*
D18*
X111825000Y-62875000D03*
%TD*%
D19*
%TO.C,D1*%
X132900000Y-72030000D03*
D20*
X143060000Y-72030000D03*
%TD*%
D21*
%TO.C,J2*%
X151700000Y-138200000D03*
D22*
X149160000Y-138200000D03*
X146620000Y-138200000D03*
X144080000Y-138200000D03*
%TD*%
D19*
%TO.C,D2*%
X154000000Y-64000000D03*
D20*
X154000000Y-53840000D03*
%TD*%
D23*
%TO.C,IC1*%
X175970000Y-102560000D03*
X175970000Y-103830000D03*
X175970000Y-105100000D03*
X175970000Y-106370000D03*
X175970000Y-107640000D03*
X175970000Y-108910000D03*
X175970000Y-110180000D03*
X175970000Y-111450000D03*
X175970000Y-112720000D03*
X175970000Y-113990000D03*
X175970000Y-115260000D03*
X177240000Y-101290000D03*
X177240000Y-102560000D03*
X177240000Y-103830000D03*
X177240000Y-105100000D03*
X177240000Y-106370000D03*
X177240000Y-107640000D03*
X177240000Y-108910000D03*
X177240000Y-110180000D03*
X177240000Y-111450000D03*
X177240000Y-112720000D03*
X177240000Y-113990000D03*
X177240000Y-115260000D03*
X178510000Y-101290000D03*
X178510000Y-102560000D03*
X178510000Y-103830000D03*
X178510000Y-105100000D03*
X178510000Y-106370000D03*
X178510000Y-107640000D03*
X178510000Y-108910000D03*
X178510000Y-110180000D03*
X178510000Y-111450000D03*
X178510000Y-112720000D03*
X178510000Y-113990000D03*
X178510000Y-115260000D03*
X179780000Y-101290000D03*
X179780000Y-102560000D03*
X179780000Y-103830000D03*
X179780000Y-105100000D03*
X179780000Y-106370000D03*
X179780000Y-107640000D03*
X179780000Y-108910000D03*
X179780000Y-110180000D03*
X179780000Y-111450000D03*
X179780000Y-112720000D03*
X179780000Y-113990000D03*
X179780000Y-115260000D03*
X181050000Y-101290000D03*
X181050000Y-102560000D03*
X181050000Y-103830000D03*
X181050000Y-105100000D03*
X181050000Y-106370000D03*
X181050000Y-107640000D03*
X181050000Y-108910000D03*
X181050000Y-110180000D03*
X181050000Y-111450000D03*
X181050000Y-112720000D03*
X181050000Y-113990000D03*
X181050000Y-115260000D03*
X182320000Y-101290000D03*
X182320000Y-102560000D03*
X182320000Y-103830000D03*
X182320000Y-105100000D03*
X182320000Y-106370000D03*
X182320000Y-107640000D03*
X182320000Y-108910000D03*
X182320000Y-110180000D03*
X182320000Y-111450000D03*
X182320000Y-112720000D03*
X182320000Y-113990000D03*
X182320000Y-115260000D03*
X183590000Y-101290000D03*
X183590000Y-102560000D03*
X183590000Y-103830000D03*
X183590000Y-105100000D03*
X183590000Y-106370000D03*
X183590000Y-107640000D03*
X183590000Y-108910000D03*
X183590000Y-110180000D03*
X183590000Y-111450000D03*
X183590000Y-112720000D03*
X183590000Y-113990000D03*
X183590000Y-115260000D03*
X184860000Y-101290000D03*
X184860000Y-102560000D03*
X184860000Y-103830000D03*
X184860000Y-105100000D03*
X184860000Y-106370000D03*
X184860000Y-107640000D03*
X184860000Y-108910000D03*
X184860000Y-110180000D03*
X184860000Y-111450000D03*
X184860000Y-112720000D03*
X184860000Y-113990000D03*
X184860000Y-115260000D03*
%TD*%
D24*
%TO.C,C52*%
X145475000Y-104050000D03*
X147025000Y-104050000D03*
%TD*%
D10*
%TO.C,C29*%
X139725000Y-105150000D03*
X138175000Y-105150000D03*
%TD*%
D25*
%TO.C,TP3*%
X170050000Y-102325000D03*
%TD*%
D26*
%TO.C,C44*%
X143850000Y-105150000D03*
X143850000Y-103600000D03*
%TD*%
D27*
%TO.C,C54*%
X155650000Y-124200000D03*
X155650000Y-125750000D03*
%TD*%
D25*
%TO.C,TP16*%
X166475000Y-130425000D03*
%TD*%
D28*
%TO.C,C69*%
X159100000Y-118650000D03*
X159100000Y-116750000D03*
%TD*%
D24*
%TO.C,C61*%
X146725000Y-110450000D03*
X148275000Y-110450000D03*
%TD*%
D26*
%TO.C,C3*%
X182060000Y-121330000D03*
X182060000Y-119780000D03*
%TD*%
D10*
%TO.C,C51*%
X152475000Y-123700000D03*
X150925000Y-123700000D03*
%TD*%
%TO.C,C6*%
X193565000Y-99980000D03*
X192015000Y-99980000D03*
%TD*%
D26*
%TO.C,C67*%
X157000000Y-105975000D03*
X157000000Y-104425000D03*
%TD*%
D24*
%TO.C,C49*%
X145575000Y-116350000D03*
X147125000Y-116350000D03*
%TD*%
D10*
%TO.C,C8*%
X193555000Y-104950000D03*
X192005000Y-104950000D03*
%TD*%
D26*
%TO.C,C14*%
X185460000Y-121310000D03*
X185460000Y-119760000D03*
%TD*%
D10*
%TO.C,C10*%
X193555000Y-98300000D03*
X192005000Y-98300000D03*
%TD*%
D27*
%TO.C,C19*%
X176820000Y-119785000D03*
X176820000Y-121335000D03*
%TD*%
D25*
%TO.C,TP2*%
X157150000Y-108550000D03*
%TD*%
D10*
%TO.C,C45*%
X139475000Y-109850000D03*
X137925000Y-109850000D03*
%TD*%
D25*
%TO.C,TP12*%
X132725000Y-87750000D03*
%TD*%
D24*
%TO.C,C50*%
X145725000Y-105700000D03*
X147275000Y-105700000D03*
%TD*%
%TO.C,C34*%
X145440000Y-108950000D03*
X146990000Y-108950000D03*
%TD*%
D25*
%TO.C,TP1*%
X154150000Y-109500000D03*
%TD*%
D10*
%TO.C,C56*%
X139775000Y-103600000D03*
X138225000Y-103600000D03*
%TD*%
%TO.C,C17*%
X193570000Y-114610000D03*
X192020000Y-114610000D03*
%TD*%
D26*
%TO.C,C4*%
X180330000Y-121330000D03*
X180330000Y-119780000D03*
%TD*%
D27*
%TO.C,C32*%
X142750000Y-110800000D03*
X142750000Y-112350000D03*
%TD*%
%TO.C,C53*%
X154050000Y-124200000D03*
X154050000Y-125750000D03*
%TD*%
D28*
%TO.C,C68*%
X159100000Y-95000000D03*
X159100000Y-93100000D03*
%TD*%
D25*
%TO.C,TP10*%
X135375000Y-80525000D03*
%TD*%
D27*
%TO.C,C47*%
X157250000Y-124200000D03*
X157250000Y-125750000D03*
%TD*%
D10*
%TO.C,C7*%
X193560000Y-103310000D03*
X192010000Y-103310000D03*
%TD*%
D25*
%TO.C,TP7*%
X177875000Y-89775000D03*
%TD*%
D27*
%TO.C,C31*%
X141200000Y-110800000D03*
X141200000Y-112350000D03*
%TD*%
D10*
%TO.C,C16*%
X193560000Y-111420000D03*
X192010000Y-111420000D03*
%TD*%
%TO.C,C36*%
X140125000Y-108250000D03*
X138575000Y-108250000D03*
%TD*%
D26*
%TO.C,C66*%
X157000000Y-118475000D03*
X157000000Y-116925000D03*
%TD*%
D25*
%TO.C,TP5*%
X155100000Y-113025000D03*
%TD*%
D26*
%TO.C,C2*%
X183760000Y-121330000D03*
X183760000Y-119780000D03*
%TD*%
D25*
%TO.C,TP4*%
X152225000Y-102525000D03*
%TD*%
%TO.C,TP8*%
X141475000Y-122800000D03*
%TD*%
D24*
%TO.C,C35*%
X145750000Y-107350000D03*
X147300000Y-107350000D03*
%TD*%
D25*
%TO.C,TP17*%
X143725000Y-81900000D03*
%TD*%
D26*
%TO.C,C41*%
X141300000Y-105125000D03*
X141300000Y-103575000D03*
%TD*%
D28*
%TO.C,C70*%
X159100000Y-106150000D03*
X159100000Y-104250000D03*
%TD*%
D10*
%TO.C,C9*%
X193555000Y-109810000D03*
X192005000Y-109810000D03*
%TD*%
D25*
%TO.C,TP13*%
X140975000Y-90250000D03*
%TD*%
D10*
%TO.C,C12*%
X193570000Y-113040000D03*
X192020000Y-113040000D03*
%TD*%
%TO.C,C5*%
X193570000Y-96600000D03*
X192020000Y-96600000D03*
%TD*%
%TO.C,C13*%
X193570000Y-116210000D03*
X192020000Y-116210000D03*
%TD*%
D25*
%TO.C,TP14*%
X139625000Y-96150000D03*
%TD*%
D27*
%TO.C,C33*%
X144300000Y-110775000D03*
X144300000Y-112325000D03*
%TD*%
D25*
%TO.C,TP15*%
X129700000Y-90775000D03*
%TD*%
D26*
%TO.C,C65*%
X157000000Y-94850000D03*
X157000000Y-93300000D03*
%TD*%
D10*
%TO.C,C18*%
X193580000Y-117850000D03*
X192030000Y-117850000D03*
%TD*%
%TO.C,C46*%
X137450000Y-111400000D03*
X135900000Y-111400000D03*
%TD*%
%TO.C,C11*%
X193565000Y-101640000D03*
X192015000Y-101640000D03*
%TD*%
%TO.C,C59*%
X136437500Y-113100000D03*
X134887500Y-113100000D03*
%TD*%
D27*
%TO.C,C20*%
X178600000Y-119780000D03*
X178600000Y-121330000D03*
%TD*%
D25*
%TO.C,TP6*%
X151950000Y-114625000D03*
%TD*%
D10*
%TO.C,C1*%
X193580000Y-119470000D03*
X192030000Y-119470000D03*
%TD*%
D24*
%TO.C,C58*%
X146775000Y-112050000D03*
X148325000Y-112050000D03*
%TD*%
D10*
%TO.C,C15*%
X193555000Y-106570000D03*
X192005000Y-106570000D03*
%TD*%
M02*
