%TF.GenerationSoftware,KiCad,Pcbnew,9.0.0*%
%TF.CreationDate,2025-02-27T19:38:35-05:00*%
%TF.ProjectId,S25-26,5332352d-3236-42e6-9b69-6361645f7063,rev?*%
%TF.SameCoordinates,Original*%
%TF.FileFunction,Copper,L3,Inr*%
%TF.FilePolarity,Positive*%
%FSLAX46Y46*%
G04 Gerber Fmt 4.6, Leading zero omitted, Abs format (unit mm)*
G04 Created by KiCad (PCBNEW 9.0.0) date 2025-02-27 19:38:35*
%MOMM*%
%LPD*%
G01*
G04 APERTURE LIST*
G04 Aperture macros list*
%AMRoundRect*
0 Rectangle with rounded corners*
0 $1 Rounding radius*
0 $2 $3 $4 $5 $6 $7 $8 $9 X,Y pos of 4 corners*
0 Add a 4 corners polygon primitive as box body*
4,1,4,$2,$3,$4,$5,$6,$7,$8,$9,$2,$3,0*
0 Add four circle primitives for the rounded corners*
1,1,$1+$1,$2,$3*
1,1,$1+$1,$4,$5*
1,1,$1+$1,$6,$7*
1,1,$1+$1,$8,$9*
0 Add four rect primitives between the rounded corners*
20,1,$1+$1,$2,$3,$4,$5,0*
20,1,$1+$1,$4,$5,$6,$7,0*
20,1,$1+$1,$6,$7,$8,$9,0*
20,1,$1+$1,$8,$9,$2,$3,0*%
G04 Aperture macros list end*
%TA.AperFunction,ComponentPad*%
%ADD10R,3.000000X3.000000*%
%TD*%
%TA.AperFunction,ComponentPad*%
%ADD11C,3.000000*%
%TD*%
%TA.AperFunction,ComponentPad*%
%ADD12C,1.900000*%
%TD*%
%TA.AperFunction,ComponentPad*%
%ADD13R,1.900000X1.900000*%
%TD*%
%TA.AperFunction,ComponentPad*%
%ADD14C,2.500000*%
%TD*%
%TA.AperFunction,ComponentPad*%
%ADD15RoundRect,0.250002X1.699998X-1.699998X1.699998X1.699998X-1.699998X1.699998X-1.699998X-1.699998X0*%
%TD*%
%TA.AperFunction,ComponentPad*%
%ADD16C,3.900000*%
%TD*%
%TA.AperFunction,ComponentPad*%
%ADD17R,2.200000X2.200000*%
%TD*%
%TA.AperFunction,ComponentPad*%
%ADD18O,2.200000X2.200000*%
%TD*%
%TA.AperFunction,ComponentPad*%
%ADD19R,1.700000X1.700000*%
%TD*%
%TA.AperFunction,ComponentPad*%
%ADD20O,1.700000X1.700000*%
%TD*%
%TA.AperFunction,ComponentPad*%
%ADD21C,0.640000*%
%TD*%
%TA.AperFunction,ViaPad*%
%ADD22C,0.400000*%
%TD*%
%TA.AperFunction,ViaPad*%
%ADD23C,0.600000*%
%TD*%
%TA.AperFunction,ViaPad*%
%ADD24C,1.200000*%
%TD*%
%TA.AperFunction,Conductor*%
%ADD25C,0.200000*%
%TD*%
%TA.AperFunction,Conductor*%
%ADD26C,0.400000*%
%TD*%
%TA.AperFunction,Conductor*%
%ADD27C,0.800000*%
%TD*%
G04 APERTURE END LIST*
D10*
%TO.N,/SCB3_RX*%
%TO.C,J3*%
X113600000Y-111620000D03*
D11*
%TO.N,/SCB3_TX*%
X113600000Y-115500000D03*
%TD*%
D12*
%TO.N,/PHY_LED0*%
%TO.C,J4*%
X116495000Y-133500000D03*
%TO.N,GND*%
X114975000Y-130960000D03*
%TO.N,/PHY_LED0*%
X116495000Y-123390000D03*
%TO.N,GND*%
X114975000Y-120850000D03*
D13*
%TO.N,unconnected-(J4-CT-PadR1)*%
X128765000Y-121460000D03*
D12*
%TO.N,/BI_DA_P*%
X126225000Y-122730000D03*
%TO.N,/BI_DA_N*%
X128765000Y-124000000D03*
%TO.N,/BI_DB_P*%
X126225000Y-125270000D03*
%TO.N,/BI_DB_N*%
X128765000Y-126540000D03*
%TO.N,/BI_DC_P*%
X126225000Y-127810000D03*
%TO.N,/BI_DC_N*%
X128765000Y-129080000D03*
%TO.N,/BI_DD_P*%
X126225000Y-130350000D03*
%TO.N,/BI_DD_N*%
X128765000Y-131620000D03*
%TO.N,GND*%
X126225000Y-132890000D03*
D14*
%TO.N,unconnected-(J4-PadSH)*%
X122925000Y-119400000D03*
X122925000Y-134950000D03*
%TD*%
D15*
%TO.N,/Voltage Regulation/DC_LINE_IN_28V*%
%TO.C,J1*%
X111825000Y-70675000D03*
D16*
%TO.N,GND*%
X111825000Y-62875000D03*
%TD*%
D17*
%TO.N,/Voltage Regulation/DC_LINE_IN_28V*%
%TO.C,D1*%
X132900000Y-72030000D03*
D18*
%TO.N,+3V3*%
X143060000Y-72030000D03*
%TD*%
D19*
%TO.N,/JTAG_SWCLK*%
%TO.C,J2*%
X151700000Y-138200000D03*
D20*
%TO.N,/JTAG_SWDIO*%
X149160000Y-138200000D03*
%TO.N,/JTAG_SWO*%
X146620000Y-138200000D03*
%TO.N,/JTAG_TDI*%
X144080000Y-138200000D03*
%TD*%
D17*
%TO.N,+3V3*%
%TO.C,D2*%
X154000000Y-64000000D03*
D18*
%TO.N,Net-(D2-A)*%
X154000000Y-53840000D03*
%TD*%
D21*
%TO.N,unconnected-(IC1-OUT2_N-PadA2)*%
%TO.C,IC1*%
X175970000Y-102560000D03*
%TO.N,unconnected-(IC1-OUT2_P-PadA3)*%
X175970000Y-103830000D03*
%TO.N,/LVDS Conversion/LVDS_CH05_N*%
X175970000Y-105100000D03*
%TO.N,/LVDS Conversion/LVDS_CH05_P*%
X175970000Y-106370000D03*
%TO.N,GND*%
X175970000Y-107640000D03*
%TO.N,+2V1*%
X175970000Y-108910000D03*
%TO.N,unconnected-(IC1-OUT12_N-PadA8)*%
X175970000Y-110180000D03*
%TO.N,unconnected-(IC1-OUT12_P-PadA9)*%
X175970000Y-111450000D03*
%TO.N,/LVDS Conversion/LVDS_CH15_N*%
X175970000Y-112720000D03*
%TO.N,/LVDS Conversion/LVDS_CH15_P*%
X175970000Y-113990000D03*
%TO.N,GND*%
X175970000Y-115260000D03*
%TO.N,/LVDS Conversion/LVDS_CTR_OUT_N*%
X177240000Y-101290000D03*
%TO.N,/LVDS Conversion/LVDS_CTR_OUT_P*%
X177240000Y-102560000D03*
%TO.N,unconnected-(IC1-OUT4_N-PadB3)*%
X177240000Y-103830000D03*
%TO.N,unconnected-(IC1-OUT4_P-PadB4)*%
X177240000Y-105100000D03*
%TO.N,/LVDS Conversion/LVDS_CH07_N*%
X177240000Y-106370000D03*
%TO.N,/LVDS Conversion/LVDS_CH07_P*%
X177240000Y-107640000D03*
%TO.N,unconnected-(IC1-OUT10_N-PadB7)*%
X177240000Y-108910000D03*
%TO.N,unconnected-(IC1-OUT10_P-PadB8)*%
X177240000Y-110180000D03*
%TO.N,/LVDS Conversion/LVDS_CH13_N*%
X177240000Y-111450000D03*
%TO.N,/LVDS Conversion/LVDS_CH13_P*%
X177240000Y-112720000D03*
%TO.N,/LVDS Conversion/LVDS_CLK_OUT_N*%
X177240000Y-113990000D03*
%TO.N,/LVDS Conversion/LVDS_CLK_OUT_P*%
X177240000Y-115260000D03*
%TO.N,GND*%
X178510000Y-101290000D03*
%TO.N,/LVDS Conversion/LVDS_CH01_N*%
X178510000Y-102560000D03*
%TO.N,/LVDS Conversion/LVDS_CH01_P*%
X178510000Y-103830000D03*
%TO.N,unconnected-(IC1-OUT6_N-PadC4)*%
X178510000Y-105100000D03*
%TO.N,unconnected-(IC1-OUT6_P-PadC5)*%
X178510000Y-106370000D03*
%TO.N,GND*%
X178510000Y-107640000D03*
%TO.N,+2V1*%
X178510000Y-108910000D03*
%TO.N,/LVDS Conversion/LVDS_CH11_N*%
X178510000Y-110180000D03*
%TO.N,/LVDS Conversion/LVDS_CH11_P*%
X178510000Y-111450000D03*
%TO.N,unconnected-(IC1-OUT16_N-PadC10)*%
X178510000Y-112720000D03*
%TO.N,unconnected-(IC1-OUT16_P-PadC11)*%
X178510000Y-113990000D03*
%TO.N,GND*%
X178510000Y-115260000D03*
%TO.N,/CMOS_CLK_IN_P*%
X179780000Y-101290000D03*
%TO.N,/CMOS_CLK_IN_N*%
X179780000Y-102560000D03*
%TO.N,/LVDS Conversion/LVDS_CH03_N*%
X179780000Y-103830000D03*
%TO.N,/LVDS Conversion/LVDS_CH03_P*%
X179780000Y-105100000D03*
%TO.N,unconnected-(IC1-OUT8_N-PadD5)*%
X179780000Y-106370000D03*
%TO.N,unconnected-(IC1-OUT8_P-PadD6)*%
X179780000Y-107640000D03*
%TO.N,/LVDS Conversion/LVDS_CH09_N*%
X179780000Y-108910000D03*
%TO.N,/LVDS Conversion/LVDS_CH09_P*%
X179780000Y-110180000D03*
%TO.N,unconnected-(IC1-OUT14_N-PadD9)*%
X179780000Y-111450000D03*
%TO.N,unconnected-(IC1-OUT14_P-PadD10)*%
X179780000Y-112720000D03*
%TO.N,Net-(IC1-VREF)*%
X179780000Y-113990000D03*
%TO.N,Net-(IC1-REF_ADC)*%
X179780000Y-115260000D03*
%TO.N,/CMOS_MASTER_CLK*%
X181050000Y-101290000D03*
%TO.N,+3V3*%
X181050000Y-102560000D03*
%TO.N,GND*%
X181050000Y-103830000D03*
%TO.N,+2V1*%
X181050000Y-105100000D03*
%TO.N,GND*%
X181050000Y-106370000D03*
%TO.N,+3V*%
X181050000Y-107640000D03*
%TO.N,+2V1*%
X181050000Y-108910000D03*
X181050000Y-110180000D03*
%TO.N,GND*%
X181050000Y-111450000D03*
%TO.N,Net-(IC1-SG_ADC)*%
X181050000Y-112720000D03*
%TO.N,Net-(IC1-VRAMP1)*%
X181050000Y-113990000D03*
%TO.N,Net-(IC1-VRAMP2)*%
X181050000Y-115260000D03*
%TO.N,GND*%
X182320000Y-101290000D03*
%TO.N,/FRAME_REQ*%
X182320000Y-102560000D03*
%TO.N,/CMOS_SPI_MOSI*%
X182320000Y-103830000D03*
%TO.N,/CMOS_SPI_MISO*%
X182320000Y-105100000D03*
%TO.N,Net-(IC1-CMD_P__INV)*%
X182320000Y-106370000D03*
%TO.N,Net-(IC1-VPCH_H)*%
X182320000Y-107640000D03*
%TO.N,Net-(IC1-VRES_H)*%
X182320000Y-108910000D03*
%TO.N,Net-(IC1-VTF_L2)*%
X182320000Y-110180000D03*
%TO.N,Net-(IC1-COL_LOAD)*%
X182320000Y-111450000D03*
%TO.N,Net-(IC1-RAMP)*%
X182320000Y-112720000D03*
%TO.N,unconnected-(IC1-DIO1-PadF11)*%
X182320000Y-113990000D03*
%TO.N,GND*%
X182320000Y-115260000D03*
%TO.N,+3V*%
X183590000Y-101290000D03*
%TO.N,unconnected-(IC1-TDIG2-PadG2)*%
X183590000Y-102560000D03*
%TO.N,unconnected-(IC1-T_EXP2-PadG3)*%
X183590000Y-103830000D03*
%TO.N,/CMOS_SPI_EN*%
X183590000Y-105100000D03*
%TO.N,Net-(IC1-CMD_P)*%
X183590000Y-106370000D03*
%TO.N,Net-(IC1-CMD_N)*%
X183590000Y-107640000D03*
%TO.N,unconnected-(IC1-TANA-PadG7)*%
X183590000Y-108910000D03*
%TO.N,GND*%
X183590000Y-110180000D03*
%TO.N,Net-(IC1-COL_AMP)*%
X183590000Y-111450000D03*
%TO.N,Net-(IC1-ADC)*%
X183590000Y-112720000D03*
%TO.N,Net-(IC1-VBGAP)*%
X183590000Y-113990000D03*
%TO.N,+3V*%
X183590000Y-115260000D03*
%TO.N,+3V3*%
X184860000Y-101290000D03*
%TO.N,unconnected-(IC1-TDIG1-PadH2)*%
X184860000Y-102560000D03*
%TO.N,unconnected-(IC1-T_EXP1-PadH3)*%
X184860000Y-103830000D03*
%TO.N,/CMOS_SPI_CLK*%
X184860000Y-105100000D03*
%TO.N,/CMOS_RESET_N*%
X184860000Y-106370000D03*
%TO.N,+3V3*%
X184860000Y-107640000D03*
%TO.N,GND*%
X184860000Y-108910000D03*
%TO.N,Net-(IC1-VRES_L)*%
X184860000Y-110180000D03*
%TO.N,Net-(IC1-VTF_L3)*%
X184860000Y-111450000D03*
%TO.N,Net-(IC1-COL_PC)*%
X184860000Y-112720000D03*
%TO.N,Net-(IC1-LVDS)*%
X184860000Y-113990000D03*
%TO.N,unconnected-(IC1-DIO2-PadH12)*%
X184860000Y-115260000D03*
%TD*%
D22*
%TO.N,GND*%
X139440000Y-107200000D03*
%TO.N,/FRAME_REQ*%
X147830000Y-108800000D03*
%TO.N,/Processing/QSPI_SCLK*%
X139600000Y-98400000D03*
%TO.N,/Processing/EXT_PS_CTL1*%
X154900000Y-125000000D03*
%TO.N,/LVDS Conversion/LVDS_RECV_EN*%
X147800000Y-104000000D03*
X153300000Y-122100000D03*
%TO.N,/Processing/EXT_PS_CTL1*%
X146450000Y-105200000D03*
%TO.N,/CMOS_SPI_EN*%
X179100000Y-105750000D03*
%TO.N,/LVDS Conversion/LVDS_RECV_EN*%
X152845000Y-109700000D03*
X153300000Y-98500000D03*
%TO.N,/LVDS Conversion/CMOS_CTR_OUT*%
X153000000Y-96000000D03*
%TO.N,/Processing/ECO_IN*%
X154200000Y-128000000D03*
%TO.N,/Processing/QSPI_IO2*%
X132330000Y-84030000D03*
%TO.N,/Processing/QSPI_SEL0*%
X134870000Y-84030000D03*
%TO.N,/Processing/QSPI_IO2*%
X139600000Y-84200000D03*
%TO.N,/Processing/QSPI_SEL1*%
X142140000Y-84200000D03*
%TO.N,GND*%
X129000000Y-107750000D03*
X131050000Y-108050000D03*
%TO.N,+3V3*%
X133400000Y-106150000D03*
%TO.N,/Processing/EXT_PS_CTL1*%
X166100000Y-125000000D03*
%TO.N,/Processing/DRV_VOUT*%
X166300000Y-127700000D03*
%TO.N,/Processing/EXT_PS_CTL0*%
X164000000Y-127250000D03*
%TO.N,/CMOS_SPI_EN*%
X146200000Y-101600000D03*
X148900000Y-100400000D03*
%TO.N,GND*%
X149798400Y-116500000D03*
%TO.N,/JTAG_TDI*%
X146100000Y-117300000D03*
%TO.N,/JTAG_SWO*%
X146700000Y-117400000D03*
%TO.N,/JTAG_SWCLK*%
X147650000Y-117400000D03*
%TO.N,/Processing/DRV_VOUT*%
X143412500Y-116387500D03*
%TO.N,/Processing/EXT_PS_CTL0*%
X144200000Y-116400000D03*
%TO.N,/Processing/EXT_PS_CTL1*%
X144800000Y-116400000D03*
%TO.N,/CMOS_SPI_MOSI*%
X145975000Y-111925000D03*
%TO.N,/Processing/EXT_PS_CTL1*%
X145450000Y-111150000D03*
%TO.N,/CMOS_SPI_CLK*%
X150500000Y-109800000D03*
X145400000Y-110400000D03*
%TO.N,/Processing/ECO_IN*%
X141600000Y-115400000D03*
%TO.N,GND*%
X141400000Y-114350000D03*
%TO.N,/ETH0_RX_CTL*%
X142975000Y-114435000D03*
%TO.N,/ETH0_RX_CLK*%
X145400000Y-114400000D03*
%TO.N,/JTAG_TDI*%
X146190000Y-114430000D03*
%TO.N,/JTAG_SWO*%
X146159427Y-113618400D03*
%TO.N,/HRSTN*%
X147800000Y-111200000D03*
%TO.N,/ETH0_MDIO*%
X149400000Y-111200000D03*
%TO.N,/ETH0_MDC*%
X150200000Y-110400000D03*
%TO.N,/CMOS_RESET_N*%
X148600000Y-109550000D03*
%TO.N,/CMOS_SPI_MISO*%
X145400000Y-112800000D03*
%TO.N,/JTAG_SWCLK*%
X146200000Y-112800000D03*
%TO.N,GND*%
X143150000Y-111650000D03*
%TO.N,+3V3*%
X142150000Y-110200000D03*
X143000000Y-110200000D03*
X143875000Y-110225000D03*
%TO.N,/SCB3_RX*%
X136600000Y-112000000D03*
%TO.N,/LVDS Conversion/LVDS_CH01_P*%
X165510000Y-96750000D03*
%TO.N,/LVDS Conversion/LVDS_CH01_N*%
X166020000Y-96730000D03*
%TO.N,/LVDS Conversion/LVDS_CH05_P*%
X165400000Y-103100000D03*
%TO.N,/LVDS Conversion/LVDS_CH05_N*%
X166000000Y-103100000D03*
%TO.N,/LVDS Conversion/LVDS_CH09_P*%
X165500000Y-109300000D03*
%TO.N,/LVDS Conversion/LVDS_CH09_N*%
X166055499Y-109305000D03*
%TO.N,/LVDS Conversion/LVDS_CH13_P*%
X165400000Y-115500000D03*
%TO.N,/LVDS Conversion/LVDS_CH13_N*%
X166000000Y-115500000D03*
%TO.N,/LVDS Conversion/LVDS_CLK_OUT_P*%
X165498397Y-121700000D03*
%TO.N,/LVDS Conversion/LVDS_CLK_OUT_N*%
X166000000Y-121700000D03*
%TO.N,GND*%
X172300000Y-126850000D03*
%TO.N,/HRSTN*%
X135450000Y-132060000D03*
%TO.N,GND*%
X135400000Y-133000000D03*
%TO.N,/ETH0_MDC*%
X136050000Y-134750000D03*
%TO.N,/ETH0_MDIO*%
X136525000Y-134200000D03*
%TO.N,GND*%
X137500000Y-133900000D03*
%TO.N,/ETH0_RXD_3*%
X137350000Y-132435000D03*
%TO.N,/ETH0_RXD_1*%
X138625000Y-131835000D03*
%TO.N,/ETH0_RXD_2*%
X137925000Y-131910000D03*
%TO.N,GND*%
X138400000Y-132700000D03*
%TO.N,/ETH0_RXD_0*%
X139650000Y-131835000D03*
%TO.N,/ETH0_RX_CTL*%
X139600000Y-131235000D03*
%TO.N,/ETH0_RX_CLK*%
X140210000Y-131160000D03*
%TO.N,GND*%
X140700000Y-132100000D03*
X141300000Y-130900000D03*
X134800000Y-130500000D03*
%TO.N,/VDD1V1*%
X133955000Y-129055000D03*
X133775000Y-126560000D03*
%TO.N,GND*%
X134900000Y-125100000D03*
%TO.N,/VDD1V1*%
X136400000Y-124100000D03*
X141098159Y-125448159D03*
%TO.N,GND*%
X141700000Y-125100000D03*
%TO.N,/ETH0_TX_CLK*%
X141600000Y-126479751D03*
%TO.N,/ETH0_TXD_0*%
X141550000Y-127960000D03*
%TO.N,/ETH0_TX_CTL*%
X141625000Y-127335000D03*
%TO.N,/VDD1V1*%
X141050000Y-129935000D03*
%TO.N,/ETH0_TXD_3*%
X142100000Y-130410000D03*
%TO.N,/ETH0_TXD_2*%
X142275000Y-129360000D03*
%TO.N,/ETH0_TXD_1*%
X142150000Y-128735000D03*
%TO.N,GND*%
X143850000Y-126850000D03*
X139150000Y-122535000D03*
X138700000Y-121300000D03*
X136400000Y-121200000D03*
%TO.N,/ETH0_RXD_0*%
X138200000Y-120585000D03*
%TO.N,GND*%
X136400000Y-119400000D03*
X136400000Y-117500000D03*
X138700000Y-117700000D03*
X136400000Y-115600000D03*
X143950000Y-104300000D03*
X142012500Y-104287500D03*
X143175000Y-104275000D03*
X135500000Y-100500000D03*
%TO.N,/Processing/TEMPR_ADC0 (P6.0)*%
X136600000Y-100800000D03*
%TO.N,/Processing/TEMPR_ADC1 (P6.1)*%
X135800000Y-101600000D03*
%TO.N,/ETH0_TXD_0*%
X137392500Y-113607500D03*
%TO.N,/SCB3_RX*%
X133600000Y-112000000D03*
%TO.N,GND*%
X132500000Y-113300000D03*
%TO.N,/ETH0_TX_CLK*%
X137442500Y-114400000D03*
%TO.N,/ETH0_TX_CTL*%
X136600000Y-114385000D03*
%TO.N,/ETH0_RXD_1*%
X138242500Y-114342500D03*
%TO.N,GND*%
X139600000Y-115400000D03*
%TO.N,/ETH0_RXD_2*%
X139825000Y-114409744D03*
%TO.N,/ETH0_RXD_3*%
X139815257Y-113600001D03*
%TO.N,/ETH0_TXD_1*%
X138950000Y-112850000D03*
%TO.N,/ETH0_TXD_3*%
X139807629Y-112792371D03*
%TO.N,/ETH0_TXD_2*%
X139329424Y-111849504D03*
%TO.N,/Processing/EXT_PS_CTL1*%
X139950000Y-111350000D03*
%TO.N,GND*%
X139500000Y-108900000D03*
X138950000Y-104750000D03*
%TO.N,+3V3*%
X140700000Y-108800000D03*
X140700000Y-108000000D03*
X140637500Y-107162500D03*
X142200000Y-105800000D03*
X143850000Y-105800000D03*
X143000000Y-105800000D03*
%TO.N,GND*%
X142150000Y-107200000D03*
X142200000Y-108850000D03*
X143800000Y-108800000D03*
X143800000Y-107200000D03*
X146575400Y-107710000D03*
%TO.N,+3V3*%
X144800000Y-108900000D03*
X145150000Y-108000000D03*
X145200000Y-107200000D03*
%TO.N,/Processing/QSPI_IO3*%
X140870000Y-94200000D03*
%TO.N,GND*%
X140200000Y-94200000D03*
X139000000Y-94200000D03*
%TO.N,/Processing/QSPI_IO0*%
X138315000Y-94185000D03*
%TO.N,/Processing/QSPI_IO3*%
X133600000Y-94200000D03*
%TO.N,GND*%
X133000000Y-94200000D03*
X131700000Y-94200000D03*
%TO.N,/Processing/QSPI_IO0*%
X131081801Y-94218199D03*
%TO.N,GND*%
X147500000Y-98400000D03*
X147550000Y-96250000D03*
X147550000Y-94750000D03*
%TO.N,/CMOS_SPI_EN*%
X150800000Y-99500000D03*
%TO.N,GND*%
X150150000Y-100800000D03*
%TO.N,/LVDS Conversion/CMOS_CTR_OUT*%
X148600000Y-101600000D03*
%TO.N,/Processing/QSPI_IO0*%
X142200000Y-103200000D03*
%TO.N,/Processing/QSPI_SCLK*%
X143000000Y-103200000D03*
%TO.N,/Processing/QSPI_SEL1*%
X143000000Y-102400000D03*
%TO.N,/Processing/QSPI_SEL0*%
X143000000Y-101600000D03*
%TO.N,/Processing/QSPI_IO3*%
X141400000Y-102400000D03*
%TO.N,/Processing/QSPI_IO2*%
X141400002Y-101600000D03*
D23*
%TO.N,+2V1*%
X190400000Y-67200000D03*
D24*
%TO.N,+3V3*%
X158500000Y-70100000D03*
D23*
X161850000Y-132350000D03*
X172100000Y-129600000D03*
X153500000Y-105820000D03*
D24*
X194000000Y-74000000D03*
D23*
X195600000Y-98300000D03*
X195615000Y-116210000D03*
X127200000Y-89600000D03*
X195600000Y-96600000D03*
X163200000Y-88200000D03*
X153445000Y-118255000D03*
X195605000Y-119530000D03*
X158200000Y-111300000D03*
X153400000Y-94665000D03*
X157100000Y-134500000D03*
X127200000Y-85400000D03*
%TO.N,+3V*%
X192300000Y-59800000D03*
%TO.N,GND*%
X195600000Y-109800000D03*
X153500000Y-116985000D03*
X154400000Y-126850000D03*
X178600000Y-122980000D03*
X173650000Y-84700000D03*
X186500000Y-60800000D03*
X180300000Y-83600000D03*
X195600000Y-103300000D03*
X153400000Y-93400000D03*
X195600000Y-111400000D03*
X176820000Y-122970000D03*
X150950000Y-73500000D03*
X180340000Y-122970000D03*
X180300000Y-81400000D03*
X125950000Y-56500000D03*
D24*
X185630000Y-83570000D03*
D23*
X182070000Y-123020000D03*
X113950000Y-61000000D03*
X170225000Y-65900000D03*
X153500000Y-104550000D03*
X195600000Y-113000000D03*
X160700000Y-136000000D03*
X112875000Y-89600000D03*
D24*
X156400000Y-84300000D03*
D23*
X174200000Y-61000000D03*
X159800000Y-128000000D03*
X170450000Y-58050000D03*
X174000000Y-68900000D03*
X186500000Y-68700000D03*
X160700000Y-130900000D03*
X136900000Y-96200000D03*
X132950000Y-52025000D03*
X137950000Y-53000000D03*
X195600000Y-106600000D03*
X112900000Y-85400000D03*
X144200000Y-96200000D03*
X150750000Y-125600000D03*
X195605000Y-114630000D03*
X195600000Y-105000000D03*
X120175000Y-91100000D03*
X195600000Y-100000000D03*
X118950000Y-58500000D03*
X131060000Y-84140000D03*
X120099997Y-86900000D03*
X138330000Y-84130000D03*
X183770000Y-123000000D03*
X156400000Y-111400000D03*
X195635000Y-117860000D03*
X195600000Y-101600000D03*
X185480000Y-122990000D03*
X146014579Y-131687851D03*
%TO.N,/CMOS_MASTER_CLK*%
X147200000Y-97300000D03*
X173600000Y-90900000D03*
%TO.N,/Processing/TEMPR_ADC1 (P6.1)*%
X122200000Y-91100000D03*
%TO.N,/Processing/TEMPR_ADC0 (P6.0)*%
X122300000Y-86900000D03*
%TO.N,/PHY_LED0*%
X145400000Y-132200000D03*
%TD*%
D25*
%TO.N,/JTAG_SWO*%
X146700000Y-114100000D02*
X146700000Y-117400000D01*
X146230000Y-113630000D02*
X146700000Y-114100000D01*
X146159427Y-113618400D02*
X146171027Y-113630000D01*
X146171027Y-113630000D02*
X146230000Y-113630000D01*
%TO.N,/JTAG_TDI*%
X146200000Y-114440000D02*
X146200000Y-117100000D01*
X146200000Y-117100000D02*
X146100000Y-117200000D01*
X146190000Y-114430000D02*
X146200000Y-114440000D01*
X146100000Y-117200000D02*
X146100000Y-117300000D01*
%TO.N,/LVDS Conversion/LVDS_RECV_EN*%
X152845000Y-109700000D02*
X152845000Y-121645000D01*
%TO.N,/ETH0_MDC*%
X140700000Y-135100000D02*
X150200000Y-125600000D01*
X150200000Y-125600000D02*
X150200000Y-110400000D01*
X136300000Y-135100000D02*
X140700000Y-135100000D01*
X136050000Y-134850000D02*
X136300000Y-135100000D01*
X136050000Y-134750000D02*
X136050000Y-134850000D01*
%TO.N,/HRSTN*%
X136790000Y-133400000D02*
X135450000Y-132060000D01*
X140110000Y-133400000D02*
X136790000Y-133400000D01*
X148600000Y-124910000D02*
X140110000Y-133400000D01*
X148600000Y-112000000D02*
X148600000Y-124910000D01*
X147800000Y-111200000D02*
X148600000Y-112000000D01*
%TO.N,/ETH0_RX_CLK*%
X145400000Y-120500000D02*
X145400000Y-114400000D01*
X140225000Y-131160000D02*
X140225000Y-125675000D01*
X140225000Y-125675000D02*
X145400000Y-120500000D01*
%TO.N,/Processing/TEMPR_ADC1 (P6.1)*%
X136100000Y-99665686D02*
X136100000Y-101300000D01*
X131884314Y-95450000D02*
X136100000Y-99665686D01*
X136100000Y-101300000D02*
X135800000Y-101600000D01*
X126550000Y-95450000D02*
X131884314Y-95450000D01*
X122200000Y-91100000D02*
X126550000Y-95450000D01*
%TO.N,/CMOS_SPI_EN*%
X148000000Y-100400000D02*
X148900000Y-100400000D01*
X146800000Y-101600000D02*
X148000000Y-100400000D01*
X146200000Y-101600000D02*
X146800000Y-101600000D01*
%TO.N,/ETH0_MDIO*%
X149200000Y-117600000D02*
X149400000Y-117800000D01*
X149400000Y-117800000D02*
X149400000Y-125241372D01*
X149400000Y-115400000D02*
X149200000Y-115600000D01*
X149200000Y-115600000D02*
X149200000Y-117600000D01*
X136725000Y-134400000D02*
X136525000Y-134200000D01*
X149400000Y-125241372D02*
X140241372Y-134400000D01*
X140241372Y-134400000D02*
X136725000Y-134400000D01*
X149400000Y-111200000D02*
X149400000Y-115400000D01*
%TO.N,/JTAG_TDI*%
X146100000Y-117300000D02*
X146100000Y-117400000D01*
%TO.N,/CMOS_SPI_CLK*%
X149500000Y-109800000D02*
X148900000Y-110400000D01*
X150500000Y-109800000D02*
X149500000Y-109800000D01*
X148900000Y-110400000D02*
X145400000Y-110400000D01*
%TO.N,/Processing/QSPI_IO0*%
X138315000Y-94185000D02*
X138330000Y-94200000D01*
X131081801Y-94218199D02*
X131060000Y-94196397D01*
%TO.N,/Processing/QSPI_IO2*%
X141400002Y-101600000D02*
X141400002Y-101615258D01*
%TO.N,+3V3*%
X181050000Y-102560000D02*
X181700000Y-101910000D01*
X183846813Y-101910000D02*
X184260000Y-101496813D01*
D26*
X197310000Y-117825000D02*
X197310000Y-122900000D01*
X195600000Y-96600000D02*
X195600000Y-98300000D01*
X184860000Y-101290000D02*
X184860000Y-98930000D01*
X162600000Y-131600000D02*
X159700000Y-134500000D01*
X159700000Y-134500000D02*
X157100000Y-134500000D01*
X195600000Y-95390000D02*
X194040000Y-93830000D01*
X194040000Y-93830000D02*
X189960000Y-93830000D01*
X195600000Y-95390000D02*
X197310000Y-97100000D01*
X190610000Y-129600000D02*
X175600000Y-129600000D01*
X197310000Y-117825000D02*
X195605000Y-119530000D01*
X197310000Y-122900000D02*
X190610000Y-129600000D01*
X187915000Y-95875000D02*
X189960000Y-93830000D01*
X197310000Y-97100000D02*
X197310000Y-114515000D01*
X184860000Y-98930000D02*
X187915000Y-95875000D01*
X184860000Y-107640000D02*
X187915000Y-104585000D01*
X175600000Y-129600000D02*
X173600000Y-131600000D01*
X173600000Y-131600000D02*
X162600000Y-131600000D01*
X197310000Y-114515000D02*
X195615000Y-116210000D01*
D25*
X181700000Y-101910000D02*
X183846813Y-101910000D01*
X184260000Y-101496813D02*
X184260000Y-99530000D01*
D26*
X175600000Y-129600000D02*
X172100000Y-129600000D01*
X195600000Y-96600000D02*
X195600000Y-95390000D01*
X187915000Y-104585000D02*
X187915000Y-95875000D01*
D27*
X194040000Y-74040000D02*
X194040000Y-93830000D01*
D26*
X197310000Y-114515000D02*
X197310000Y-117825000D01*
D25*
X184260000Y-99530000D02*
X184860000Y-98930000D01*
%TO.N,+3V*%
X183590000Y-96550000D02*
X180430000Y-99710000D01*
X181700000Y-104873187D02*
X181700000Y-106850000D01*
X181306813Y-104480000D02*
X181700000Y-104873187D01*
X180430000Y-104086813D02*
X180823187Y-104480000D01*
X180823187Y-104480000D02*
X181306813Y-104480000D01*
D26*
X192300000Y-86910000D02*
X183590000Y-95620000D01*
D25*
X181050000Y-107640000D02*
X181700000Y-106990000D01*
D26*
X192300000Y-59800000D02*
X192300000Y-86910000D01*
X183590000Y-95620000D02*
X183590000Y-96550000D01*
D25*
X180430000Y-99710000D02*
X180430000Y-104086813D01*
X182970000Y-113763187D02*
X182576813Y-113370000D01*
X182576813Y-113370000D02*
X182040000Y-113370000D01*
X183590000Y-115260000D02*
X182970000Y-114640000D01*
X181700000Y-106990000D02*
X181700000Y-106850000D01*
X182040000Y-113370000D02*
X181700000Y-113030000D01*
X181700000Y-113030000D02*
X181700000Y-106850000D01*
X182970000Y-114640000D02*
X182970000Y-113763187D01*
D26*
X183590000Y-101290000D02*
X183590000Y-96550000D01*
D25*
%TO.N,/LVDS Conversion/LVDS_CH13_P*%
X169550000Y-116120000D02*
X169370000Y-116300000D01*
X173930000Y-112945000D02*
X172725000Y-112945000D01*
X169370000Y-116300000D02*
X165900000Y-116300000D01*
X172725000Y-112945000D02*
X172270000Y-113400000D01*
X170148678Y-115521320D02*
X169550000Y-116120000D01*
X170965050Y-114389949D02*
X170625598Y-114050497D01*
X165900000Y-116300000D02*
X165500000Y-115900000D01*
X174325000Y-113340000D02*
X173930000Y-112945000D01*
X172270000Y-113650686D02*
X172326621Y-113707307D01*
X171304516Y-114729414D02*
X171247896Y-114672794D01*
X176620000Y-113340000D02*
X174325000Y-113340000D01*
X171247896Y-114672794D02*
X170965053Y-114389951D01*
X177240000Y-112720000D02*
X176620000Y-113340000D01*
X172326620Y-114587993D02*
X172185200Y-114729414D01*
X170374911Y-114050497D02*
X170233489Y-114191918D01*
X170233489Y-114442604D02*
X170290098Y-114499213D01*
X165500000Y-115900000D02*
X165500000Y-115500000D01*
X170965053Y-114389951D02*
X170965050Y-114389949D01*
X170290098Y-115379898D02*
X170148678Y-115521320D01*
X170233489Y-114191918D02*
G75*
G03*
X170233450Y-114442643I125311J-125382D01*
G01*
X172270000Y-113400000D02*
G75*
G03*
X172270043Y-113650643I125300J-125300D01*
G01*
X170625598Y-114050497D02*
G75*
G03*
X170374910Y-114050496I-125344J-125343D01*
G01*
X172326621Y-113707307D02*
G75*
G02*
X172326571Y-114587943I-440321J-440293D01*
G01*
X172185200Y-114729414D02*
G75*
G02*
X171304516Y-114729414I-440342J440341D01*
G01*
X170290098Y-114499213D02*
G75*
G02*
X170290143Y-115379943I-440298J-440387D01*
G01*
%TO.N,/LVDS Conversion/LVDS_CLK_OUT_P*%
X169370684Y-121009316D02*
X170125000Y-120255000D01*
X174420000Y-115960000D02*
X175360000Y-115960000D01*
X167880000Y-122500000D02*
X168195000Y-122185000D01*
X165900000Y-122500000D02*
X167880000Y-122500000D01*
X175690000Y-116290000D02*
X176210000Y-116290000D01*
X170125000Y-120255000D02*
X174420000Y-115960000D01*
X175360000Y-115960000D02*
X175690000Y-116290000D01*
X176210000Y-116290000D02*
X177240000Y-115260000D01*
X168195000Y-121409728D02*
X168119000Y-121333728D01*
X168401843Y-121050885D02*
X168477844Y-121126886D01*
X168119000Y-121168454D02*
X168236571Y-121050884D01*
X165500000Y-122100000D02*
X165900000Y-122500000D01*
X169253116Y-121126886D02*
X169370684Y-121009316D01*
X165500000Y-121700000D02*
X165500000Y-122100000D01*
X168236571Y-121050884D02*
G75*
G02*
X168401836Y-121050891I82629J-82616D01*
G01*
X168477844Y-121126886D02*
G75*
G03*
X169253116Y-121126886I387636J387636D01*
G01*
X168195000Y-122185000D02*
G75*
G03*
X168194964Y-121409764I-387600J387600D01*
G01*
X168119000Y-121333728D02*
G75*
G02*
X168119009Y-121168463I82600J82628D01*
G01*
%TO.N,/LVDS Conversion/LVDS_CH01_P*%
X176620000Y-102333187D02*
X176226813Y-101940000D01*
X170510000Y-97590000D02*
X170480000Y-97590000D01*
X178510000Y-103830000D02*
X177860000Y-103180000D01*
X176620000Y-102816813D02*
X176620000Y-102333187D01*
X165510000Y-96750000D02*
X165510000Y-97210000D01*
X176226813Y-101940000D02*
X174860000Y-101940000D01*
X174860000Y-101940000D02*
X170510000Y-97590000D01*
X165890000Y-97590000D02*
X166620000Y-97590000D01*
X170480000Y-97590000D02*
X166620000Y-97590000D01*
X165510000Y-97210000D02*
X165890000Y-97590000D01*
X177860000Y-103180000D02*
X176983187Y-103180000D01*
X176983187Y-103180000D02*
X176620000Y-102816813D01*
%TO.N,/LVDS Conversion/LVDS_CLK_OUT_N*%
X167814001Y-120863455D02*
X167931572Y-120745885D01*
X176250000Y-114610000D02*
X176870000Y-113990000D01*
X175160000Y-114610000D02*
X176250000Y-114610000D01*
X168948119Y-120821886D02*
X169065685Y-120704317D01*
X169820000Y-119950000D02*
X175160000Y-114610000D01*
X167890001Y-121714727D02*
X167814001Y-121638727D01*
X166000000Y-121700000D02*
X166000000Y-121900000D01*
X167890000Y-121880000D02*
X167890001Y-121880001D01*
X169065685Y-120704317D02*
X169820000Y-119950000D01*
X166000000Y-121900000D02*
X166150000Y-122050000D01*
X166150000Y-122050000D02*
X167720000Y-122050000D01*
X176870000Y-113990000D02*
X177240000Y-113990000D01*
X167720000Y-122050000D02*
X167890000Y-121880000D01*
X168706844Y-120745885D02*
X168782845Y-120821886D01*
X168782845Y-120821886D02*
G75*
G03*
X168948119Y-120821886I82637J82638D01*
G01*
X167814001Y-121638727D02*
G75*
G02*
X167814010Y-120863464I387599J387627D01*
G01*
X167890001Y-121880001D02*
G75*
G03*
X167889965Y-121714763I-82601J82601D01*
G01*
X167931572Y-120745885D02*
G75*
G02*
X168706844Y-120745885I387636J-387636D01*
G01*
%TO.N,/LVDS Conversion/LVDS_CH05_N*%
X167744213Y-105044213D02*
X168260001Y-105560001D01*
X166000000Y-103300000D02*
X166330000Y-103630000D01*
X168083828Y-103007540D02*
X168225249Y-103148961D01*
X170150000Y-105560001D02*
X171040000Y-105560001D01*
X171460000Y-105560001D02*
X171140000Y-105560001D01*
X168225250Y-104064647D02*
X167602789Y-104687105D01*
X167602790Y-104902791D02*
X167744213Y-105044213D01*
X168260001Y-105560001D02*
X170150000Y-105560001D01*
X166000000Y-103100000D02*
X166000000Y-103300000D01*
X166330000Y-103630000D02*
X166329998Y-103629999D01*
X173000000Y-105960001D02*
X173000000Y-105420001D01*
X173460000Y-106240001D02*
X173140000Y-106240001D01*
X171140000Y-105560001D02*
X171040000Y-105560001D01*
X175509999Y-105560001D02*
X174140000Y-105560001D01*
X172460000Y-104880001D02*
X172140000Y-104880001D01*
X175970000Y-105100000D02*
X175509999Y-105560001D01*
X173000000Y-106100001D02*
X173000000Y-105960001D01*
X166545686Y-103630001D02*
X167168144Y-103007540D01*
X173600000Y-106100001D02*
G75*
G02*
X173460000Y-106240000I-140000J1D01*
G01*
X167168144Y-103007540D02*
G75*
G02*
X168083828Y-103007540I457842J-457843D01*
G01*
X173140000Y-106240001D02*
G75*
G02*
X172999999Y-106100001I0J140001D01*
G01*
X171600000Y-105420001D02*
G75*
G02*
X171460000Y-105560000I-140000J1D01*
G01*
X173000000Y-105420001D02*
G75*
G03*
X172460000Y-104880000I-540000J1D01*
G01*
X174140000Y-105560001D02*
G75*
G03*
X173600001Y-106100001I0J-539999D01*
G01*
X167602789Y-104687105D02*
G75*
G03*
X167602837Y-104902743I107811J-107795D01*
G01*
X166329998Y-103629999D02*
G75*
G03*
X166545643Y-103629958I107802J107799D01*
G01*
X172140000Y-104880001D02*
G75*
G03*
X171600001Y-105420001I0J-539999D01*
G01*
X168225249Y-103148961D02*
G75*
G02*
X168225246Y-104064643I-457849J-457839D01*
G01*
%TO.N,/LVDS Conversion/LVDS_CH09_P*%
X167703200Y-110105000D02*
X168658200Y-109150000D01*
X174980000Y-109560000D02*
X179160000Y-109560000D01*
X165555499Y-109705000D02*
X165955499Y-110105000D01*
X174336000Y-109150000D02*
X174540000Y-109150000D01*
X174570000Y-109150000D02*
X174980000Y-109560000D01*
X179160000Y-109560000D02*
X179780000Y-110180000D01*
X174540000Y-109150000D02*
X174550000Y-109150000D01*
X173133000Y-108517000D02*
X173133000Y-108482204D01*
X173316000Y-108299204D02*
X173520000Y-108299204D01*
X168658200Y-109150000D02*
X172500000Y-109150000D01*
X165555499Y-109305000D02*
X165555499Y-109705000D01*
X174550000Y-109150000D02*
X174570000Y-109150000D01*
X165955499Y-110105000D02*
X167703200Y-110105000D01*
X173703000Y-108482204D02*
X173703000Y-108517000D01*
X173133000Y-108482204D02*
G75*
G02*
X173316000Y-108299200I183000J4D01*
G01*
X172500000Y-109150000D02*
G75*
G03*
X173133000Y-108517000I0J633000D01*
G01*
X173520000Y-108299204D02*
G75*
G02*
X173702996Y-108482204I0J-182996D01*
G01*
X173703000Y-108517000D02*
G75*
G03*
X174336000Y-109150000I633000J0D01*
G01*
%TO.N,/CMOS_MASTER_CLK*%
X153600000Y-90900000D02*
X173600000Y-90900000D01*
X147200000Y-97300000D02*
X153600000Y-90900000D01*
%TO.N,/LVDS Conversion/LVDS_CH09_N*%
X172683000Y-108517000D02*
X172683000Y-108482204D01*
X179160000Y-108290000D02*
X179780000Y-108910000D01*
X174540000Y-108700000D02*
X174550000Y-108700000D01*
X174336000Y-108700000D02*
X174540000Y-108700000D01*
X168471800Y-108700000D02*
X172500000Y-108700000D01*
X173316000Y-107849204D02*
X173520000Y-107849204D01*
X174560000Y-108700000D02*
X174970000Y-108290000D01*
X174970000Y-108290000D02*
X179160000Y-108290000D01*
X167510900Y-109660900D02*
X168471800Y-108700000D01*
X174550000Y-108700000D02*
X174560000Y-108700000D01*
X174153000Y-108482204D02*
X174153000Y-108517000D01*
X166055499Y-109505000D02*
X166211399Y-109660900D01*
X166055499Y-109305000D02*
X166055499Y-109505000D01*
X166211399Y-109660900D02*
X167510900Y-109660900D01*
X173520000Y-107849204D02*
G75*
G02*
X174152996Y-108482204I0J-632996D01*
G01*
X172683000Y-108482204D02*
G75*
G02*
X173316000Y-107849200I633000J4D01*
G01*
X174153000Y-108517000D02*
G75*
G03*
X174336000Y-108700000I183000J0D01*
G01*
X172500000Y-108700000D02*
G75*
G03*
X172683000Y-108517000I0J183000D01*
G01*
%TO.N,/LVDS Conversion/LVDS_CH13_N*%
X171955001Y-113965685D02*
X172011622Y-114022306D01*
X176620000Y-112070000D02*
X174355000Y-112070000D01*
X169975099Y-115064898D02*
X169833679Y-115206321D01*
X171955000Y-113085000D02*
X171955001Y-113085001D01*
X171280049Y-114074950D02*
X170940597Y-113735498D01*
X173930000Y-112495000D02*
X172545000Y-112495000D01*
X169918490Y-114757603D02*
X169975099Y-114814212D01*
X172011621Y-114272994D02*
X171870201Y-114414415D01*
X171619515Y-114414415D02*
X171562895Y-114357795D01*
X166000000Y-115700000D02*
X166000000Y-115500000D01*
X169190000Y-115850000D02*
X166150000Y-115850000D01*
X177240000Y-111450000D02*
X176620000Y-112070000D01*
X166150000Y-115850000D02*
X166000000Y-115700000D01*
X172545000Y-112495000D02*
X171955000Y-113085000D01*
X170059912Y-113735498D02*
X169918490Y-113876919D01*
X169833679Y-115206321D02*
X169235000Y-115805000D01*
X171280052Y-114074952D02*
X171280049Y-114074950D01*
X169235000Y-115805000D02*
X169190000Y-115850000D01*
X171562895Y-114357795D02*
X171280052Y-114074952D01*
X174355000Y-112070000D02*
X173930000Y-112495000D01*
X169918490Y-113876919D02*
G75*
G03*
X169918451Y-114757642I440310J-440381D01*
G01*
X170940597Y-113735498D02*
G75*
G03*
X170059911Y-113735497I-440343J-440342D01*
G01*
X171955001Y-113085001D02*
G75*
G03*
X171955044Y-113965642I440299J-440299D01*
G01*
X169975099Y-114814212D02*
G75*
G02*
X169975144Y-115064943I-125299J-125388D01*
G01*
X172011622Y-114022306D02*
G75*
G02*
X172011572Y-114272944I-125322J-125294D01*
G01*
X171870201Y-114414415D02*
G75*
G02*
X171619515Y-114414415I-125343J125342D01*
G01*
%TO.N,/LVDS Conversion/LVDS_CH01_N*%
X175460000Y-100690000D02*
X174970000Y-101180000D01*
X170480000Y-97150000D02*
X166620000Y-97150000D01*
X178510000Y-102560000D02*
X177860000Y-101910000D01*
X166020000Y-96730000D02*
X166020000Y-97020000D01*
X170635686Y-97150000D02*
X170480000Y-97150000D01*
X166020000Y-97020000D02*
X166150000Y-97150000D01*
X176270000Y-101410000D02*
X176270000Y-101020000D01*
X177860000Y-101910000D02*
X176770000Y-101910000D01*
X174665686Y-101180000D02*
X170635686Y-97150000D01*
X166150000Y-97150000D02*
X166620000Y-97150000D01*
X176270000Y-101020000D02*
X175940000Y-100690000D01*
X174970000Y-101180000D02*
X174665686Y-101180000D01*
X176770000Y-101910000D02*
X176270000Y-101410000D01*
X175940000Y-100690000D02*
X175460000Y-100690000D01*
%TO.N,/LVDS Conversion/LVDS_CH05_P*%
X175970000Y-106370000D02*
X175560001Y-105960001D01*
X167733829Y-103357539D02*
X167875250Y-103498960D01*
X172460000Y-105280001D02*
X172140000Y-105280001D01*
X171460000Y-105960001D02*
X171140000Y-105960001D01*
X165500000Y-103100000D02*
X165500000Y-103500000D01*
X170150000Y-105960001D02*
X171040000Y-105960001D01*
X175560001Y-105960001D02*
X174140000Y-105960001D01*
X167252791Y-105252790D02*
X167394213Y-105394213D01*
X166895685Y-103979999D02*
X167518145Y-103357540D01*
X173460000Y-106640001D02*
X173140000Y-106640001D01*
X167394213Y-105394213D02*
X167960001Y-105960001D01*
X172600000Y-105960001D02*
X172600000Y-105420001D01*
X165500000Y-103500000D02*
X165980000Y-103980000D01*
X167875250Y-103714646D02*
X167252791Y-104337106D01*
X167960001Y-105960001D02*
X170150000Y-105960001D01*
X172600000Y-106100001D02*
X172600000Y-105960001D01*
X171140000Y-105960001D02*
X171040000Y-105960001D01*
X165980000Y-103980000D02*
X165979999Y-103979998D01*
X172140000Y-105280001D02*
G75*
G03*
X172000001Y-105420001I0J-139999D01*
G01*
X172000000Y-105420001D02*
G75*
G02*
X171460000Y-105960000I-540000J1D01*
G01*
X174000000Y-106100001D02*
G75*
G02*
X173460000Y-106640000I-540000J1D01*
G01*
X174140000Y-105960001D02*
G75*
G03*
X174000001Y-106100001I0J-139999D01*
G01*
X173140000Y-106640001D02*
G75*
G02*
X172599999Y-106100001I0J540001D01*
G01*
X165979999Y-103979998D02*
G75*
G03*
X166895642Y-103979957I457801J457798D01*
G01*
X172600000Y-105420001D02*
G75*
G03*
X172460000Y-105280000I-140000J1D01*
G01*
X167518145Y-103357540D02*
G75*
G02*
X167733841Y-103357526I107855J-107860D01*
G01*
X167875250Y-103498960D02*
G75*
G02*
X167875247Y-103714643I-107850J-107840D01*
G01*
X167252791Y-104337106D02*
G75*
G03*
X167252839Y-105252742I457809J-457794D01*
G01*
%TO.N,/Processing/QSPI_IO2*%
X140200000Y-84800000D02*
X140200000Y-87857500D01*
X133000000Y-84700000D02*
X133000000Y-86142500D01*
X139585000Y-87242500D02*
X140200000Y-87857500D01*
X141400002Y-89057502D02*
X141400002Y-101600000D01*
X140200000Y-87857500D02*
X141400002Y-89057502D01*
X132330000Y-84030000D02*
X133000000Y-84700000D01*
X139600000Y-84200000D02*
X140200000Y-84800000D01*
X133000000Y-86142500D02*
X134100000Y-87242500D01*
X134100000Y-87242500D02*
X139585000Y-87242500D01*
%TO.N,/Processing/QSPI_IO3*%
X140870000Y-94200000D02*
X140870000Y-101870000D01*
X133600000Y-94200000D02*
X133600000Y-94600000D01*
X133600000Y-94600000D02*
X140900000Y-101900000D01*
X140870000Y-101870000D02*
X140900000Y-101900000D01*
X140900000Y-101900000D02*
X141400000Y-102400000D01*
%TO.N,/Processing/QSPI_IO0*%
X135800000Y-89500000D02*
X132800000Y-89500000D01*
X142192446Y-103192446D02*
X140792446Y-103192446D01*
X137700000Y-93570000D02*
X138315000Y-94185000D01*
X132250000Y-94650000D02*
X131513603Y-94650000D01*
X131060000Y-94196397D02*
X131060000Y-94160000D01*
X132800000Y-89500000D02*
X131060000Y-91240000D01*
X131513603Y-94650000D02*
X131081801Y-94218199D01*
X137700000Y-91400000D02*
X135800000Y-89500000D01*
X131060000Y-91240000D02*
X131060000Y-94160000D01*
X137700000Y-93570000D02*
X137700000Y-91400000D01*
X140792446Y-103192446D02*
X132250000Y-94650000D01*
%TO.N,/ETH0_RXD_0*%
X139521177Y-131835000D02*
X138625000Y-130938823D01*
X138120000Y-120665000D02*
X138200000Y-120585000D01*
X138625000Y-130938823D02*
X138625000Y-129485000D01*
X139650000Y-131835000D02*
X139521177Y-131835000D01*
X138120000Y-128980000D02*
X138120000Y-120665000D01*
X138625000Y-129485000D02*
X138120000Y-128980000D01*
%TO.N,/ETH0_RXD_2*%
X137155000Y-113130000D02*
X135900000Y-114385000D01*
X137300000Y-129510000D02*
X137800000Y-130010000D01*
X139815256Y-114400000D02*
X139290000Y-114400000D01*
X137800000Y-131785000D02*
X137925000Y-131910000D01*
X135900000Y-114385000D02*
X135900000Y-122896177D01*
X138020000Y-113130000D02*
X137155000Y-113130000D01*
X139815256Y-114400000D02*
X139825000Y-114409744D01*
X139290000Y-114400000D02*
X138020000Y-113130000D01*
X135900000Y-122896177D02*
X137300000Y-124296177D01*
X137300000Y-124296177D02*
X137300000Y-129510000D01*
X137800000Y-130010000D02*
X137800000Y-131785000D01*
%TO.N,/ETH0_RX_CTL*%
X139600000Y-131235000D02*
X138975000Y-130610000D01*
X138975000Y-130610000D02*
X138975000Y-126010000D01*
X142975000Y-122010000D02*
X142975000Y-114435000D01*
X138975000Y-126010000D02*
X142975000Y-122010000D01*
%TO.N,/ETH0_RXD_1*%
X137720000Y-117480000D02*
X137720000Y-114865000D01*
X137720000Y-114865000D02*
X138200000Y-114385000D01*
X137725000Y-117485000D02*
X137720000Y-117480000D01*
X138200000Y-131410000D02*
X138200000Y-129685000D01*
X138625000Y-131835000D02*
X138200000Y-131410000D01*
X137720000Y-117490000D02*
X137725000Y-117485000D01*
X138200000Y-129685000D02*
X137720000Y-129205000D01*
X137720000Y-129205000D02*
X137720000Y-117490000D01*
%TO.N,/ETH0_RXD_3*%
X139055687Y-113600001D02*
X139815257Y-113600001D01*
X137350000Y-132435000D02*
X136850000Y-131935000D01*
X135350000Y-122911863D02*
X135350000Y-114369314D01*
X135350000Y-114369314D02*
X136989314Y-112730000D01*
X135810000Y-128370000D02*
X135810000Y-123371863D01*
X136850000Y-131935000D02*
X136850000Y-129410000D01*
X136989314Y-112730000D02*
X138185686Y-112730000D01*
X135810000Y-123371863D02*
X135350000Y-122911863D01*
X136850000Y-129410000D02*
X135810000Y-128370000D01*
X138185686Y-112730000D02*
X139055687Y-113600001D01*
%TO.N,/SCB3_RX*%
X136450000Y-112000000D02*
X133600000Y-112000000D01*
%TO.N,/LVDS Conversion/CMOS_CTR_OUT*%
X148600000Y-101600000D02*
X150000000Y-100200000D01*
X150000000Y-100200000D02*
X150000000Y-97400000D01*
X151400000Y-96000000D02*
X153000000Y-96000000D01*
X150000000Y-97400000D02*
X151400000Y-96000000D01*
%TO.N,/JTAG_SWCLK*%
X147650000Y-117400000D02*
X147650000Y-114250000D01*
X147650000Y-114250000D02*
X146200000Y-112800000D01*
%TO.N,/Processing/TEMPR_ADC0 (P6.0)*%
X132050000Y-95050000D02*
X136600000Y-99600000D01*
X136600000Y-99600000D02*
X136600000Y-100800000D01*
X122300000Y-86900000D02*
X122300000Y-90100000D01*
X127250000Y-95050000D02*
X132050000Y-95050000D01*
X122300000Y-90100000D02*
X127250000Y-95050000D01*
%TO.N,/LVDS Conversion/LVDS_RECV_EN*%
X147800000Y-104000000D02*
X150500000Y-101300000D01*
X151800000Y-101300000D02*
X152845000Y-100255000D01*
X152845000Y-100255000D02*
X152845000Y-109600000D01*
X150500000Y-101300000D02*
X151800000Y-101300000D01*
X152845000Y-100255000D02*
X152845000Y-98955000D01*
X152845000Y-98955000D02*
X153300000Y-98500000D01*
X152845000Y-121645000D02*
X153300000Y-122100000D01*
X152845000Y-109600000D02*
X152845000Y-109700000D01*
%TO.N,/PHY_LED0*%
X120395000Y-137400000D02*
X116495000Y-133500000D01*
X145400000Y-132200000D02*
X140200000Y-137400000D01*
X140200000Y-137400000D02*
X120395000Y-137400000D01*
X116495000Y-123390000D02*
X116495000Y-133500000D01*
%TD*%
M02*
