%TF.GenerationSoftware,KiCad,Pcbnew,9.0.0*%
%TF.CreationDate,2025-02-27T19:38:35-05:00*%
%TF.ProjectId,S25-26,5332352d-3236-42e6-9b69-6361645f7063,rev?*%
%TF.SameCoordinates,Original*%
%TF.FileFunction,Paste,Bot*%
%TF.FilePolarity,Positive*%
%FSLAX46Y46*%
G04 Gerber Fmt 4.6, Leading zero omitted, Abs format (unit mm)*
G04 Created by KiCad (PCBNEW 9.0.0) date 2025-02-27 19:38:35*
%MOMM*%
%LPD*%
G01*
G04 APERTURE LIST*
G04 Aperture macros list*
%AMRoundRect*
0 Rectangle with rounded corners*
0 $1 Rounding radius*
0 $2 $3 $4 $5 $6 $7 $8 $9 X,Y pos of 4 corners*
0 Add a 4 corners polygon primitive as box body*
4,1,4,$2,$3,$4,$5,$6,$7,$8,$9,$2,$3,0*
0 Add four circle primitives for the rounded corners*
1,1,$1+$1,$2,$3*
1,1,$1+$1,$4,$5*
1,1,$1+$1,$6,$7*
1,1,$1+$1,$8,$9*
0 Add four rect primitives between the rounded corners*
20,1,$1+$1,$2,$3,$4,$5,0*
20,1,$1+$1,$4,$5,$6,$7,0*
20,1,$1+$1,$6,$7,$8,$9,0*
20,1,$1+$1,$8,$9,$2,$3,0*%
G04 Aperture macros list end*
%ADD10RoundRect,0.225000X0.225000X0.250000X-0.225000X0.250000X-0.225000X-0.250000X0.225000X-0.250000X0*%
%ADD11RoundRect,0.225000X-0.225000X-0.250000X0.225000X-0.250000X0.225000X0.250000X-0.225000X0.250000X0*%
%ADD12RoundRect,0.225000X0.250000X-0.225000X0.250000X0.225000X-0.250000X0.225000X-0.250000X-0.225000X0*%
%ADD13RoundRect,0.225000X-0.250000X0.225000X-0.250000X-0.225000X0.250000X-0.225000X0.250000X0.225000X0*%
%ADD14RoundRect,0.250000X0.475000X-0.250000X0.475000X0.250000X-0.475000X0.250000X-0.475000X-0.250000X0*%
G04 APERTURE END LIST*
D10*
%TO.C,C38*%
X138575000Y-106650000D03*
X140125000Y-106650000D03*
%TD*%
D11*
%TO.C,C52*%
X145475000Y-104050000D03*
X147025000Y-104050000D03*
%TD*%
D10*
%TO.C,C29*%
X139725000Y-105150000D03*
X138175000Y-105150000D03*
%TD*%
D12*
%TO.C,C44*%
X143850000Y-105150000D03*
X143850000Y-103600000D03*
%TD*%
D13*
%TO.C,C54*%
X155650000Y-124200000D03*
X155650000Y-125750000D03*
%TD*%
D14*
%TO.C,C69*%
X159100000Y-118650000D03*
X159100000Y-116750000D03*
%TD*%
D11*
%TO.C,C61*%
X146725000Y-110450000D03*
X148275000Y-110450000D03*
%TD*%
D12*
%TO.C,C3*%
X182060000Y-121330000D03*
X182060000Y-119780000D03*
%TD*%
D10*
%TO.C,C51*%
X152475000Y-123700000D03*
X150925000Y-123700000D03*
%TD*%
%TO.C,C6*%
X193565000Y-99980000D03*
X192015000Y-99980000D03*
%TD*%
D12*
%TO.C,C67*%
X157000000Y-105975000D03*
X157000000Y-104425000D03*
%TD*%
D11*
%TO.C,C49*%
X145575000Y-116350000D03*
X147125000Y-116350000D03*
%TD*%
D10*
%TO.C,C8*%
X193555000Y-104950000D03*
X192005000Y-104950000D03*
%TD*%
D12*
%TO.C,C14*%
X185460000Y-121310000D03*
X185460000Y-119760000D03*
%TD*%
D10*
%TO.C,C10*%
X193555000Y-98300000D03*
X192005000Y-98300000D03*
%TD*%
D13*
%TO.C,C19*%
X176820000Y-119785000D03*
X176820000Y-121335000D03*
%TD*%
D10*
%TO.C,C45*%
X139475000Y-109850000D03*
X137925000Y-109850000D03*
%TD*%
D11*
%TO.C,C50*%
X145725000Y-105700000D03*
X147275000Y-105700000D03*
%TD*%
%TO.C,C34*%
X145440000Y-108950000D03*
X146990000Y-108950000D03*
%TD*%
D10*
%TO.C,C56*%
X139775000Y-103600000D03*
X138225000Y-103600000D03*
%TD*%
%TO.C,C17*%
X193570000Y-114610000D03*
X192020000Y-114610000D03*
%TD*%
D12*
%TO.C,C4*%
X180330000Y-121330000D03*
X180330000Y-119780000D03*
%TD*%
D13*
%TO.C,C32*%
X142750000Y-110800000D03*
X142750000Y-112350000D03*
%TD*%
%TO.C,C53*%
X154050000Y-124200000D03*
X154050000Y-125750000D03*
%TD*%
D14*
%TO.C,C68*%
X159100000Y-95000000D03*
X159100000Y-93100000D03*
%TD*%
D13*
%TO.C,C47*%
X157250000Y-124200000D03*
X157250000Y-125750000D03*
%TD*%
D10*
%TO.C,C7*%
X193560000Y-103310000D03*
X192010000Y-103310000D03*
%TD*%
D13*
%TO.C,C31*%
X141200000Y-110800000D03*
X141200000Y-112350000D03*
%TD*%
D10*
%TO.C,C16*%
X193560000Y-111420000D03*
X192010000Y-111420000D03*
%TD*%
%TO.C,C36*%
X140125000Y-108250000D03*
X138575000Y-108250000D03*
%TD*%
D12*
%TO.C,C66*%
X157000000Y-118475000D03*
X157000000Y-116925000D03*
%TD*%
%TO.C,C2*%
X183760000Y-121330000D03*
X183760000Y-119780000D03*
%TD*%
D11*
%TO.C,C35*%
X145750000Y-107350000D03*
X147300000Y-107350000D03*
%TD*%
D12*
%TO.C,C41*%
X141300000Y-105125000D03*
X141300000Y-103575000D03*
%TD*%
D14*
%TO.C,C70*%
X159100000Y-106150000D03*
X159100000Y-104250000D03*
%TD*%
D10*
%TO.C,C9*%
X193555000Y-109810000D03*
X192005000Y-109810000D03*
%TD*%
%TO.C,C12*%
X193570000Y-113040000D03*
X192020000Y-113040000D03*
%TD*%
%TO.C,C5*%
X193570000Y-96600000D03*
X192020000Y-96600000D03*
%TD*%
%TO.C,C13*%
X193570000Y-116210000D03*
X192020000Y-116210000D03*
%TD*%
D13*
%TO.C,C33*%
X144300000Y-110775000D03*
X144300000Y-112325000D03*
%TD*%
D12*
%TO.C,C65*%
X157000000Y-94850000D03*
X157000000Y-93300000D03*
%TD*%
D10*
%TO.C,C18*%
X193580000Y-117850000D03*
X192030000Y-117850000D03*
%TD*%
%TO.C,C46*%
X137450000Y-111400000D03*
X135900000Y-111400000D03*
%TD*%
%TO.C,C11*%
X193565000Y-101640000D03*
X192015000Y-101640000D03*
%TD*%
%TO.C,C59*%
X136437500Y-113100000D03*
X134887500Y-113100000D03*
%TD*%
D13*
%TO.C,C20*%
X178600000Y-119780000D03*
X178600000Y-121330000D03*
%TD*%
D10*
%TO.C,C1*%
X193580000Y-119470000D03*
X192030000Y-119470000D03*
%TD*%
D11*
%TO.C,C58*%
X146775000Y-112050000D03*
X148325000Y-112050000D03*
%TD*%
D10*
%TO.C,C15*%
X193555000Y-106570000D03*
X192005000Y-106570000D03*
%TD*%
M02*
