%TF.GenerationSoftware,KiCad,Pcbnew,9.0.0*%
%TF.CreationDate,2025-02-27T19:38:36-05:00*%
%TF.ProjectId,S25-26,5332352d-3236-42e6-9b69-6361645f7063,rev?*%
%TF.SameCoordinates,Original*%
%TF.FileFunction,Legend,Top*%
%TF.FilePolarity,Positive*%
%FSLAX46Y46*%
G04 Gerber Fmt 4.6, Leading zero omitted, Abs format (unit mm)*
G04 Created by KiCad (PCBNEW 9.0.0) date 2025-02-27 19:38:36*
%MOMM*%
%LPD*%
G01*
G04 APERTURE LIST*
%ADD10C,0.254000*%
%ADD11C,0.150000*%
%ADD12C,0.250000*%
%ADD13C,0.200000*%
%ADD14C,0.120000*%
%ADD15C,0.100000*%
G04 APERTURE END LIST*
D10*
X136810237Y-62674318D02*
X136810237Y-61404318D01*
X138140714Y-62553365D02*
X138080238Y-62613842D01*
X138080238Y-62613842D02*
X137898809Y-62674318D01*
X137898809Y-62674318D02*
X137777857Y-62674318D01*
X137777857Y-62674318D02*
X137596428Y-62613842D01*
X137596428Y-62613842D02*
X137475476Y-62492889D01*
X137475476Y-62492889D02*
X137414999Y-62371937D01*
X137414999Y-62371937D02*
X137354523Y-62130032D01*
X137354523Y-62130032D02*
X137354523Y-61948603D01*
X137354523Y-61948603D02*
X137414999Y-61706699D01*
X137414999Y-61706699D02*
X137475476Y-61585746D01*
X137475476Y-61585746D02*
X137596428Y-61464794D01*
X137596428Y-61464794D02*
X137777857Y-61404318D01*
X137777857Y-61404318D02*
X137898809Y-61404318D01*
X137898809Y-61404318D02*
X138080238Y-61464794D01*
X138080238Y-61464794D02*
X138140714Y-61525270D01*
X138564047Y-61404318D02*
X139350238Y-61404318D01*
X139350238Y-61404318D02*
X138926904Y-61888127D01*
X138926904Y-61888127D02*
X139108333Y-61888127D01*
X139108333Y-61888127D02*
X139229285Y-61948603D01*
X139229285Y-61948603D02*
X139289761Y-62009080D01*
X139289761Y-62009080D02*
X139350238Y-62130032D01*
X139350238Y-62130032D02*
X139350238Y-62432413D01*
X139350238Y-62432413D02*
X139289761Y-62553365D01*
X139289761Y-62553365D02*
X139229285Y-62613842D01*
X139229285Y-62613842D02*
X139108333Y-62674318D01*
X139108333Y-62674318D02*
X138745476Y-62674318D01*
X138745476Y-62674318D02*
X138624523Y-62613842D01*
X138624523Y-62613842D02*
X138564047Y-62553365D01*
D11*
X188289580Y-58517857D02*
X188337200Y-58565476D01*
X188337200Y-58565476D02*
X188384819Y-58708333D01*
X188384819Y-58708333D02*
X188384819Y-58803571D01*
X188384819Y-58803571D02*
X188337200Y-58946428D01*
X188337200Y-58946428D02*
X188241961Y-59041666D01*
X188241961Y-59041666D02*
X188146723Y-59089285D01*
X188146723Y-59089285D02*
X187956247Y-59136904D01*
X187956247Y-59136904D02*
X187813390Y-59136904D01*
X187813390Y-59136904D02*
X187622914Y-59089285D01*
X187622914Y-59089285D02*
X187527676Y-59041666D01*
X187527676Y-59041666D02*
X187432438Y-58946428D01*
X187432438Y-58946428D02*
X187384819Y-58803571D01*
X187384819Y-58803571D02*
X187384819Y-58708333D01*
X187384819Y-58708333D02*
X187432438Y-58565476D01*
X187432438Y-58565476D02*
X187480057Y-58517857D01*
X187480057Y-58136904D02*
X187432438Y-58089285D01*
X187432438Y-58089285D02*
X187384819Y-57994047D01*
X187384819Y-57994047D02*
X187384819Y-57755952D01*
X187384819Y-57755952D02*
X187432438Y-57660714D01*
X187432438Y-57660714D02*
X187480057Y-57613095D01*
X187480057Y-57613095D02*
X187575295Y-57565476D01*
X187575295Y-57565476D02*
X187670533Y-57565476D01*
X187670533Y-57565476D02*
X187813390Y-57613095D01*
X187813390Y-57613095D02*
X188384819Y-58184523D01*
X188384819Y-58184523D02*
X188384819Y-57565476D01*
X187813390Y-56994047D02*
X187765771Y-57089285D01*
X187765771Y-57089285D02*
X187718152Y-57136904D01*
X187718152Y-57136904D02*
X187622914Y-57184523D01*
X187622914Y-57184523D02*
X187575295Y-57184523D01*
X187575295Y-57184523D02*
X187480057Y-57136904D01*
X187480057Y-57136904D02*
X187432438Y-57089285D01*
X187432438Y-57089285D02*
X187384819Y-56994047D01*
X187384819Y-56994047D02*
X187384819Y-56803571D01*
X187384819Y-56803571D02*
X187432438Y-56708333D01*
X187432438Y-56708333D02*
X187480057Y-56660714D01*
X187480057Y-56660714D02*
X187575295Y-56613095D01*
X187575295Y-56613095D02*
X187622914Y-56613095D01*
X187622914Y-56613095D02*
X187718152Y-56660714D01*
X187718152Y-56660714D02*
X187765771Y-56708333D01*
X187765771Y-56708333D02*
X187813390Y-56803571D01*
X187813390Y-56803571D02*
X187813390Y-56994047D01*
X187813390Y-56994047D02*
X187861009Y-57089285D01*
X187861009Y-57089285D02*
X187908628Y-57136904D01*
X187908628Y-57136904D02*
X188003866Y-57184523D01*
X188003866Y-57184523D02*
X188194342Y-57184523D01*
X188194342Y-57184523D02*
X188289580Y-57136904D01*
X188289580Y-57136904D02*
X188337200Y-57089285D01*
X188337200Y-57089285D02*
X188384819Y-56994047D01*
X188384819Y-56994047D02*
X188384819Y-56803571D01*
X188384819Y-56803571D02*
X188337200Y-56708333D01*
X188337200Y-56708333D02*
X188289580Y-56660714D01*
X188289580Y-56660714D02*
X188194342Y-56613095D01*
X188194342Y-56613095D02*
X188003866Y-56613095D01*
X188003866Y-56613095D02*
X187908628Y-56660714D01*
X187908628Y-56660714D02*
X187861009Y-56708333D01*
X187861009Y-56708333D02*
X187813390Y-56803571D01*
X194809524Y-63002057D02*
X194857143Y-62954438D01*
X194857143Y-62954438D02*
X194952381Y-62906819D01*
X194952381Y-62906819D02*
X195190476Y-62906819D01*
X195190476Y-62906819D02*
X195285714Y-62954438D01*
X195285714Y-62954438D02*
X195333333Y-63002057D01*
X195333333Y-63002057D02*
X195380952Y-63097295D01*
X195380952Y-63097295D02*
X195380952Y-63192533D01*
X195380952Y-63192533D02*
X195333333Y-63335390D01*
X195333333Y-63335390D02*
X194761905Y-63906819D01*
X194761905Y-63906819D02*
X195380952Y-63906819D01*
X195666667Y-62906819D02*
X196000000Y-63906819D01*
X196000000Y-63906819D02*
X196333333Y-62906819D01*
X197190476Y-63906819D02*
X196619048Y-63906819D01*
X196904762Y-63906819D02*
X196904762Y-62906819D01*
X196904762Y-62906819D02*
X196809524Y-63049676D01*
X196809524Y-63049676D02*
X196714286Y-63144914D01*
X196714286Y-63144914D02*
X196619048Y-63192533D01*
X118134819Y-113863333D02*
X118849104Y-113863333D01*
X118849104Y-113863333D02*
X118991961Y-113910952D01*
X118991961Y-113910952D02*
X119087200Y-114006190D01*
X119087200Y-114006190D02*
X119134819Y-114149047D01*
X119134819Y-114149047D02*
X119134819Y-114244285D01*
X118134819Y-113482380D02*
X118134819Y-112863333D01*
X118134819Y-112863333D02*
X118515771Y-113196666D01*
X118515771Y-113196666D02*
X118515771Y-113053809D01*
X118515771Y-113053809D02*
X118563390Y-112958571D01*
X118563390Y-112958571D02*
X118611009Y-112910952D01*
X118611009Y-112910952D02*
X118706247Y-112863333D01*
X118706247Y-112863333D02*
X118944342Y-112863333D01*
X118944342Y-112863333D02*
X119039580Y-112910952D01*
X119039580Y-112910952D02*
X119087200Y-112958571D01*
X119087200Y-112958571D02*
X119134819Y-113053809D01*
X119134819Y-113053809D02*
X119134819Y-113339523D01*
X119134819Y-113339523D02*
X119087200Y-113434761D01*
X119087200Y-113434761D02*
X119039580Y-113482380D01*
X131719819Y-127793333D02*
X132434104Y-127793333D01*
X132434104Y-127793333D02*
X132576961Y-127840952D01*
X132576961Y-127840952D02*
X132672200Y-127936190D01*
X132672200Y-127936190D02*
X132719819Y-128079047D01*
X132719819Y-128079047D02*
X132719819Y-128174285D01*
X132053152Y-126888571D02*
X132719819Y-126888571D01*
X131672200Y-127126666D02*
X132386485Y-127364761D01*
X132386485Y-127364761D02*
X132386485Y-126745714D01*
X177351190Y-70784819D02*
X177017857Y-70308628D01*
X176779762Y-70784819D02*
X176779762Y-69784819D01*
X176779762Y-69784819D02*
X177160714Y-69784819D01*
X177160714Y-69784819D02*
X177255952Y-69832438D01*
X177255952Y-69832438D02*
X177303571Y-69880057D01*
X177303571Y-69880057D02*
X177351190Y-69975295D01*
X177351190Y-69975295D02*
X177351190Y-70118152D01*
X177351190Y-70118152D02*
X177303571Y-70213390D01*
X177303571Y-70213390D02*
X177255952Y-70261009D01*
X177255952Y-70261009D02*
X177160714Y-70308628D01*
X177160714Y-70308628D02*
X176779762Y-70308628D01*
X177779762Y-70784819D02*
X177779762Y-69784819D01*
X177779762Y-69784819D02*
X178160714Y-69784819D01*
X178160714Y-69784819D02*
X178255952Y-69832438D01*
X178255952Y-69832438D02*
X178303571Y-69880057D01*
X178303571Y-69880057D02*
X178351190Y-69975295D01*
X178351190Y-69975295D02*
X178351190Y-70118152D01*
X178351190Y-70118152D02*
X178303571Y-70213390D01*
X178303571Y-70213390D02*
X178255952Y-70261009D01*
X178255952Y-70261009D02*
X178160714Y-70308628D01*
X178160714Y-70308628D02*
X177779762Y-70308628D01*
X178684524Y-69784819D02*
X179303571Y-69784819D01*
X179303571Y-69784819D02*
X178970238Y-70165771D01*
X178970238Y-70165771D02*
X179113095Y-70165771D01*
X179113095Y-70165771D02*
X179208333Y-70213390D01*
X179208333Y-70213390D02*
X179255952Y-70261009D01*
X179255952Y-70261009D02*
X179303571Y-70356247D01*
X179303571Y-70356247D02*
X179303571Y-70594342D01*
X179303571Y-70594342D02*
X179255952Y-70689580D01*
X179255952Y-70689580D02*
X179208333Y-70737200D01*
X179208333Y-70737200D02*
X179113095Y-70784819D01*
X179113095Y-70784819D02*
X178827381Y-70784819D01*
X178827381Y-70784819D02*
X178732143Y-70737200D01*
X178732143Y-70737200D02*
X178684524Y-70689580D01*
X179494048Y-70880057D02*
X180255952Y-70880057D01*
X180446429Y-69880057D02*
X180494048Y-69832438D01*
X180494048Y-69832438D02*
X180589286Y-69784819D01*
X180589286Y-69784819D02*
X180827381Y-69784819D01*
X180827381Y-69784819D02*
X180922619Y-69832438D01*
X180922619Y-69832438D02*
X180970238Y-69880057D01*
X180970238Y-69880057D02*
X181017857Y-69975295D01*
X181017857Y-69975295D02*
X181017857Y-70070533D01*
X181017857Y-70070533D02*
X180970238Y-70213390D01*
X180970238Y-70213390D02*
X180398810Y-70784819D01*
X180398810Y-70784819D02*
X181017857Y-70784819D01*
D10*
X133539318Y-90489762D02*
X132269318Y-90489762D01*
X133418365Y-89159285D02*
X133478842Y-89219761D01*
X133478842Y-89219761D02*
X133539318Y-89401190D01*
X133539318Y-89401190D02*
X133539318Y-89522142D01*
X133539318Y-89522142D02*
X133478842Y-89703571D01*
X133478842Y-89703571D02*
X133357889Y-89824523D01*
X133357889Y-89824523D02*
X133236937Y-89885000D01*
X133236937Y-89885000D02*
X132995032Y-89945476D01*
X132995032Y-89945476D02*
X132813603Y-89945476D01*
X132813603Y-89945476D02*
X132571699Y-89885000D01*
X132571699Y-89885000D02*
X132450746Y-89824523D01*
X132450746Y-89824523D02*
X132329794Y-89703571D01*
X132329794Y-89703571D02*
X132269318Y-89522142D01*
X132269318Y-89522142D02*
X132269318Y-89401190D01*
X132269318Y-89401190D02*
X132329794Y-89219761D01*
X132329794Y-89219761D02*
X132390270Y-89159285D01*
X132692651Y-88070714D02*
X133539318Y-88070714D01*
X132208842Y-88373095D02*
X133115984Y-88675476D01*
X133115984Y-88675476D02*
X133115984Y-87889285D01*
D11*
X124233333Y-84034819D02*
X123900000Y-83558628D01*
X123661905Y-84034819D02*
X123661905Y-83034819D01*
X123661905Y-83034819D02*
X124042857Y-83034819D01*
X124042857Y-83034819D02*
X124138095Y-83082438D01*
X124138095Y-83082438D02*
X124185714Y-83130057D01*
X124185714Y-83130057D02*
X124233333Y-83225295D01*
X124233333Y-83225295D02*
X124233333Y-83368152D01*
X124233333Y-83368152D02*
X124185714Y-83463390D01*
X124185714Y-83463390D02*
X124138095Y-83511009D01*
X124138095Y-83511009D02*
X124042857Y-83558628D01*
X124042857Y-83558628D02*
X123661905Y-83558628D01*
X125185714Y-84034819D02*
X124614286Y-84034819D01*
X124900000Y-84034819D02*
X124900000Y-83034819D01*
X124900000Y-83034819D02*
X124804762Y-83177676D01*
X124804762Y-83177676D02*
X124709524Y-83272914D01*
X124709524Y-83272914D02*
X124614286Y-83320533D01*
X176407142Y-80079580D02*
X176359523Y-80127200D01*
X176359523Y-80127200D02*
X176216666Y-80174819D01*
X176216666Y-80174819D02*
X176121428Y-80174819D01*
X176121428Y-80174819D02*
X175978571Y-80127200D01*
X175978571Y-80127200D02*
X175883333Y-80031961D01*
X175883333Y-80031961D02*
X175835714Y-79936723D01*
X175835714Y-79936723D02*
X175788095Y-79746247D01*
X175788095Y-79746247D02*
X175788095Y-79603390D01*
X175788095Y-79603390D02*
X175835714Y-79412914D01*
X175835714Y-79412914D02*
X175883333Y-79317676D01*
X175883333Y-79317676D02*
X175978571Y-79222438D01*
X175978571Y-79222438D02*
X176121428Y-79174819D01*
X176121428Y-79174819D02*
X176216666Y-79174819D01*
X176216666Y-79174819D02*
X176359523Y-79222438D01*
X176359523Y-79222438D02*
X176407142Y-79270057D01*
X177264285Y-79174819D02*
X177073809Y-79174819D01*
X177073809Y-79174819D02*
X176978571Y-79222438D01*
X176978571Y-79222438D02*
X176930952Y-79270057D01*
X176930952Y-79270057D02*
X176835714Y-79412914D01*
X176835714Y-79412914D02*
X176788095Y-79603390D01*
X176788095Y-79603390D02*
X176788095Y-79984342D01*
X176788095Y-79984342D02*
X176835714Y-80079580D01*
X176835714Y-80079580D02*
X176883333Y-80127200D01*
X176883333Y-80127200D02*
X176978571Y-80174819D01*
X176978571Y-80174819D02*
X177169047Y-80174819D01*
X177169047Y-80174819D02*
X177264285Y-80127200D01*
X177264285Y-80127200D02*
X177311904Y-80079580D01*
X177311904Y-80079580D02*
X177359523Y-79984342D01*
X177359523Y-79984342D02*
X177359523Y-79746247D01*
X177359523Y-79746247D02*
X177311904Y-79651009D01*
X177311904Y-79651009D02*
X177264285Y-79603390D01*
X177264285Y-79603390D02*
X177169047Y-79555771D01*
X177169047Y-79555771D02*
X176978571Y-79555771D01*
X176978571Y-79555771D02*
X176883333Y-79603390D01*
X176883333Y-79603390D02*
X176835714Y-79651009D01*
X176835714Y-79651009D02*
X176788095Y-79746247D01*
X177692857Y-79174819D02*
X178311904Y-79174819D01*
X178311904Y-79174819D02*
X177978571Y-79555771D01*
X177978571Y-79555771D02*
X178121428Y-79555771D01*
X178121428Y-79555771D02*
X178216666Y-79603390D01*
X178216666Y-79603390D02*
X178264285Y-79651009D01*
X178264285Y-79651009D02*
X178311904Y-79746247D01*
X178311904Y-79746247D02*
X178311904Y-79984342D01*
X178311904Y-79984342D02*
X178264285Y-80079580D01*
X178264285Y-80079580D02*
X178216666Y-80127200D01*
X178216666Y-80127200D02*
X178121428Y-80174819D01*
X178121428Y-80174819D02*
X177835714Y-80174819D01*
X177835714Y-80174819D02*
X177740476Y-80127200D01*
X177740476Y-80127200D02*
X177692857Y-80079580D01*
X171370057Y-134735238D02*
X171322438Y-134830476D01*
X171322438Y-134830476D02*
X171227200Y-134925714D01*
X171227200Y-134925714D02*
X171084342Y-135068571D01*
X171084342Y-135068571D02*
X171036723Y-135163809D01*
X171036723Y-135163809D02*
X171036723Y-135259047D01*
X171274819Y-135211428D02*
X171227200Y-135306666D01*
X171227200Y-135306666D02*
X171131961Y-135401904D01*
X171131961Y-135401904D02*
X170941485Y-135449523D01*
X170941485Y-135449523D02*
X170608152Y-135449523D01*
X170608152Y-135449523D02*
X170417676Y-135401904D01*
X170417676Y-135401904D02*
X170322438Y-135306666D01*
X170322438Y-135306666D02*
X170274819Y-135211428D01*
X170274819Y-135211428D02*
X170274819Y-135020952D01*
X170274819Y-135020952D02*
X170322438Y-134925714D01*
X170322438Y-134925714D02*
X170417676Y-134830476D01*
X170417676Y-134830476D02*
X170608152Y-134782857D01*
X170608152Y-134782857D02*
X170941485Y-134782857D01*
X170941485Y-134782857D02*
X171131961Y-134830476D01*
X171131961Y-134830476D02*
X171227200Y-134925714D01*
X171227200Y-134925714D02*
X171274819Y-135020952D01*
X171274819Y-135020952D02*
X171274819Y-135211428D01*
X171274819Y-133830476D02*
X171274819Y-134401904D01*
X171274819Y-134116190D02*
X170274819Y-134116190D01*
X170274819Y-134116190D02*
X170417676Y-134211428D01*
X170417676Y-134211428D02*
X170512914Y-134306666D01*
X170512914Y-134306666D02*
X170560533Y-134401904D01*
X136708333Y-124384819D02*
X136375000Y-123908628D01*
X136136905Y-124384819D02*
X136136905Y-123384819D01*
X136136905Y-123384819D02*
X136517857Y-123384819D01*
X136517857Y-123384819D02*
X136613095Y-123432438D01*
X136613095Y-123432438D02*
X136660714Y-123480057D01*
X136660714Y-123480057D02*
X136708333Y-123575295D01*
X136708333Y-123575295D02*
X136708333Y-123718152D01*
X136708333Y-123718152D02*
X136660714Y-123813390D01*
X136660714Y-123813390D02*
X136613095Y-123861009D01*
X136613095Y-123861009D02*
X136517857Y-123908628D01*
X136517857Y-123908628D02*
X136136905Y-123908628D01*
X137041667Y-123384819D02*
X137660714Y-123384819D01*
X137660714Y-123384819D02*
X137327381Y-123765771D01*
X137327381Y-123765771D02*
X137470238Y-123765771D01*
X137470238Y-123765771D02*
X137565476Y-123813390D01*
X137565476Y-123813390D02*
X137613095Y-123861009D01*
X137613095Y-123861009D02*
X137660714Y-123956247D01*
X137660714Y-123956247D02*
X137660714Y-124194342D01*
X137660714Y-124194342D02*
X137613095Y-124289580D01*
X137613095Y-124289580D02*
X137565476Y-124337200D01*
X137565476Y-124337200D02*
X137470238Y-124384819D01*
X137470238Y-124384819D02*
X137184524Y-124384819D01*
X137184524Y-124384819D02*
X137089286Y-124337200D01*
X137089286Y-124337200D02*
X137041667Y-124289580D01*
X168591905Y-51844819D02*
X169210952Y-51844819D01*
X169210952Y-51844819D02*
X168877619Y-52225771D01*
X168877619Y-52225771D02*
X169020476Y-52225771D01*
X169020476Y-52225771D02*
X169115714Y-52273390D01*
X169115714Y-52273390D02*
X169163333Y-52321009D01*
X169163333Y-52321009D02*
X169210952Y-52416247D01*
X169210952Y-52416247D02*
X169210952Y-52654342D01*
X169210952Y-52654342D02*
X169163333Y-52749580D01*
X169163333Y-52749580D02*
X169115714Y-52797200D01*
X169115714Y-52797200D02*
X169020476Y-52844819D01*
X169020476Y-52844819D02*
X168734762Y-52844819D01*
X168734762Y-52844819D02*
X168639524Y-52797200D01*
X168639524Y-52797200D02*
X168591905Y-52749580D01*
X169496667Y-51844819D02*
X169830000Y-52844819D01*
X169830000Y-52844819D02*
X170163333Y-51844819D01*
X170401429Y-51844819D02*
X171020476Y-51844819D01*
X171020476Y-51844819D02*
X170687143Y-52225771D01*
X170687143Y-52225771D02*
X170830000Y-52225771D01*
X170830000Y-52225771D02*
X170925238Y-52273390D01*
X170925238Y-52273390D02*
X170972857Y-52321009D01*
X170972857Y-52321009D02*
X171020476Y-52416247D01*
X171020476Y-52416247D02*
X171020476Y-52654342D01*
X171020476Y-52654342D02*
X170972857Y-52749580D01*
X170972857Y-52749580D02*
X170925238Y-52797200D01*
X170925238Y-52797200D02*
X170830000Y-52844819D01*
X170830000Y-52844819D02*
X170544286Y-52844819D01*
X170544286Y-52844819D02*
X170449048Y-52797200D01*
X170449048Y-52797200D02*
X170401429Y-52749580D01*
X170214286Y-122206819D02*
X170547619Y-123206819D01*
X170547619Y-123206819D02*
X170880952Y-122206819D01*
X171785714Y-123111580D02*
X171738095Y-123159200D01*
X171738095Y-123159200D02*
X171595238Y-123206819D01*
X171595238Y-123206819D02*
X171500000Y-123206819D01*
X171500000Y-123206819D02*
X171357143Y-123159200D01*
X171357143Y-123159200D02*
X171261905Y-123063961D01*
X171261905Y-123063961D02*
X171214286Y-122968723D01*
X171214286Y-122968723D02*
X171166667Y-122778247D01*
X171166667Y-122778247D02*
X171166667Y-122635390D01*
X171166667Y-122635390D02*
X171214286Y-122444914D01*
X171214286Y-122444914D02*
X171261905Y-122349676D01*
X171261905Y-122349676D02*
X171357143Y-122254438D01*
X171357143Y-122254438D02*
X171500000Y-122206819D01*
X171500000Y-122206819D02*
X171595238Y-122206819D01*
X171595238Y-122206819D02*
X171738095Y-122254438D01*
X171738095Y-122254438D02*
X171785714Y-122302057D01*
X172404762Y-122206819D02*
X172595238Y-122206819D01*
X172595238Y-122206819D02*
X172690476Y-122254438D01*
X172690476Y-122254438D02*
X172785714Y-122349676D01*
X172785714Y-122349676D02*
X172833333Y-122540152D01*
X172833333Y-122540152D02*
X172833333Y-122873485D01*
X172833333Y-122873485D02*
X172785714Y-123063961D01*
X172785714Y-123063961D02*
X172690476Y-123159200D01*
X172690476Y-123159200D02*
X172595238Y-123206819D01*
X172595238Y-123206819D02*
X172404762Y-123206819D01*
X172404762Y-123206819D02*
X172309524Y-123159200D01*
X172309524Y-123159200D02*
X172214286Y-123063961D01*
X172214286Y-123063961D02*
X172166667Y-122873485D01*
X172166667Y-122873485D02*
X172166667Y-122540152D01*
X172166667Y-122540152D02*
X172214286Y-122349676D01*
X172214286Y-122349676D02*
X172309524Y-122254438D01*
X172309524Y-122254438D02*
X172404762Y-122206819D01*
X173833333Y-123206819D02*
X173500000Y-122730628D01*
X173261905Y-123206819D02*
X173261905Y-122206819D01*
X173261905Y-122206819D02*
X173642857Y-122206819D01*
X173642857Y-122206819D02*
X173738095Y-122254438D01*
X173738095Y-122254438D02*
X173785714Y-122302057D01*
X173785714Y-122302057D02*
X173833333Y-122397295D01*
X173833333Y-122397295D02*
X173833333Y-122540152D01*
X173833333Y-122540152D02*
X173785714Y-122635390D01*
X173785714Y-122635390D02*
X173738095Y-122683009D01*
X173738095Y-122683009D02*
X173642857Y-122730628D01*
X173642857Y-122730628D02*
X173261905Y-122730628D01*
X174261905Y-122683009D02*
X174595238Y-122683009D01*
X174738095Y-123206819D02*
X174261905Y-123206819D01*
X174261905Y-123206819D02*
X174261905Y-122206819D01*
X174261905Y-122206819D02*
X174738095Y-122206819D01*
X175690476Y-123206819D02*
X175119048Y-123206819D01*
X175404762Y-123206819D02*
X175404762Y-122206819D01*
X175404762Y-122206819D02*
X175309524Y-122349676D01*
X175309524Y-122349676D02*
X175214286Y-122444914D01*
X175214286Y-122444914D02*
X175119048Y-122492533D01*
X124233333Y-88234819D02*
X123900000Y-87758628D01*
X123661905Y-88234819D02*
X123661905Y-87234819D01*
X123661905Y-87234819D02*
X124042857Y-87234819D01*
X124042857Y-87234819D02*
X124138095Y-87282438D01*
X124138095Y-87282438D02*
X124185714Y-87330057D01*
X124185714Y-87330057D02*
X124233333Y-87425295D01*
X124233333Y-87425295D02*
X124233333Y-87568152D01*
X124233333Y-87568152D02*
X124185714Y-87663390D01*
X124185714Y-87663390D02*
X124138095Y-87711009D01*
X124138095Y-87711009D02*
X124042857Y-87758628D01*
X124042857Y-87758628D02*
X123661905Y-87758628D01*
X124614286Y-87330057D02*
X124661905Y-87282438D01*
X124661905Y-87282438D02*
X124757143Y-87234819D01*
X124757143Y-87234819D02*
X124995238Y-87234819D01*
X124995238Y-87234819D02*
X125090476Y-87282438D01*
X125090476Y-87282438D02*
X125138095Y-87330057D01*
X125138095Y-87330057D02*
X125185714Y-87425295D01*
X125185714Y-87425295D02*
X125185714Y-87520533D01*
X125185714Y-87520533D02*
X125138095Y-87663390D01*
X125138095Y-87663390D02*
X124566667Y-88234819D01*
X124566667Y-88234819D02*
X125185714Y-88234819D01*
X166620833Y-125204819D02*
X166287500Y-124728628D01*
X166049405Y-125204819D02*
X166049405Y-124204819D01*
X166049405Y-124204819D02*
X166430357Y-124204819D01*
X166430357Y-124204819D02*
X166525595Y-124252438D01*
X166525595Y-124252438D02*
X166573214Y-124300057D01*
X166573214Y-124300057D02*
X166620833Y-124395295D01*
X166620833Y-124395295D02*
X166620833Y-124538152D01*
X166620833Y-124538152D02*
X166573214Y-124633390D01*
X166573214Y-124633390D02*
X166525595Y-124681009D01*
X166525595Y-124681009D02*
X166430357Y-124728628D01*
X166430357Y-124728628D02*
X166049405Y-124728628D01*
X167477976Y-124204819D02*
X167287500Y-124204819D01*
X167287500Y-124204819D02*
X167192262Y-124252438D01*
X167192262Y-124252438D02*
X167144643Y-124300057D01*
X167144643Y-124300057D02*
X167049405Y-124442914D01*
X167049405Y-124442914D02*
X167001786Y-124633390D01*
X167001786Y-124633390D02*
X167001786Y-125014342D01*
X167001786Y-125014342D02*
X167049405Y-125109580D01*
X167049405Y-125109580D02*
X167097024Y-125157200D01*
X167097024Y-125157200D02*
X167192262Y-125204819D01*
X167192262Y-125204819D02*
X167382738Y-125204819D01*
X167382738Y-125204819D02*
X167477976Y-125157200D01*
X167477976Y-125157200D02*
X167525595Y-125109580D01*
X167525595Y-125109580D02*
X167573214Y-125014342D01*
X167573214Y-125014342D02*
X167573214Y-124776247D01*
X167573214Y-124776247D02*
X167525595Y-124681009D01*
X167525595Y-124681009D02*
X167477976Y-124633390D01*
X167477976Y-124633390D02*
X167382738Y-124585771D01*
X167382738Y-124585771D02*
X167192262Y-124585771D01*
X167192262Y-124585771D02*
X167097024Y-124633390D01*
X167097024Y-124633390D02*
X167049405Y-124681009D01*
X167049405Y-124681009D02*
X167001786Y-124776247D01*
X121209580Y-62530357D02*
X121257200Y-62577976D01*
X121257200Y-62577976D02*
X121304819Y-62720833D01*
X121304819Y-62720833D02*
X121304819Y-62816071D01*
X121304819Y-62816071D02*
X121257200Y-62958928D01*
X121257200Y-62958928D02*
X121161961Y-63054166D01*
X121161961Y-63054166D02*
X121066723Y-63101785D01*
X121066723Y-63101785D02*
X120876247Y-63149404D01*
X120876247Y-63149404D02*
X120733390Y-63149404D01*
X120733390Y-63149404D02*
X120542914Y-63101785D01*
X120542914Y-63101785D02*
X120447676Y-63054166D01*
X120447676Y-63054166D02*
X120352438Y-62958928D01*
X120352438Y-62958928D02*
X120304819Y-62816071D01*
X120304819Y-62816071D02*
X120304819Y-62720833D01*
X120304819Y-62720833D02*
X120352438Y-62577976D01*
X120352438Y-62577976D02*
X120400057Y-62530357D01*
X120400057Y-62149404D02*
X120352438Y-62101785D01*
X120352438Y-62101785D02*
X120304819Y-62006547D01*
X120304819Y-62006547D02*
X120304819Y-61768452D01*
X120304819Y-61768452D02*
X120352438Y-61673214D01*
X120352438Y-61673214D02*
X120400057Y-61625595D01*
X120400057Y-61625595D02*
X120495295Y-61577976D01*
X120495295Y-61577976D02*
X120590533Y-61577976D01*
X120590533Y-61577976D02*
X120733390Y-61625595D01*
X120733390Y-61625595D02*
X121304819Y-62197023D01*
X121304819Y-62197023D02*
X121304819Y-61577976D01*
X121304819Y-60625595D02*
X121304819Y-61197023D01*
X121304819Y-60911309D02*
X120304819Y-60911309D01*
X120304819Y-60911309D02*
X120447676Y-61006547D01*
X120447676Y-61006547D02*
X120542914Y-61101785D01*
X120542914Y-61101785D02*
X120590533Y-61197023D01*
X133839580Y-107592857D02*
X133887200Y-107640476D01*
X133887200Y-107640476D02*
X133934819Y-107783333D01*
X133934819Y-107783333D02*
X133934819Y-107878571D01*
X133934819Y-107878571D02*
X133887200Y-108021428D01*
X133887200Y-108021428D02*
X133791961Y-108116666D01*
X133791961Y-108116666D02*
X133696723Y-108164285D01*
X133696723Y-108164285D02*
X133506247Y-108211904D01*
X133506247Y-108211904D02*
X133363390Y-108211904D01*
X133363390Y-108211904D02*
X133172914Y-108164285D01*
X133172914Y-108164285D02*
X133077676Y-108116666D01*
X133077676Y-108116666D02*
X132982438Y-108021428D01*
X132982438Y-108021428D02*
X132934819Y-107878571D01*
X132934819Y-107878571D02*
X132934819Y-107783333D01*
X132934819Y-107783333D02*
X132982438Y-107640476D01*
X132982438Y-107640476D02*
X133030057Y-107592857D01*
X133268152Y-106735714D02*
X133934819Y-106735714D01*
X132887200Y-106973809D02*
X133601485Y-107211904D01*
X133601485Y-107211904D02*
X133601485Y-106592857D01*
X133363390Y-106069047D02*
X133315771Y-106164285D01*
X133315771Y-106164285D02*
X133268152Y-106211904D01*
X133268152Y-106211904D02*
X133172914Y-106259523D01*
X133172914Y-106259523D02*
X133125295Y-106259523D01*
X133125295Y-106259523D02*
X133030057Y-106211904D01*
X133030057Y-106211904D02*
X132982438Y-106164285D01*
X132982438Y-106164285D02*
X132934819Y-106069047D01*
X132934819Y-106069047D02*
X132934819Y-105878571D01*
X132934819Y-105878571D02*
X132982438Y-105783333D01*
X132982438Y-105783333D02*
X133030057Y-105735714D01*
X133030057Y-105735714D02*
X133125295Y-105688095D01*
X133125295Y-105688095D02*
X133172914Y-105688095D01*
X133172914Y-105688095D02*
X133268152Y-105735714D01*
X133268152Y-105735714D02*
X133315771Y-105783333D01*
X133315771Y-105783333D02*
X133363390Y-105878571D01*
X133363390Y-105878571D02*
X133363390Y-106069047D01*
X133363390Y-106069047D02*
X133411009Y-106164285D01*
X133411009Y-106164285D02*
X133458628Y-106211904D01*
X133458628Y-106211904D02*
X133553866Y-106259523D01*
X133553866Y-106259523D02*
X133744342Y-106259523D01*
X133744342Y-106259523D02*
X133839580Y-106211904D01*
X133839580Y-106211904D02*
X133887200Y-106164285D01*
X133887200Y-106164285D02*
X133934819Y-106069047D01*
X133934819Y-106069047D02*
X133934819Y-105878571D01*
X133934819Y-105878571D02*
X133887200Y-105783333D01*
X133887200Y-105783333D02*
X133839580Y-105735714D01*
X133839580Y-105735714D02*
X133744342Y-105688095D01*
X133744342Y-105688095D02*
X133553866Y-105688095D01*
X133553866Y-105688095D02*
X133458628Y-105735714D01*
X133458628Y-105735714D02*
X133411009Y-105783333D01*
X133411009Y-105783333D02*
X133363390Y-105878571D01*
X184224819Y-90116666D02*
X183748628Y-90449999D01*
X184224819Y-90688094D02*
X183224819Y-90688094D01*
X183224819Y-90688094D02*
X183224819Y-90307142D01*
X183224819Y-90307142D02*
X183272438Y-90211904D01*
X183272438Y-90211904D02*
X183320057Y-90164285D01*
X183320057Y-90164285D02*
X183415295Y-90116666D01*
X183415295Y-90116666D02*
X183558152Y-90116666D01*
X183558152Y-90116666D02*
X183653390Y-90164285D01*
X183653390Y-90164285D02*
X183701009Y-90211904D01*
X183701009Y-90211904D02*
X183748628Y-90307142D01*
X183748628Y-90307142D02*
X183748628Y-90688094D01*
X183224819Y-89211904D02*
X183224819Y-89688094D01*
X183224819Y-89688094D02*
X183701009Y-89735713D01*
X183701009Y-89735713D02*
X183653390Y-89688094D01*
X183653390Y-89688094D02*
X183605771Y-89592856D01*
X183605771Y-89592856D02*
X183605771Y-89354761D01*
X183605771Y-89354761D02*
X183653390Y-89259523D01*
X183653390Y-89259523D02*
X183701009Y-89211904D01*
X183701009Y-89211904D02*
X183796247Y-89164285D01*
X183796247Y-89164285D02*
X184034342Y-89164285D01*
X184034342Y-89164285D02*
X184129580Y-89211904D01*
X184129580Y-89211904D02*
X184177200Y-89259523D01*
X184177200Y-89259523D02*
X184224819Y-89354761D01*
X184224819Y-89354761D02*
X184224819Y-89592856D01*
X184224819Y-89592856D02*
X184177200Y-89688094D01*
X184177200Y-89688094D02*
X184129580Y-89735713D01*
X111354819Y-59403333D02*
X112069104Y-59403333D01*
X112069104Y-59403333D02*
X112211961Y-59450952D01*
X112211961Y-59450952D02*
X112307200Y-59546190D01*
X112307200Y-59546190D02*
X112354819Y-59689047D01*
X112354819Y-59689047D02*
X112354819Y-59784285D01*
X112354819Y-58403333D02*
X112354819Y-58974761D01*
X112354819Y-58689047D02*
X111354819Y-58689047D01*
X111354819Y-58689047D02*
X111497676Y-58784285D01*
X111497676Y-58784285D02*
X111592914Y-58879523D01*
X111592914Y-58879523D02*
X111640533Y-58974761D01*
X184989580Y-66317857D02*
X185037200Y-66365476D01*
X185037200Y-66365476D02*
X185084819Y-66508333D01*
X185084819Y-66508333D02*
X185084819Y-66603571D01*
X185084819Y-66603571D02*
X185037200Y-66746428D01*
X185037200Y-66746428D02*
X184941961Y-66841666D01*
X184941961Y-66841666D02*
X184846723Y-66889285D01*
X184846723Y-66889285D02*
X184656247Y-66936904D01*
X184656247Y-66936904D02*
X184513390Y-66936904D01*
X184513390Y-66936904D02*
X184322914Y-66889285D01*
X184322914Y-66889285D02*
X184227676Y-66841666D01*
X184227676Y-66841666D02*
X184132438Y-66746428D01*
X184132438Y-66746428D02*
X184084819Y-66603571D01*
X184084819Y-66603571D02*
X184084819Y-66508333D01*
X184084819Y-66508333D02*
X184132438Y-66365476D01*
X184132438Y-66365476D02*
X184180057Y-66317857D01*
X184180057Y-65936904D02*
X184132438Y-65889285D01*
X184132438Y-65889285D02*
X184084819Y-65794047D01*
X184084819Y-65794047D02*
X184084819Y-65555952D01*
X184084819Y-65555952D02*
X184132438Y-65460714D01*
X184132438Y-65460714D02*
X184180057Y-65413095D01*
X184180057Y-65413095D02*
X184275295Y-65365476D01*
X184275295Y-65365476D02*
X184370533Y-65365476D01*
X184370533Y-65365476D02*
X184513390Y-65413095D01*
X184513390Y-65413095D02*
X185084819Y-65984523D01*
X185084819Y-65984523D02*
X185084819Y-65365476D01*
X184084819Y-64508333D02*
X184084819Y-64698809D01*
X184084819Y-64698809D02*
X184132438Y-64794047D01*
X184132438Y-64794047D02*
X184180057Y-64841666D01*
X184180057Y-64841666D02*
X184322914Y-64936904D01*
X184322914Y-64936904D02*
X184513390Y-64984523D01*
X184513390Y-64984523D02*
X184894342Y-64984523D01*
X184894342Y-64984523D02*
X184989580Y-64936904D01*
X184989580Y-64936904D02*
X185037200Y-64889285D01*
X185037200Y-64889285D02*
X185084819Y-64794047D01*
X185084819Y-64794047D02*
X185084819Y-64603571D01*
X185084819Y-64603571D02*
X185037200Y-64508333D01*
X185037200Y-64508333D02*
X184989580Y-64460714D01*
X184989580Y-64460714D02*
X184894342Y-64413095D01*
X184894342Y-64413095D02*
X184656247Y-64413095D01*
X184656247Y-64413095D02*
X184561009Y-64460714D01*
X184561009Y-64460714D02*
X184513390Y-64508333D01*
X184513390Y-64508333D02*
X184465771Y-64603571D01*
X184465771Y-64603571D02*
X184465771Y-64794047D01*
X184465771Y-64794047D02*
X184513390Y-64889285D01*
X184513390Y-64889285D02*
X184561009Y-64936904D01*
X184561009Y-64936904D02*
X184656247Y-64984523D01*
X129839580Y-107592857D02*
X129887200Y-107640476D01*
X129887200Y-107640476D02*
X129934819Y-107783333D01*
X129934819Y-107783333D02*
X129934819Y-107878571D01*
X129934819Y-107878571D02*
X129887200Y-108021428D01*
X129887200Y-108021428D02*
X129791961Y-108116666D01*
X129791961Y-108116666D02*
X129696723Y-108164285D01*
X129696723Y-108164285D02*
X129506247Y-108211904D01*
X129506247Y-108211904D02*
X129363390Y-108211904D01*
X129363390Y-108211904D02*
X129172914Y-108164285D01*
X129172914Y-108164285D02*
X129077676Y-108116666D01*
X129077676Y-108116666D02*
X128982438Y-108021428D01*
X128982438Y-108021428D02*
X128934819Y-107878571D01*
X128934819Y-107878571D02*
X128934819Y-107783333D01*
X128934819Y-107783333D02*
X128982438Y-107640476D01*
X128982438Y-107640476D02*
X129030057Y-107592857D01*
X128934819Y-107259523D02*
X128934819Y-106640476D01*
X128934819Y-106640476D02*
X129315771Y-106973809D01*
X129315771Y-106973809D02*
X129315771Y-106830952D01*
X129315771Y-106830952D02*
X129363390Y-106735714D01*
X129363390Y-106735714D02*
X129411009Y-106688095D01*
X129411009Y-106688095D02*
X129506247Y-106640476D01*
X129506247Y-106640476D02*
X129744342Y-106640476D01*
X129744342Y-106640476D02*
X129839580Y-106688095D01*
X129839580Y-106688095D02*
X129887200Y-106735714D01*
X129887200Y-106735714D02*
X129934819Y-106830952D01*
X129934819Y-106830952D02*
X129934819Y-107116666D01*
X129934819Y-107116666D02*
X129887200Y-107211904D01*
X129887200Y-107211904D02*
X129839580Y-107259523D01*
X128934819Y-106021428D02*
X128934819Y-105926190D01*
X128934819Y-105926190D02*
X128982438Y-105830952D01*
X128982438Y-105830952D02*
X129030057Y-105783333D01*
X129030057Y-105783333D02*
X129125295Y-105735714D01*
X129125295Y-105735714D02*
X129315771Y-105688095D01*
X129315771Y-105688095D02*
X129553866Y-105688095D01*
X129553866Y-105688095D02*
X129744342Y-105735714D01*
X129744342Y-105735714D02*
X129839580Y-105783333D01*
X129839580Y-105783333D02*
X129887200Y-105830952D01*
X129887200Y-105830952D02*
X129934819Y-105926190D01*
X129934819Y-105926190D02*
X129934819Y-106021428D01*
X129934819Y-106021428D02*
X129887200Y-106116666D01*
X129887200Y-106116666D02*
X129839580Y-106164285D01*
X129839580Y-106164285D02*
X129744342Y-106211904D01*
X129744342Y-106211904D02*
X129553866Y-106259523D01*
X129553866Y-106259523D02*
X129315771Y-106259523D01*
X129315771Y-106259523D02*
X129125295Y-106211904D01*
X129125295Y-106211904D02*
X129030057Y-106164285D01*
X129030057Y-106164285D02*
X128982438Y-106116666D01*
X128982438Y-106116666D02*
X128934819Y-106021428D01*
X116459580Y-64857142D02*
X116507200Y-64904761D01*
X116507200Y-64904761D02*
X116554819Y-65047618D01*
X116554819Y-65047618D02*
X116554819Y-65142856D01*
X116554819Y-65142856D02*
X116507200Y-65285713D01*
X116507200Y-65285713D02*
X116411961Y-65380951D01*
X116411961Y-65380951D02*
X116316723Y-65428570D01*
X116316723Y-65428570D02*
X116126247Y-65476189D01*
X116126247Y-65476189D02*
X115983390Y-65476189D01*
X115983390Y-65476189D02*
X115792914Y-65428570D01*
X115792914Y-65428570D02*
X115697676Y-65380951D01*
X115697676Y-65380951D02*
X115602438Y-65285713D01*
X115602438Y-65285713D02*
X115554819Y-65142856D01*
X115554819Y-65142856D02*
X115554819Y-65047618D01*
X115554819Y-65047618D02*
X115602438Y-64904761D01*
X115602438Y-64904761D02*
X115650057Y-64857142D01*
X116554819Y-64428570D02*
X115888152Y-64428570D01*
X115554819Y-64428570D02*
X115602438Y-64476189D01*
X115602438Y-64476189D02*
X115650057Y-64428570D01*
X115650057Y-64428570D02*
X115602438Y-64380951D01*
X115602438Y-64380951D02*
X115554819Y-64428570D01*
X115554819Y-64428570D02*
X115650057Y-64428570D01*
X115888152Y-63952380D02*
X116554819Y-63952380D01*
X115983390Y-63952380D02*
X115935771Y-63904761D01*
X115935771Y-63904761D02*
X115888152Y-63809523D01*
X115888152Y-63809523D02*
X115888152Y-63666666D01*
X115888152Y-63666666D02*
X115935771Y-63571428D01*
X115935771Y-63571428D02*
X116031009Y-63523809D01*
X116031009Y-63523809D02*
X116554819Y-63523809D01*
X116554819Y-62523809D02*
X116554819Y-63095237D01*
X116554819Y-62809523D02*
X115554819Y-62809523D01*
X115554819Y-62809523D02*
X115697676Y-62904761D01*
X115697676Y-62904761D02*
X115792914Y-62999999D01*
X115792914Y-62999999D02*
X115840533Y-63095237D01*
X177351190Y-62884819D02*
X177017857Y-62408628D01*
X176779762Y-62884819D02*
X176779762Y-61884819D01*
X176779762Y-61884819D02*
X177160714Y-61884819D01*
X177160714Y-61884819D02*
X177255952Y-61932438D01*
X177255952Y-61932438D02*
X177303571Y-61980057D01*
X177303571Y-61980057D02*
X177351190Y-62075295D01*
X177351190Y-62075295D02*
X177351190Y-62218152D01*
X177351190Y-62218152D02*
X177303571Y-62313390D01*
X177303571Y-62313390D02*
X177255952Y-62361009D01*
X177255952Y-62361009D02*
X177160714Y-62408628D01*
X177160714Y-62408628D02*
X176779762Y-62408628D01*
X177779762Y-62884819D02*
X177779762Y-61884819D01*
X177779762Y-61884819D02*
X178160714Y-61884819D01*
X178160714Y-61884819D02*
X178255952Y-61932438D01*
X178255952Y-61932438D02*
X178303571Y-61980057D01*
X178303571Y-61980057D02*
X178351190Y-62075295D01*
X178351190Y-62075295D02*
X178351190Y-62218152D01*
X178351190Y-62218152D02*
X178303571Y-62313390D01*
X178303571Y-62313390D02*
X178255952Y-62361009D01*
X178255952Y-62361009D02*
X178160714Y-62408628D01*
X178160714Y-62408628D02*
X177779762Y-62408628D01*
X178732143Y-61980057D02*
X178779762Y-61932438D01*
X178779762Y-61932438D02*
X178875000Y-61884819D01*
X178875000Y-61884819D02*
X179113095Y-61884819D01*
X179113095Y-61884819D02*
X179208333Y-61932438D01*
X179208333Y-61932438D02*
X179255952Y-61980057D01*
X179255952Y-61980057D02*
X179303571Y-62075295D01*
X179303571Y-62075295D02*
X179303571Y-62170533D01*
X179303571Y-62170533D02*
X179255952Y-62313390D01*
X179255952Y-62313390D02*
X178684524Y-62884819D01*
X178684524Y-62884819D02*
X179303571Y-62884819D01*
X179494048Y-62980057D02*
X180255952Y-62980057D01*
X180446429Y-61980057D02*
X180494048Y-61932438D01*
X180494048Y-61932438D02*
X180589286Y-61884819D01*
X180589286Y-61884819D02*
X180827381Y-61884819D01*
X180827381Y-61884819D02*
X180922619Y-61932438D01*
X180922619Y-61932438D02*
X180970238Y-61980057D01*
X180970238Y-61980057D02*
X181017857Y-62075295D01*
X181017857Y-62075295D02*
X181017857Y-62170533D01*
X181017857Y-62170533D02*
X180970238Y-62313390D01*
X180970238Y-62313390D02*
X180398810Y-62884819D01*
X180398810Y-62884819D02*
X181017857Y-62884819D01*
D10*
X174224318Y-88489762D02*
X172954318Y-88489762D01*
X174103365Y-87159285D02*
X174163842Y-87219761D01*
X174163842Y-87219761D02*
X174224318Y-87401190D01*
X174224318Y-87401190D02*
X174224318Y-87522142D01*
X174224318Y-87522142D02*
X174163842Y-87703571D01*
X174163842Y-87703571D02*
X174042889Y-87824523D01*
X174042889Y-87824523D02*
X173921937Y-87885000D01*
X173921937Y-87885000D02*
X173680032Y-87945476D01*
X173680032Y-87945476D02*
X173498603Y-87945476D01*
X173498603Y-87945476D02*
X173256699Y-87885000D01*
X173256699Y-87885000D02*
X173135746Y-87824523D01*
X173135746Y-87824523D02*
X173014794Y-87703571D01*
X173014794Y-87703571D02*
X172954318Y-87522142D01*
X172954318Y-87522142D02*
X172954318Y-87401190D01*
X172954318Y-87401190D02*
X173014794Y-87219761D01*
X173014794Y-87219761D02*
X173075270Y-87159285D01*
X172954318Y-86735952D02*
X172954318Y-85889285D01*
X172954318Y-85889285D02*
X174224318Y-86433571D01*
D11*
X162356819Y-121146190D02*
X161880628Y-121479523D01*
X162356819Y-121717618D02*
X161356819Y-121717618D01*
X161356819Y-121717618D02*
X161356819Y-121336666D01*
X161356819Y-121336666D02*
X161404438Y-121241428D01*
X161404438Y-121241428D02*
X161452057Y-121193809D01*
X161452057Y-121193809D02*
X161547295Y-121146190D01*
X161547295Y-121146190D02*
X161690152Y-121146190D01*
X161690152Y-121146190D02*
X161785390Y-121193809D01*
X161785390Y-121193809D02*
X161833009Y-121241428D01*
X161833009Y-121241428D02*
X161880628Y-121336666D01*
X161880628Y-121336666D02*
X161880628Y-121717618D01*
X162356819Y-120241428D02*
X162356819Y-120717618D01*
X162356819Y-120717618D02*
X161356819Y-120717618D01*
X161356819Y-120050951D02*
X162356819Y-119717618D01*
X162356819Y-119717618D02*
X161356819Y-119384285D01*
X162356819Y-119050951D02*
X161356819Y-119050951D01*
X161356819Y-119050951D02*
X161356819Y-118812856D01*
X161356819Y-118812856D02*
X161404438Y-118669999D01*
X161404438Y-118669999D02*
X161499676Y-118574761D01*
X161499676Y-118574761D02*
X161594914Y-118527142D01*
X161594914Y-118527142D02*
X161785390Y-118479523D01*
X161785390Y-118479523D02*
X161928247Y-118479523D01*
X161928247Y-118479523D02*
X162118723Y-118527142D01*
X162118723Y-118527142D02*
X162213961Y-118574761D01*
X162213961Y-118574761D02*
X162309200Y-118669999D01*
X162309200Y-118669999D02*
X162356819Y-118812856D01*
X162356819Y-118812856D02*
X162356819Y-119050951D01*
X162309200Y-118098570D02*
X162356819Y-117955713D01*
X162356819Y-117955713D02*
X162356819Y-117717618D01*
X162356819Y-117717618D02*
X162309200Y-117622380D01*
X162309200Y-117622380D02*
X162261580Y-117574761D01*
X162261580Y-117574761D02*
X162166342Y-117527142D01*
X162166342Y-117527142D02*
X162071104Y-117527142D01*
X162071104Y-117527142D02*
X161975866Y-117574761D01*
X161975866Y-117574761D02*
X161928247Y-117622380D01*
X161928247Y-117622380D02*
X161880628Y-117717618D01*
X161880628Y-117717618D02*
X161833009Y-117908094D01*
X161833009Y-117908094D02*
X161785390Y-118003332D01*
X161785390Y-118003332D02*
X161737771Y-118050951D01*
X161737771Y-118050951D02*
X161642533Y-118098570D01*
X161642533Y-118098570D02*
X161547295Y-118098570D01*
X161547295Y-118098570D02*
X161452057Y-118050951D01*
X161452057Y-118050951D02*
X161404438Y-118003332D01*
X161404438Y-118003332D02*
X161356819Y-117908094D01*
X161356819Y-117908094D02*
X161356819Y-117669999D01*
X161356819Y-117669999D02*
X161404438Y-117527142D01*
X161356819Y-117193808D02*
X161356819Y-116574761D01*
X161356819Y-116574761D02*
X161737771Y-116908094D01*
X161737771Y-116908094D02*
X161737771Y-116765237D01*
X161737771Y-116765237D02*
X161785390Y-116669999D01*
X161785390Y-116669999D02*
X161833009Y-116622380D01*
X161833009Y-116622380D02*
X161928247Y-116574761D01*
X161928247Y-116574761D02*
X162166342Y-116574761D01*
X162166342Y-116574761D02*
X162261580Y-116622380D01*
X162261580Y-116622380D02*
X162309200Y-116669999D01*
X162309200Y-116669999D02*
X162356819Y-116765237D01*
X162356819Y-116765237D02*
X162356819Y-117050951D01*
X162356819Y-117050951D02*
X162309200Y-117146189D01*
X162309200Y-117146189D02*
X162261580Y-117193808D01*
X162358819Y-96662381D02*
X161882628Y-96995714D01*
X162358819Y-97233809D02*
X161358819Y-97233809D01*
X161358819Y-97233809D02*
X161358819Y-96852857D01*
X161358819Y-96852857D02*
X161406438Y-96757619D01*
X161406438Y-96757619D02*
X161454057Y-96710000D01*
X161454057Y-96710000D02*
X161549295Y-96662381D01*
X161549295Y-96662381D02*
X161692152Y-96662381D01*
X161692152Y-96662381D02*
X161787390Y-96710000D01*
X161787390Y-96710000D02*
X161835009Y-96757619D01*
X161835009Y-96757619D02*
X161882628Y-96852857D01*
X161882628Y-96852857D02*
X161882628Y-97233809D01*
X162358819Y-95757619D02*
X162358819Y-96233809D01*
X162358819Y-96233809D02*
X161358819Y-96233809D01*
X161358819Y-95567142D02*
X162358819Y-95233809D01*
X162358819Y-95233809D02*
X161358819Y-94900476D01*
X162358819Y-94567142D02*
X161358819Y-94567142D01*
X161358819Y-94567142D02*
X161358819Y-94329047D01*
X161358819Y-94329047D02*
X161406438Y-94186190D01*
X161406438Y-94186190D02*
X161501676Y-94090952D01*
X161501676Y-94090952D02*
X161596914Y-94043333D01*
X161596914Y-94043333D02*
X161787390Y-93995714D01*
X161787390Y-93995714D02*
X161930247Y-93995714D01*
X161930247Y-93995714D02*
X162120723Y-94043333D01*
X162120723Y-94043333D02*
X162215961Y-94090952D01*
X162215961Y-94090952D02*
X162311200Y-94186190D01*
X162311200Y-94186190D02*
X162358819Y-94329047D01*
X162358819Y-94329047D02*
X162358819Y-94567142D01*
X162311200Y-93614761D02*
X162358819Y-93471904D01*
X162358819Y-93471904D02*
X162358819Y-93233809D01*
X162358819Y-93233809D02*
X162311200Y-93138571D01*
X162311200Y-93138571D02*
X162263580Y-93090952D01*
X162263580Y-93090952D02*
X162168342Y-93043333D01*
X162168342Y-93043333D02*
X162073104Y-93043333D01*
X162073104Y-93043333D02*
X161977866Y-93090952D01*
X161977866Y-93090952D02*
X161930247Y-93138571D01*
X161930247Y-93138571D02*
X161882628Y-93233809D01*
X161882628Y-93233809D02*
X161835009Y-93424285D01*
X161835009Y-93424285D02*
X161787390Y-93519523D01*
X161787390Y-93519523D02*
X161739771Y-93567142D01*
X161739771Y-93567142D02*
X161644533Y-93614761D01*
X161644533Y-93614761D02*
X161549295Y-93614761D01*
X161549295Y-93614761D02*
X161454057Y-93567142D01*
X161454057Y-93567142D02*
X161406438Y-93519523D01*
X161406438Y-93519523D02*
X161358819Y-93424285D01*
X161358819Y-93424285D02*
X161358819Y-93186190D01*
X161358819Y-93186190D02*
X161406438Y-93043333D01*
X162358819Y-92090952D02*
X162358819Y-92662380D01*
X162358819Y-92376666D02*
X161358819Y-92376666D01*
X161358819Y-92376666D02*
X161501676Y-92471904D01*
X161501676Y-92471904D02*
X161596914Y-92567142D01*
X161596914Y-92567142D02*
X161644533Y-92662380D01*
X162358819Y-91138571D02*
X162358819Y-91709999D01*
X162358819Y-91424285D02*
X161358819Y-91424285D01*
X161358819Y-91424285D02*
X161501676Y-91519523D01*
X161501676Y-91519523D02*
X161596914Y-91614761D01*
X161596914Y-91614761D02*
X161644533Y-91709999D01*
X172775595Y-62904819D02*
X172775595Y-63714342D01*
X172775595Y-63714342D02*
X172823214Y-63809580D01*
X172823214Y-63809580D02*
X172870833Y-63857200D01*
X172870833Y-63857200D02*
X172966071Y-63904819D01*
X172966071Y-63904819D02*
X173156547Y-63904819D01*
X173156547Y-63904819D02*
X173251785Y-63857200D01*
X173251785Y-63857200D02*
X173299404Y-63809580D01*
X173299404Y-63809580D02*
X173347023Y-63714342D01*
X173347023Y-63714342D02*
X173347023Y-62904819D01*
X173775595Y-63000057D02*
X173823214Y-62952438D01*
X173823214Y-62952438D02*
X173918452Y-62904819D01*
X173918452Y-62904819D02*
X174156547Y-62904819D01*
X174156547Y-62904819D02*
X174251785Y-62952438D01*
X174251785Y-62952438D02*
X174299404Y-63000057D01*
X174299404Y-63000057D02*
X174347023Y-63095295D01*
X174347023Y-63095295D02*
X174347023Y-63190533D01*
X174347023Y-63190533D02*
X174299404Y-63333390D01*
X174299404Y-63333390D02*
X173727976Y-63904819D01*
X173727976Y-63904819D02*
X174347023Y-63904819D01*
X129861905Y-78056819D02*
X130433333Y-78056819D01*
X130147619Y-79056819D02*
X130147619Y-78056819D01*
X130766667Y-79056819D02*
X130766667Y-78056819D01*
X130766667Y-78056819D02*
X131147619Y-78056819D01*
X131147619Y-78056819D02*
X131242857Y-78104438D01*
X131242857Y-78104438D02*
X131290476Y-78152057D01*
X131290476Y-78152057D02*
X131338095Y-78247295D01*
X131338095Y-78247295D02*
X131338095Y-78390152D01*
X131338095Y-78390152D02*
X131290476Y-78485390D01*
X131290476Y-78485390D02*
X131242857Y-78533009D01*
X131242857Y-78533009D02*
X131147619Y-78580628D01*
X131147619Y-78580628D02*
X130766667Y-78580628D01*
X132290476Y-79056819D02*
X131719048Y-79056819D01*
X132004762Y-79056819D02*
X132004762Y-78056819D01*
X132004762Y-78056819D02*
X131909524Y-78199676D01*
X131909524Y-78199676D02*
X131814286Y-78294914D01*
X131814286Y-78294914D02*
X131719048Y-78342533D01*
X133242857Y-79056819D02*
X132671429Y-79056819D01*
X132957143Y-79056819D02*
X132957143Y-78056819D01*
X132957143Y-78056819D02*
X132861905Y-78199676D01*
X132861905Y-78199676D02*
X132766667Y-78294914D01*
X132766667Y-78294914D02*
X132671429Y-78342533D01*
X162370819Y-108741190D02*
X161894628Y-109074523D01*
X162370819Y-109312618D02*
X161370819Y-109312618D01*
X161370819Y-109312618D02*
X161370819Y-108931666D01*
X161370819Y-108931666D02*
X161418438Y-108836428D01*
X161418438Y-108836428D02*
X161466057Y-108788809D01*
X161466057Y-108788809D02*
X161561295Y-108741190D01*
X161561295Y-108741190D02*
X161704152Y-108741190D01*
X161704152Y-108741190D02*
X161799390Y-108788809D01*
X161799390Y-108788809D02*
X161847009Y-108836428D01*
X161847009Y-108836428D02*
X161894628Y-108931666D01*
X161894628Y-108931666D02*
X161894628Y-109312618D01*
X162370819Y-107836428D02*
X162370819Y-108312618D01*
X162370819Y-108312618D02*
X161370819Y-108312618D01*
X161370819Y-107645951D02*
X162370819Y-107312618D01*
X162370819Y-107312618D02*
X161370819Y-106979285D01*
X162370819Y-106645951D02*
X161370819Y-106645951D01*
X161370819Y-106645951D02*
X161370819Y-106407856D01*
X161370819Y-106407856D02*
X161418438Y-106264999D01*
X161418438Y-106264999D02*
X161513676Y-106169761D01*
X161513676Y-106169761D02*
X161608914Y-106122142D01*
X161608914Y-106122142D02*
X161799390Y-106074523D01*
X161799390Y-106074523D02*
X161942247Y-106074523D01*
X161942247Y-106074523D02*
X162132723Y-106122142D01*
X162132723Y-106122142D02*
X162227961Y-106169761D01*
X162227961Y-106169761D02*
X162323200Y-106264999D01*
X162323200Y-106264999D02*
X162370819Y-106407856D01*
X162370819Y-106407856D02*
X162370819Y-106645951D01*
X162323200Y-105693570D02*
X162370819Y-105550713D01*
X162370819Y-105550713D02*
X162370819Y-105312618D01*
X162370819Y-105312618D02*
X162323200Y-105217380D01*
X162323200Y-105217380D02*
X162275580Y-105169761D01*
X162275580Y-105169761D02*
X162180342Y-105122142D01*
X162180342Y-105122142D02*
X162085104Y-105122142D01*
X162085104Y-105122142D02*
X161989866Y-105169761D01*
X161989866Y-105169761D02*
X161942247Y-105217380D01*
X161942247Y-105217380D02*
X161894628Y-105312618D01*
X161894628Y-105312618D02*
X161847009Y-105503094D01*
X161847009Y-105503094D02*
X161799390Y-105598332D01*
X161799390Y-105598332D02*
X161751771Y-105645951D01*
X161751771Y-105645951D02*
X161656533Y-105693570D01*
X161656533Y-105693570D02*
X161561295Y-105693570D01*
X161561295Y-105693570D02*
X161466057Y-105645951D01*
X161466057Y-105645951D02*
X161418438Y-105598332D01*
X161418438Y-105598332D02*
X161370819Y-105503094D01*
X161370819Y-105503094D02*
X161370819Y-105264999D01*
X161370819Y-105264999D02*
X161418438Y-105122142D01*
X161370819Y-104788808D02*
X161370819Y-104122142D01*
X161370819Y-104122142D02*
X162370819Y-104550713D01*
D10*
X115872381Y-88904318D02*
X116598095Y-88904318D01*
X116235238Y-90174318D02*
X116235238Y-88904318D01*
X117747143Y-90174318D02*
X117323809Y-89569556D01*
X117021428Y-90174318D02*
X117021428Y-88904318D01*
X117021428Y-88904318D02*
X117505238Y-88904318D01*
X117505238Y-88904318D02*
X117626190Y-88964794D01*
X117626190Y-88964794D02*
X117686667Y-89025270D01*
X117686667Y-89025270D02*
X117747143Y-89146222D01*
X117747143Y-89146222D02*
X117747143Y-89327651D01*
X117747143Y-89327651D02*
X117686667Y-89448603D01*
X117686667Y-89448603D02*
X117626190Y-89509080D01*
X117626190Y-89509080D02*
X117505238Y-89569556D01*
X117505238Y-89569556D02*
X117021428Y-89569556D01*
X118230952Y-89025270D02*
X118291428Y-88964794D01*
X118291428Y-88964794D02*
X118412381Y-88904318D01*
X118412381Y-88904318D02*
X118714762Y-88904318D01*
X118714762Y-88904318D02*
X118835714Y-88964794D01*
X118835714Y-88964794D02*
X118896190Y-89025270D01*
X118896190Y-89025270D02*
X118956667Y-89146222D01*
X118956667Y-89146222D02*
X118956667Y-89267175D01*
X118956667Y-89267175D02*
X118896190Y-89448603D01*
X118896190Y-89448603D02*
X118170476Y-90174318D01*
X118170476Y-90174318D02*
X118956667Y-90174318D01*
D11*
X135254819Y-56936309D02*
X134778628Y-57269642D01*
X135254819Y-57507737D02*
X134254819Y-57507737D01*
X134254819Y-57507737D02*
X134254819Y-57126785D01*
X134254819Y-57126785D02*
X134302438Y-57031547D01*
X134302438Y-57031547D02*
X134350057Y-56983928D01*
X134350057Y-56983928D02*
X134445295Y-56936309D01*
X134445295Y-56936309D02*
X134588152Y-56936309D01*
X134588152Y-56936309D02*
X134683390Y-56983928D01*
X134683390Y-56983928D02*
X134731009Y-57031547D01*
X134731009Y-57031547D02*
X134778628Y-57126785D01*
X134778628Y-57126785D02*
X134778628Y-57507737D01*
X135254819Y-56507737D02*
X134254819Y-56507737D01*
X134254819Y-56507737D02*
X134254819Y-56126785D01*
X134254819Y-56126785D02*
X134302438Y-56031547D01*
X134302438Y-56031547D02*
X134350057Y-55983928D01*
X134350057Y-55983928D02*
X134445295Y-55936309D01*
X134445295Y-55936309D02*
X134588152Y-55936309D01*
X134588152Y-55936309D02*
X134683390Y-55983928D01*
X134683390Y-55983928D02*
X134731009Y-56031547D01*
X134731009Y-56031547D02*
X134778628Y-56126785D01*
X134778628Y-56126785D02*
X134778628Y-56507737D01*
X135254819Y-54983928D02*
X135254819Y-55555356D01*
X135254819Y-55269642D02*
X134254819Y-55269642D01*
X134254819Y-55269642D02*
X134397676Y-55364880D01*
X134397676Y-55364880D02*
X134492914Y-55460118D01*
X134492914Y-55460118D02*
X134540533Y-55555356D01*
X135350057Y-54793452D02*
X135350057Y-54031547D01*
X135254819Y-53269642D02*
X135254819Y-53841070D01*
X135254819Y-53555356D02*
X134254819Y-53555356D01*
X134254819Y-53555356D02*
X134397676Y-53650594D01*
X134397676Y-53650594D02*
X134492914Y-53745832D01*
X134492914Y-53745832D02*
X134540533Y-53841070D01*
X194761905Y-55106819D02*
X195380952Y-55106819D01*
X195380952Y-55106819D02*
X195047619Y-55487771D01*
X195047619Y-55487771D02*
X195190476Y-55487771D01*
X195190476Y-55487771D02*
X195285714Y-55535390D01*
X195285714Y-55535390D02*
X195333333Y-55583009D01*
X195333333Y-55583009D02*
X195380952Y-55678247D01*
X195380952Y-55678247D02*
X195380952Y-55916342D01*
X195380952Y-55916342D02*
X195333333Y-56011580D01*
X195333333Y-56011580D02*
X195285714Y-56059200D01*
X195285714Y-56059200D02*
X195190476Y-56106819D01*
X195190476Y-56106819D02*
X194904762Y-56106819D01*
X194904762Y-56106819D02*
X194809524Y-56059200D01*
X194809524Y-56059200D02*
X194761905Y-56011580D01*
X195666667Y-55106819D02*
X196000000Y-56106819D01*
X196000000Y-56106819D02*
X196333333Y-55106819D01*
X196857143Y-55106819D02*
X196952381Y-55106819D01*
X196952381Y-55106819D02*
X197047619Y-55154438D01*
X197047619Y-55154438D02*
X197095238Y-55202057D01*
X197095238Y-55202057D02*
X197142857Y-55297295D01*
X197142857Y-55297295D02*
X197190476Y-55487771D01*
X197190476Y-55487771D02*
X197190476Y-55725866D01*
X197190476Y-55725866D02*
X197142857Y-55916342D01*
X197142857Y-55916342D02*
X197095238Y-56011580D01*
X197095238Y-56011580D02*
X197047619Y-56059200D01*
X197047619Y-56059200D02*
X196952381Y-56106819D01*
X196952381Y-56106819D02*
X196857143Y-56106819D01*
X196857143Y-56106819D02*
X196761905Y-56059200D01*
X196761905Y-56059200D02*
X196714286Y-56011580D01*
X196714286Y-56011580D02*
X196666667Y-55916342D01*
X196666667Y-55916342D02*
X196619048Y-55725866D01*
X196619048Y-55725866D02*
X196619048Y-55487771D01*
X196619048Y-55487771D02*
X196666667Y-55297295D01*
X196666667Y-55297295D02*
X196714286Y-55202057D01*
X196714286Y-55202057D02*
X196761905Y-55154438D01*
X196761905Y-55154438D02*
X196857143Y-55106819D01*
X156357142Y-126929580D02*
X156309523Y-126977200D01*
X156309523Y-126977200D02*
X156166666Y-127024819D01*
X156166666Y-127024819D02*
X156071428Y-127024819D01*
X156071428Y-127024819D02*
X155928571Y-126977200D01*
X155928571Y-126977200D02*
X155833333Y-126881961D01*
X155833333Y-126881961D02*
X155785714Y-126786723D01*
X155785714Y-126786723D02*
X155738095Y-126596247D01*
X155738095Y-126596247D02*
X155738095Y-126453390D01*
X155738095Y-126453390D02*
X155785714Y-126262914D01*
X155785714Y-126262914D02*
X155833333Y-126167676D01*
X155833333Y-126167676D02*
X155928571Y-126072438D01*
X155928571Y-126072438D02*
X156071428Y-126024819D01*
X156071428Y-126024819D02*
X156166666Y-126024819D01*
X156166666Y-126024819D02*
X156309523Y-126072438D01*
X156309523Y-126072438D02*
X156357142Y-126120057D01*
X156690476Y-126024819D02*
X157309523Y-126024819D01*
X157309523Y-126024819D02*
X156976190Y-126405771D01*
X156976190Y-126405771D02*
X157119047Y-126405771D01*
X157119047Y-126405771D02*
X157214285Y-126453390D01*
X157214285Y-126453390D02*
X157261904Y-126501009D01*
X157261904Y-126501009D02*
X157309523Y-126596247D01*
X157309523Y-126596247D02*
X157309523Y-126834342D01*
X157309523Y-126834342D02*
X157261904Y-126929580D01*
X157261904Y-126929580D02*
X157214285Y-126977200D01*
X157214285Y-126977200D02*
X157119047Y-127024819D01*
X157119047Y-127024819D02*
X156833333Y-127024819D01*
X156833333Y-127024819D02*
X156738095Y-126977200D01*
X156738095Y-126977200D02*
X156690476Y-126929580D01*
X157642857Y-126024819D02*
X158309523Y-126024819D01*
X158309523Y-126024819D02*
X157880952Y-127024819D01*
X132309819Y-134204166D02*
X131833628Y-134537499D01*
X132309819Y-134775594D02*
X131309819Y-134775594D01*
X131309819Y-134775594D02*
X131309819Y-134394642D01*
X131309819Y-134394642D02*
X131357438Y-134299404D01*
X131357438Y-134299404D02*
X131405057Y-134251785D01*
X131405057Y-134251785D02*
X131500295Y-134204166D01*
X131500295Y-134204166D02*
X131643152Y-134204166D01*
X131643152Y-134204166D02*
X131738390Y-134251785D01*
X131738390Y-134251785D02*
X131786009Y-134299404D01*
X131786009Y-134299404D02*
X131833628Y-134394642D01*
X131833628Y-134394642D02*
X131833628Y-134775594D01*
X131643152Y-133347023D02*
X132309819Y-133347023D01*
X131262200Y-133585118D02*
X131976485Y-133823213D01*
X131976485Y-133823213D02*
X131976485Y-133204166D01*
D10*
X140809318Y-90489762D02*
X139539318Y-90489762D01*
X140688365Y-89159285D02*
X140748842Y-89219761D01*
X140748842Y-89219761D02*
X140809318Y-89401190D01*
X140809318Y-89401190D02*
X140809318Y-89522142D01*
X140809318Y-89522142D02*
X140748842Y-89703571D01*
X140748842Y-89703571D02*
X140627889Y-89824523D01*
X140627889Y-89824523D02*
X140506937Y-89885000D01*
X140506937Y-89885000D02*
X140265032Y-89945476D01*
X140265032Y-89945476D02*
X140083603Y-89945476D01*
X140083603Y-89945476D02*
X139841699Y-89885000D01*
X139841699Y-89885000D02*
X139720746Y-89824523D01*
X139720746Y-89824523D02*
X139599794Y-89703571D01*
X139599794Y-89703571D02*
X139539318Y-89522142D01*
X139539318Y-89522142D02*
X139539318Y-89401190D01*
X139539318Y-89401190D02*
X139599794Y-89219761D01*
X139599794Y-89219761D02*
X139660270Y-89159285D01*
X139539318Y-88010238D02*
X139539318Y-88615000D01*
X139539318Y-88615000D02*
X140144080Y-88675476D01*
X140144080Y-88675476D02*
X140083603Y-88615000D01*
X140083603Y-88615000D02*
X140023127Y-88494047D01*
X140023127Y-88494047D02*
X140023127Y-88191666D01*
X140023127Y-88191666D02*
X140083603Y-88070714D01*
X140083603Y-88070714D02*
X140144080Y-88010238D01*
X140144080Y-88010238D02*
X140265032Y-87949761D01*
X140265032Y-87949761D02*
X140567413Y-87949761D01*
X140567413Y-87949761D02*
X140688365Y-88010238D01*
X140688365Y-88010238D02*
X140748842Y-88070714D01*
X140748842Y-88070714D02*
X140809318Y-88191666D01*
X140809318Y-88191666D02*
X140809318Y-88494047D01*
X140809318Y-88494047D02*
X140748842Y-88615000D01*
X140748842Y-88615000D02*
X140688365Y-88675476D01*
D11*
X148932142Y-96589580D02*
X148884523Y-96637200D01*
X148884523Y-96637200D02*
X148741666Y-96684819D01*
X148741666Y-96684819D02*
X148646428Y-96684819D01*
X148646428Y-96684819D02*
X148503571Y-96637200D01*
X148503571Y-96637200D02*
X148408333Y-96541961D01*
X148408333Y-96541961D02*
X148360714Y-96446723D01*
X148360714Y-96446723D02*
X148313095Y-96256247D01*
X148313095Y-96256247D02*
X148313095Y-96113390D01*
X148313095Y-96113390D02*
X148360714Y-95922914D01*
X148360714Y-95922914D02*
X148408333Y-95827676D01*
X148408333Y-95827676D02*
X148503571Y-95732438D01*
X148503571Y-95732438D02*
X148646428Y-95684819D01*
X148646428Y-95684819D02*
X148741666Y-95684819D01*
X148741666Y-95684819D02*
X148884523Y-95732438D01*
X148884523Y-95732438D02*
X148932142Y-95780057D01*
X149836904Y-95684819D02*
X149360714Y-95684819D01*
X149360714Y-95684819D02*
X149313095Y-96161009D01*
X149313095Y-96161009D02*
X149360714Y-96113390D01*
X149360714Y-96113390D02*
X149455952Y-96065771D01*
X149455952Y-96065771D02*
X149694047Y-96065771D01*
X149694047Y-96065771D02*
X149789285Y-96113390D01*
X149789285Y-96113390D02*
X149836904Y-96161009D01*
X149836904Y-96161009D02*
X149884523Y-96256247D01*
X149884523Y-96256247D02*
X149884523Y-96494342D01*
X149884523Y-96494342D02*
X149836904Y-96589580D01*
X149836904Y-96589580D02*
X149789285Y-96637200D01*
X149789285Y-96637200D02*
X149694047Y-96684819D01*
X149694047Y-96684819D02*
X149455952Y-96684819D01*
X149455952Y-96684819D02*
X149360714Y-96637200D01*
X149360714Y-96637200D02*
X149313095Y-96589580D01*
X150789285Y-95684819D02*
X150313095Y-95684819D01*
X150313095Y-95684819D02*
X150265476Y-96161009D01*
X150265476Y-96161009D02*
X150313095Y-96113390D01*
X150313095Y-96113390D02*
X150408333Y-96065771D01*
X150408333Y-96065771D02*
X150646428Y-96065771D01*
X150646428Y-96065771D02*
X150741666Y-96113390D01*
X150741666Y-96113390D02*
X150789285Y-96161009D01*
X150789285Y-96161009D02*
X150836904Y-96256247D01*
X150836904Y-96256247D02*
X150836904Y-96494342D01*
X150836904Y-96494342D02*
X150789285Y-96589580D01*
X150789285Y-96589580D02*
X150741666Y-96637200D01*
X150741666Y-96637200D02*
X150646428Y-96684819D01*
X150646428Y-96684819D02*
X150408333Y-96684819D01*
X150408333Y-96684819D02*
X150313095Y-96637200D01*
X150313095Y-96637200D02*
X150265476Y-96589580D01*
X188289580Y-66342857D02*
X188337200Y-66390476D01*
X188337200Y-66390476D02*
X188384819Y-66533333D01*
X188384819Y-66533333D02*
X188384819Y-66628571D01*
X188384819Y-66628571D02*
X188337200Y-66771428D01*
X188337200Y-66771428D02*
X188241961Y-66866666D01*
X188241961Y-66866666D02*
X188146723Y-66914285D01*
X188146723Y-66914285D02*
X187956247Y-66961904D01*
X187956247Y-66961904D02*
X187813390Y-66961904D01*
X187813390Y-66961904D02*
X187622914Y-66914285D01*
X187622914Y-66914285D02*
X187527676Y-66866666D01*
X187527676Y-66866666D02*
X187432438Y-66771428D01*
X187432438Y-66771428D02*
X187384819Y-66628571D01*
X187384819Y-66628571D02*
X187384819Y-66533333D01*
X187384819Y-66533333D02*
X187432438Y-66390476D01*
X187432438Y-66390476D02*
X187480057Y-66342857D01*
X187480057Y-65961904D02*
X187432438Y-65914285D01*
X187432438Y-65914285D02*
X187384819Y-65819047D01*
X187384819Y-65819047D02*
X187384819Y-65580952D01*
X187384819Y-65580952D02*
X187432438Y-65485714D01*
X187432438Y-65485714D02*
X187480057Y-65438095D01*
X187480057Y-65438095D02*
X187575295Y-65390476D01*
X187575295Y-65390476D02*
X187670533Y-65390476D01*
X187670533Y-65390476D02*
X187813390Y-65438095D01*
X187813390Y-65438095D02*
X188384819Y-66009523D01*
X188384819Y-66009523D02*
X188384819Y-65390476D01*
X187384819Y-65057142D02*
X187384819Y-64390476D01*
X187384819Y-64390476D02*
X188384819Y-64819047D01*
X169282142Y-60729580D02*
X169234523Y-60777200D01*
X169234523Y-60777200D02*
X169091666Y-60824819D01*
X169091666Y-60824819D02*
X168996428Y-60824819D01*
X168996428Y-60824819D02*
X168853571Y-60777200D01*
X168853571Y-60777200D02*
X168758333Y-60681961D01*
X168758333Y-60681961D02*
X168710714Y-60586723D01*
X168710714Y-60586723D02*
X168663095Y-60396247D01*
X168663095Y-60396247D02*
X168663095Y-60253390D01*
X168663095Y-60253390D02*
X168710714Y-60062914D01*
X168710714Y-60062914D02*
X168758333Y-59967676D01*
X168758333Y-59967676D02*
X168853571Y-59872438D01*
X168853571Y-59872438D02*
X168996428Y-59824819D01*
X168996428Y-59824819D02*
X169091666Y-59824819D01*
X169091666Y-59824819D02*
X169234523Y-59872438D01*
X169234523Y-59872438D02*
X169282142Y-59920057D01*
X169663095Y-59920057D02*
X169710714Y-59872438D01*
X169710714Y-59872438D02*
X169805952Y-59824819D01*
X169805952Y-59824819D02*
X170044047Y-59824819D01*
X170044047Y-59824819D02*
X170139285Y-59872438D01*
X170139285Y-59872438D02*
X170186904Y-59920057D01*
X170186904Y-59920057D02*
X170234523Y-60015295D01*
X170234523Y-60015295D02*
X170234523Y-60110533D01*
X170234523Y-60110533D02*
X170186904Y-60253390D01*
X170186904Y-60253390D02*
X169615476Y-60824819D01*
X169615476Y-60824819D02*
X170234523Y-60824819D01*
X170567857Y-59824819D02*
X171186904Y-59824819D01*
X171186904Y-59824819D02*
X170853571Y-60205771D01*
X170853571Y-60205771D02*
X170996428Y-60205771D01*
X170996428Y-60205771D02*
X171091666Y-60253390D01*
X171091666Y-60253390D02*
X171139285Y-60301009D01*
X171139285Y-60301009D02*
X171186904Y-60396247D01*
X171186904Y-60396247D02*
X171186904Y-60634342D01*
X171186904Y-60634342D02*
X171139285Y-60729580D01*
X171139285Y-60729580D02*
X171091666Y-60777200D01*
X171091666Y-60777200D02*
X170996428Y-60824819D01*
X170996428Y-60824819D02*
X170710714Y-60824819D01*
X170710714Y-60824819D02*
X170615476Y-60777200D01*
X170615476Y-60777200D02*
X170567857Y-60729580D01*
X162370819Y-105641190D02*
X161894628Y-105974523D01*
X162370819Y-106212618D02*
X161370819Y-106212618D01*
X161370819Y-106212618D02*
X161370819Y-105831666D01*
X161370819Y-105831666D02*
X161418438Y-105736428D01*
X161418438Y-105736428D02*
X161466057Y-105688809D01*
X161466057Y-105688809D02*
X161561295Y-105641190D01*
X161561295Y-105641190D02*
X161704152Y-105641190D01*
X161704152Y-105641190D02*
X161799390Y-105688809D01*
X161799390Y-105688809D02*
X161847009Y-105736428D01*
X161847009Y-105736428D02*
X161894628Y-105831666D01*
X161894628Y-105831666D02*
X161894628Y-106212618D01*
X162370819Y-104736428D02*
X162370819Y-105212618D01*
X162370819Y-105212618D02*
X161370819Y-105212618D01*
X161370819Y-104545951D02*
X162370819Y-104212618D01*
X162370819Y-104212618D02*
X161370819Y-103879285D01*
X162370819Y-103545951D02*
X161370819Y-103545951D01*
X161370819Y-103545951D02*
X161370819Y-103307856D01*
X161370819Y-103307856D02*
X161418438Y-103164999D01*
X161418438Y-103164999D02*
X161513676Y-103069761D01*
X161513676Y-103069761D02*
X161608914Y-103022142D01*
X161608914Y-103022142D02*
X161799390Y-102974523D01*
X161799390Y-102974523D02*
X161942247Y-102974523D01*
X161942247Y-102974523D02*
X162132723Y-103022142D01*
X162132723Y-103022142D02*
X162227961Y-103069761D01*
X162227961Y-103069761D02*
X162323200Y-103164999D01*
X162323200Y-103164999D02*
X162370819Y-103307856D01*
X162370819Y-103307856D02*
X162370819Y-103545951D01*
X162323200Y-102593570D02*
X162370819Y-102450713D01*
X162370819Y-102450713D02*
X162370819Y-102212618D01*
X162370819Y-102212618D02*
X162323200Y-102117380D01*
X162323200Y-102117380D02*
X162275580Y-102069761D01*
X162275580Y-102069761D02*
X162180342Y-102022142D01*
X162180342Y-102022142D02*
X162085104Y-102022142D01*
X162085104Y-102022142D02*
X161989866Y-102069761D01*
X161989866Y-102069761D02*
X161942247Y-102117380D01*
X161942247Y-102117380D02*
X161894628Y-102212618D01*
X161894628Y-102212618D02*
X161847009Y-102403094D01*
X161847009Y-102403094D02*
X161799390Y-102498332D01*
X161799390Y-102498332D02*
X161751771Y-102545951D01*
X161751771Y-102545951D02*
X161656533Y-102593570D01*
X161656533Y-102593570D02*
X161561295Y-102593570D01*
X161561295Y-102593570D02*
X161466057Y-102545951D01*
X161466057Y-102545951D02*
X161418438Y-102498332D01*
X161418438Y-102498332D02*
X161370819Y-102403094D01*
X161370819Y-102403094D02*
X161370819Y-102164999D01*
X161370819Y-102164999D02*
X161418438Y-102022142D01*
X161799390Y-101450713D02*
X161751771Y-101545951D01*
X161751771Y-101545951D02*
X161704152Y-101593570D01*
X161704152Y-101593570D02*
X161608914Y-101641189D01*
X161608914Y-101641189D02*
X161561295Y-101641189D01*
X161561295Y-101641189D02*
X161466057Y-101593570D01*
X161466057Y-101593570D02*
X161418438Y-101545951D01*
X161418438Y-101545951D02*
X161370819Y-101450713D01*
X161370819Y-101450713D02*
X161370819Y-101260237D01*
X161370819Y-101260237D02*
X161418438Y-101164999D01*
X161418438Y-101164999D02*
X161466057Y-101117380D01*
X161466057Y-101117380D02*
X161561295Y-101069761D01*
X161561295Y-101069761D02*
X161608914Y-101069761D01*
X161608914Y-101069761D02*
X161704152Y-101117380D01*
X161704152Y-101117380D02*
X161751771Y-101164999D01*
X161751771Y-101164999D02*
X161799390Y-101260237D01*
X161799390Y-101260237D02*
X161799390Y-101450713D01*
X161799390Y-101450713D02*
X161847009Y-101545951D01*
X161847009Y-101545951D02*
X161894628Y-101593570D01*
X161894628Y-101593570D02*
X161989866Y-101641189D01*
X161989866Y-101641189D02*
X162180342Y-101641189D01*
X162180342Y-101641189D02*
X162275580Y-101593570D01*
X162275580Y-101593570D02*
X162323200Y-101545951D01*
X162323200Y-101545951D02*
X162370819Y-101450713D01*
X162370819Y-101450713D02*
X162370819Y-101260237D01*
X162370819Y-101260237D02*
X162323200Y-101164999D01*
X162323200Y-101164999D02*
X162275580Y-101117380D01*
X162275580Y-101117380D02*
X162180342Y-101069761D01*
X162180342Y-101069761D02*
X161989866Y-101069761D01*
X161989866Y-101069761D02*
X161894628Y-101117380D01*
X161894628Y-101117380D02*
X161847009Y-101164999D01*
X161847009Y-101164999D02*
X161799390Y-101260237D01*
X176132142Y-82529580D02*
X176084523Y-82577200D01*
X176084523Y-82577200D02*
X175941666Y-82624819D01*
X175941666Y-82624819D02*
X175846428Y-82624819D01*
X175846428Y-82624819D02*
X175703571Y-82577200D01*
X175703571Y-82577200D02*
X175608333Y-82481961D01*
X175608333Y-82481961D02*
X175560714Y-82386723D01*
X175560714Y-82386723D02*
X175513095Y-82196247D01*
X175513095Y-82196247D02*
X175513095Y-82053390D01*
X175513095Y-82053390D02*
X175560714Y-81862914D01*
X175560714Y-81862914D02*
X175608333Y-81767676D01*
X175608333Y-81767676D02*
X175703571Y-81672438D01*
X175703571Y-81672438D02*
X175846428Y-81624819D01*
X175846428Y-81624819D02*
X175941666Y-81624819D01*
X175941666Y-81624819D02*
X176084523Y-81672438D01*
X176084523Y-81672438D02*
X176132142Y-81720057D01*
X176989285Y-81624819D02*
X176798809Y-81624819D01*
X176798809Y-81624819D02*
X176703571Y-81672438D01*
X176703571Y-81672438D02*
X176655952Y-81720057D01*
X176655952Y-81720057D02*
X176560714Y-81862914D01*
X176560714Y-81862914D02*
X176513095Y-82053390D01*
X176513095Y-82053390D02*
X176513095Y-82434342D01*
X176513095Y-82434342D02*
X176560714Y-82529580D01*
X176560714Y-82529580D02*
X176608333Y-82577200D01*
X176608333Y-82577200D02*
X176703571Y-82624819D01*
X176703571Y-82624819D02*
X176894047Y-82624819D01*
X176894047Y-82624819D02*
X176989285Y-82577200D01*
X176989285Y-82577200D02*
X177036904Y-82529580D01*
X177036904Y-82529580D02*
X177084523Y-82434342D01*
X177084523Y-82434342D02*
X177084523Y-82196247D01*
X177084523Y-82196247D02*
X177036904Y-82101009D01*
X177036904Y-82101009D02*
X176989285Y-82053390D01*
X176989285Y-82053390D02*
X176894047Y-82005771D01*
X176894047Y-82005771D02*
X176703571Y-82005771D01*
X176703571Y-82005771D02*
X176608333Y-82053390D01*
X176608333Y-82053390D02*
X176560714Y-82101009D01*
X176560714Y-82101009D02*
X176513095Y-82196247D01*
X177941666Y-81958152D02*
X177941666Y-82624819D01*
X177703571Y-81577200D02*
X177465476Y-82291485D01*
X177465476Y-82291485D02*
X178084523Y-82291485D01*
X162370819Y-111841190D02*
X161894628Y-112174523D01*
X162370819Y-112412618D02*
X161370819Y-112412618D01*
X161370819Y-112412618D02*
X161370819Y-112031666D01*
X161370819Y-112031666D02*
X161418438Y-111936428D01*
X161418438Y-111936428D02*
X161466057Y-111888809D01*
X161466057Y-111888809D02*
X161561295Y-111841190D01*
X161561295Y-111841190D02*
X161704152Y-111841190D01*
X161704152Y-111841190D02*
X161799390Y-111888809D01*
X161799390Y-111888809D02*
X161847009Y-111936428D01*
X161847009Y-111936428D02*
X161894628Y-112031666D01*
X161894628Y-112031666D02*
X161894628Y-112412618D01*
X162370819Y-110936428D02*
X162370819Y-111412618D01*
X162370819Y-111412618D02*
X161370819Y-111412618D01*
X161370819Y-110745951D02*
X162370819Y-110412618D01*
X162370819Y-110412618D02*
X161370819Y-110079285D01*
X162370819Y-109745951D02*
X161370819Y-109745951D01*
X161370819Y-109745951D02*
X161370819Y-109507856D01*
X161370819Y-109507856D02*
X161418438Y-109364999D01*
X161418438Y-109364999D02*
X161513676Y-109269761D01*
X161513676Y-109269761D02*
X161608914Y-109222142D01*
X161608914Y-109222142D02*
X161799390Y-109174523D01*
X161799390Y-109174523D02*
X161942247Y-109174523D01*
X161942247Y-109174523D02*
X162132723Y-109222142D01*
X162132723Y-109222142D02*
X162227961Y-109269761D01*
X162227961Y-109269761D02*
X162323200Y-109364999D01*
X162323200Y-109364999D02*
X162370819Y-109507856D01*
X162370819Y-109507856D02*
X162370819Y-109745951D01*
X162323200Y-108793570D02*
X162370819Y-108650713D01*
X162370819Y-108650713D02*
X162370819Y-108412618D01*
X162370819Y-108412618D02*
X162323200Y-108317380D01*
X162323200Y-108317380D02*
X162275580Y-108269761D01*
X162275580Y-108269761D02*
X162180342Y-108222142D01*
X162180342Y-108222142D02*
X162085104Y-108222142D01*
X162085104Y-108222142D02*
X161989866Y-108269761D01*
X161989866Y-108269761D02*
X161942247Y-108317380D01*
X161942247Y-108317380D02*
X161894628Y-108412618D01*
X161894628Y-108412618D02*
X161847009Y-108603094D01*
X161847009Y-108603094D02*
X161799390Y-108698332D01*
X161799390Y-108698332D02*
X161751771Y-108745951D01*
X161751771Y-108745951D02*
X161656533Y-108793570D01*
X161656533Y-108793570D02*
X161561295Y-108793570D01*
X161561295Y-108793570D02*
X161466057Y-108745951D01*
X161466057Y-108745951D02*
X161418438Y-108698332D01*
X161418438Y-108698332D02*
X161370819Y-108603094D01*
X161370819Y-108603094D02*
X161370819Y-108364999D01*
X161370819Y-108364999D02*
X161418438Y-108222142D01*
X161370819Y-107364999D02*
X161370819Y-107555475D01*
X161370819Y-107555475D02*
X161418438Y-107650713D01*
X161418438Y-107650713D02*
X161466057Y-107698332D01*
X161466057Y-107698332D02*
X161608914Y-107793570D01*
X161608914Y-107793570D02*
X161799390Y-107841189D01*
X161799390Y-107841189D02*
X162180342Y-107841189D01*
X162180342Y-107841189D02*
X162275580Y-107793570D01*
X162275580Y-107793570D02*
X162323200Y-107745951D01*
X162323200Y-107745951D02*
X162370819Y-107650713D01*
X162370819Y-107650713D02*
X162370819Y-107460237D01*
X162370819Y-107460237D02*
X162323200Y-107364999D01*
X162323200Y-107364999D02*
X162275580Y-107317380D01*
X162275580Y-107317380D02*
X162180342Y-107269761D01*
X162180342Y-107269761D02*
X161942247Y-107269761D01*
X161942247Y-107269761D02*
X161847009Y-107317380D01*
X161847009Y-107317380D02*
X161799390Y-107364999D01*
X161799390Y-107364999D02*
X161751771Y-107460237D01*
X161751771Y-107460237D02*
X161751771Y-107650713D01*
X161751771Y-107650713D02*
X161799390Y-107745951D01*
X161799390Y-107745951D02*
X161847009Y-107793570D01*
X161847009Y-107793570D02*
X161942247Y-107841189D01*
D10*
X156418237Y-105759318D02*
X156418237Y-104489318D01*
X157748714Y-105638365D02*
X157688238Y-105698842D01*
X157688238Y-105698842D02*
X157506809Y-105759318D01*
X157506809Y-105759318D02*
X157385857Y-105759318D01*
X157385857Y-105759318D02*
X157204428Y-105698842D01*
X157204428Y-105698842D02*
X157083476Y-105577889D01*
X157083476Y-105577889D02*
X157022999Y-105456937D01*
X157022999Y-105456937D02*
X156962523Y-105215032D01*
X156962523Y-105215032D02*
X156962523Y-105033603D01*
X156962523Y-105033603D02*
X157022999Y-104791699D01*
X157022999Y-104791699D02*
X157083476Y-104670746D01*
X157083476Y-104670746D02*
X157204428Y-104549794D01*
X157204428Y-104549794D02*
X157385857Y-104489318D01*
X157385857Y-104489318D02*
X157506809Y-104489318D01*
X157506809Y-104489318D02*
X157688238Y-104549794D01*
X157688238Y-104549794D02*
X157748714Y-104610270D01*
X158353476Y-105759318D02*
X158595380Y-105759318D01*
X158595380Y-105759318D02*
X158716333Y-105698842D01*
X158716333Y-105698842D02*
X158776809Y-105638365D01*
X158776809Y-105638365D02*
X158897761Y-105456937D01*
X158897761Y-105456937D02*
X158958238Y-105215032D01*
X158958238Y-105215032D02*
X158958238Y-104731222D01*
X158958238Y-104731222D02*
X158897761Y-104610270D01*
X158897761Y-104610270D02*
X158837285Y-104549794D01*
X158837285Y-104549794D02*
X158716333Y-104489318D01*
X158716333Y-104489318D02*
X158474428Y-104489318D01*
X158474428Y-104489318D02*
X158353476Y-104549794D01*
X158353476Y-104549794D02*
X158292999Y-104610270D01*
X158292999Y-104610270D02*
X158232523Y-104731222D01*
X158232523Y-104731222D02*
X158232523Y-105033603D01*
X158232523Y-105033603D02*
X158292999Y-105154556D01*
X158292999Y-105154556D02*
X158353476Y-105215032D01*
X158353476Y-105215032D02*
X158474428Y-105275508D01*
X158474428Y-105275508D02*
X158716333Y-105275508D01*
X158716333Y-105275508D02*
X158837285Y-105215032D01*
X158837285Y-105215032D02*
X158897761Y-105154556D01*
X158897761Y-105154556D02*
X158958238Y-105033603D01*
D11*
X162250819Y-102556190D02*
X161774628Y-102889523D01*
X162250819Y-103127618D02*
X161250819Y-103127618D01*
X161250819Y-103127618D02*
X161250819Y-102746666D01*
X161250819Y-102746666D02*
X161298438Y-102651428D01*
X161298438Y-102651428D02*
X161346057Y-102603809D01*
X161346057Y-102603809D02*
X161441295Y-102556190D01*
X161441295Y-102556190D02*
X161584152Y-102556190D01*
X161584152Y-102556190D02*
X161679390Y-102603809D01*
X161679390Y-102603809D02*
X161727009Y-102651428D01*
X161727009Y-102651428D02*
X161774628Y-102746666D01*
X161774628Y-102746666D02*
X161774628Y-103127618D01*
X162250819Y-101651428D02*
X162250819Y-102127618D01*
X162250819Y-102127618D02*
X161250819Y-102127618D01*
X161250819Y-101460951D02*
X162250819Y-101127618D01*
X162250819Y-101127618D02*
X161250819Y-100794285D01*
X162250819Y-100460951D02*
X161250819Y-100460951D01*
X161250819Y-100460951D02*
X161250819Y-100222856D01*
X161250819Y-100222856D02*
X161298438Y-100079999D01*
X161298438Y-100079999D02*
X161393676Y-99984761D01*
X161393676Y-99984761D02*
X161488914Y-99937142D01*
X161488914Y-99937142D02*
X161679390Y-99889523D01*
X161679390Y-99889523D02*
X161822247Y-99889523D01*
X161822247Y-99889523D02*
X162012723Y-99937142D01*
X162012723Y-99937142D02*
X162107961Y-99984761D01*
X162107961Y-99984761D02*
X162203200Y-100079999D01*
X162203200Y-100079999D02*
X162250819Y-100222856D01*
X162250819Y-100222856D02*
X162250819Y-100460951D01*
X162203200Y-99508570D02*
X162250819Y-99365713D01*
X162250819Y-99365713D02*
X162250819Y-99127618D01*
X162250819Y-99127618D02*
X162203200Y-99032380D01*
X162203200Y-99032380D02*
X162155580Y-98984761D01*
X162155580Y-98984761D02*
X162060342Y-98937142D01*
X162060342Y-98937142D02*
X161965104Y-98937142D01*
X161965104Y-98937142D02*
X161869866Y-98984761D01*
X161869866Y-98984761D02*
X161822247Y-99032380D01*
X161822247Y-99032380D02*
X161774628Y-99127618D01*
X161774628Y-99127618D02*
X161727009Y-99318094D01*
X161727009Y-99318094D02*
X161679390Y-99413332D01*
X161679390Y-99413332D02*
X161631771Y-99460951D01*
X161631771Y-99460951D02*
X161536533Y-99508570D01*
X161536533Y-99508570D02*
X161441295Y-99508570D01*
X161441295Y-99508570D02*
X161346057Y-99460951D01*
X161346057Y-99460951D02*
X161298438Y-99413332D01*
X161298438Y-99413332D02*
X161250819Y-99318094D01*
X161250819Y-99318094D02*
X161250819Y-99079999D01*
X161250819Y-99079999D02*
X161298438Y-98937142D01*
X162250819Y-98460951D02*
X162250819Y-98270475D01*
X162250819Y-98270475D02*
X162203200Y-98175237D01*
X162203200Y-98175237D02*
X162155580Y-98127618D01*
X162155580Y-98127618D02*
X162012723Y-98032380D01*
X162012723Y-98032380D02*
X161822247Y-97984761D01*
X161822247Y-97984761D02*
X161441295Y-97984761D01*
X161441295Y-97984761D02*
X161346057Y-98032380D01*
X161346057Y-98032380D02*
X161298438Y-98079999D01*
X161298438Y-98079999D02*
X161250819Y-98175237D01*
X161250819Y-98175237D02*
X161250819Y-98365713D01*
X161250819Y-98365713D02*
X161298438Y-98460951D01*
X161298438Y-98460951D02*
X161346057Y-98508570D01*
X161346057Y-98508570D02*
X161441295Y-98556189D01*
X161441295Y-98556189D02*
X161679390Y-98556189D01*
X161679390Y-98556189D02*
X161774628Y-98508570D01*
X161774628Y-98508570D02*
X161822247Y-98460951D01*
X161822247Y-98460951D02*
X161869866Y-98365713D01*
X161869866Y-98365713D02*
X161869866Y-98175237D01*
X161869866Y-98175237D02*
X161822247Y-98079999D01*
X161822247Y-98079999D02*
X161774628Y-98032380D01*
X161774628Y-98032380D02*
X161679390Y-97984761D01*
X129959580Y-55642857D02*
X130007200Y-55690476D01*
X130007200Y-55690476D02*
X130054819Y-55833333D01*
X130054819Y-55833333D02*
X130054819Y-55928571D01*
X130054819Y-55928571D02*
X130007200Y-56071428D01*
X130007200Y-56071428D02*
X129911961Y-56166666D01*
X129911961Y-56166666D02*
X129816723Y-56214285D01*
X129816723Y-56214285D02*
X129626247Y-56261904D01*
X129626247Y-56261904D02*
X129483390Y-56261904D01*
X129483390Y-56261904D02*
X129292914Y-56214285D01*
X129292914Y-56214285D02*
X129197676Y-56166666D01*
X129197676Y-56166666D02*
X129102438Y-56071428D01*
X129102438Y-56071428D02*
X129054819Y-55928571D01*
X129054819Y-55928571D02*
X129054819Y-55833333D01*
X129054819Y-55833333D02*
X129102438Y-55690476D01*
X129102438Y-55690476D02*
X129150057Y-55642857D01*
X129150057Y-55261904D02*
X129102438Y-55214285D01*
X129102438Y-55214285D02*
X129054819Y-55119047D01*
X129054819Y-55119047D02*
X129054819Y-54880952D01*
X129054819Y-54880952D02*
X129102438Y-54785714D01*
X129102438Y-54785714D02*
X129150057Y-54738095D01*
X129150057Y-54738095D02*
X129245295Y-54690476D01*
X129245295Y-54690476D02*
X129340533Y-54690476D01*
X129340533Y-54690476D02*
X129483390Y-54738095D01*
X129483390Y-54738095D02*
X130054819Y-55309523D01*
X130054819Y-55309523D02*
X130054819Y-54690476D01*
X129150057Y-54309523D02*
X129102438Y-54261904D01*
X129102438Y-54261904D02*
X129054819Y-54166666D01*
X129054819Y-54166666D02*
X129054819Y-53928571D01*
X129054819Y-53928571D02*
X129102438Y-53833333D01*
X129102438Y-53833333D02*
X129150057Y-53785714D01*
X129150057Y-53785714D02*
X129245295Y-53738095D01*
X129245295Y-53738095D02*
X129340533Y-53738095D01*
X129340533Y-53738095D02*
X129483390Y-53785714D01*
X129483390Y-53785714D02*
X130054819Y-54357142D01*
X130054819Y-54357142D02*
X130054819Y-53738095D01*
D10*
X143574318Y-109239762D02*
X142304318Y-109239762D01*
X143453365Y-107909285D02*
X143513842Y-107969761D01*
X143513842Y-107969761D02*
X143574318Y-108151190D01*
X143574318Y-108151190D02*
X143574318Y-108272142D01*
X143574318Y-108272142D02*
X143513842Y-108453571D01*
X143513842Y-108453571D02*
X143392889Y-108574523D01*
X143392889Y-108574523D02*
X143271937Y-108635000D01*
X143271937Y-108635000D02*
X143030032Y-108695476D01*
X143030032Y-108695476D02*
X142848603Y-108695476D01*
X142848603Y-108695476D02*
X142606699Y-108635000D01*
X142606699Y-108635000D02*
X142485746Y-108574523D01*
X142485746Y-108574523D02*
X142364794Y-108453571D01*
X142364794Y-108453571D02*
X142304318Y-108272142D01*
X142304318Y-108272142D02*
X142304318Y-108151190D01*
X142304318Y-108151190D02*
X142364794Y-107969761D01*
X142364794Y-107969761D02*
X142425270Y-107909285D01*
X142304318Y-106820714D02*
X142304318Y-107062619D01*
X142304318Y-107062619D02*
X142364794Y-107183571D01*
X142364794Y-107183571D02*
X142425270Y-107244047D01*
X142425270Y-107244047D02*
X142606699Y-107365000D01*
X142606699Y-107365000D02*
X142848603Y-107425476D01*
X142848603Y-107425476D02*
X143332413Y-107425476D01*
X143332413Y-107425476D02*
X143453365Y-107365000D01*
X143453365Y-107365000D02*
X143513842Y-107304523D01*
X143513842Y-107304523D02*
X143574318Y-107183571D01*
X143574318Y-107183571D02*
X143574318Y-106941666D01*
X143574318Y-106941666D02*
X143513842Y-106820714D01*
X143513842Y-106820714D02*
X143453365Y-106760238D01*
X143453365Y-106760238D02*
X143332413Y-106699761D01*
X143332413Y-106699761D02*
X143030032Y-106699761D01*
X143030032Y-106699761D02*
X142909080Y-106760238D01*
X142909080Y-106760238D02*
X142848603Y-106820714D01*
X142848603Y-106820714D02*
X142788127Y-106941666D01*
X142788127Y-106941666D02*
X142788127Y-107183571D01*
X142788127Y-107183571D02*
X142848603Y-107304523D01*
X142848603Y-107304523D02*
X142909080Y-107365000D01*
X142909080Y-107365000D02*
X143030032Y-107425476D01*
D11*
X154659580Y-71332142D02*
X154707200Y-71379761D01*
X154707200Y-71379761D02*
X154754819Y-71522618D01*
X154754819Y-71522618D02*
X154754819Y-71617856D01*
X154754819Y-71617856D02*
X154707200Y-71760713D01*
X154707200Y-71760713D02*
X154611961Y-71855951D01*
X154611961Y-71855951D02*
X154516723Y-71903570D01*
X154516723Y-71903570D02*
X154326247Y-71951189D01*
X154326247Y-71951189D02*
X154183390Y-71951189D01*
X154183390Y-71951189D02*
X153992914Y-71903570D01*
X153992914Y-71903570D02*
X153897676Y-71855951D01*
X153897676Y-71855951D02*
X153802438Y-71760713D01*
X153802438Y-71760713D02*
X153754819Y-71617856D01*
X153754819Y-71617856D02*
X153754819Y-71522618D01*
X153754819Y-71522618D02*
X153802438Y-71379761D01*
X153802438Y-71379761D02*
X153850057Y-71332142D01*
X154754819Y-70903570D02*
X154088152Y-70903570D01*
X153754819Y-70903570D02*
X153802438Y-70951189D01*
X153802438Y-70951189D02*
X153850057Y-70903570D01*
X153850057Y-70903570D02*
X153802438Y-70855951D01*
X153802438Y-70855951D02*
X153754819Y-70903570D01*
X153754819Y-70903570D02*
X153850057Y-70903570D01*
X154088152Y-70427380D02*
X154754819Y-70427380D01*
X154183390Y-70427380D02*
X154135771Y-70379761D01*
X154135771Y-70379761D02*
X154088152Y-70284523D01*
X154088152Y-70284523D02*
X154088152Y-70141666D01*
X154088152Y-70141666D02*
X154135771Y-70046428D01*
X154135771Y-70046428D02*
X154231009Y-69998809D01*
X154231009Y-69998809D02*
X154754819Y-69998809D01*
X153850057Y-69570237D02*
X153802438Y-69522618D01*
X153802438Y-69522618D02*
X153754819Y-69427380D01*
X153754819Y-69427380D02*
X153754819Y-69189285D01*
X153754819Y-69189285D02*
X153802438Y-69094047D01*
X153802438Y-69094047D02*
X153850057Y-69046428D01*
X153850057Y-69046428D02*
X153945295Y-68998809D01*
X153945295Y-68998809D02*
X154040533Y-68998809D01*
X154040533Y-68998809D02*
X154183390Y-69046428D01*
X154183390Y-69046428D02*
X154754819Y-69617856D01*
X154754819Y-69617856D02*
X154754819Y-68998809D01*
D10*
X156380237Y-118194318D02*
X156380237Y-116924318D01*
X157710714Y-118073365D02*
X157650238Y-118133842D01*
X157650238Y-118133842D02*
X157468809Y-118194318D01*
X157468809Y-118194318D02*
X157347857Y-118194318D01*
X157347857Y-118194318D02*
X157166428Y-118133842D01*
X157166428Y-118133842D02*
X157045476Y-118012889D01*
X157045476Y-118012889D02*
X156984999Y-117891937D01*
X156984999Y-117891937D02*
X156924523Y-117650032D01*
X156924523Y-117650032D02*
X156924523Y-117468603D01*
X156924523Y-117468603D02*
X156984999Y-117226699D01*
X156984999Y-117226699D02*
X157045476Y-117105746D01*
X157045476Y-117105746D02*
X157166428Y-116984794D01*
X157166428Y-116984794D02*
X157347857Y-116924318D01*
X157347857Y-116924318D02*
X157468809Y-116924318D01*
X157468809Y-116924318D02*
X157650238Y-116984794D01*
X157650238Y-116984794D02*
X157710714Y-117045270D01*
X158436428Y-117468603D02*
X158315476Y-117408127D01*
X158315476Y-117408127D02*
X158254999Y-117347651D01*
X158254999Y-117347651D02*
X158194523Y-117226699D01*
X158194523Y-117226699D02*
X158194523Y-117166222D01*
X158194523Y-117166222D02*
X158254999Y-117045270D01*
X158254999Y-117045270D02*
X158315476Y-116984794D01*
X158315476Y-116984794D02*
X158436428Y-116924318D01*
X158436428Y-116924318D02*
X158678333Y-116924318D01*
X158678333Y-116924318D02*
X158799285Y-116984794D01*
X158799285Y-116984794D02*
X158859761Y-117045270D01*
X158859761Y-117045270D02*
X158920238Y-117166222D01*
X158920238Y-117166222D02*
X158920238Y-117226699D01*
X158920238Y-117226699D02*
X158859761Y-117347651D01*
X158859761Y-117347651D02*
X158799285Y-117408127D01*
X158799285Y-117408127D02*
X158678333Y-117468603D01*
X158678333Y-117468603D02*
X158436428Y-117468603D01*
X158436428Y-117468603D02*
X158315476Y-117529080D01*
X158315476Y-117529080D02*
X158254999Y-117589556D01*
X158254999Y-117589556D02*
X158194523Y-117710508D01*
X158194523Y-117710508D02*
X158194523Y-117952413D01*
X158194523Y-117952413D02*
X158254999Y-118073365D01*
X158254999Y-118073365D02*
X158315476Y-118133842D01*
X158315476Y-118133842D02*
X158436428Y-118194318D01*
X158436428Y-118194318D02*
X158678333Y-118194318D01*
X158678333Y-118194318D02*
X158799285Y-118133842D01*
X158799285Y-118133842D02*
X158859761Y-118073365D01*
X158859761Y-118073365D02*
X158920238Y-117952413D01*
X158920238Y-117952413D02*
X158920238Y-117710508D01*
X158920238Y-117710508D02*
X158859761Y-117589556D01*
X158859761Y-117589556D02*
X158799285Y-117529080D01*
X158799285Y-117529080D02*
X158678333Y-117468603D01*
D11*
X131789580Y-107592857D02*
X131837200Y-107640476D01*
X131837200Y-107640476D02*
X131884819Y-107783333D01*
X131884819Y-107783333D02*
X131884819Y-107878571D01*
X131884819Y-107878571D02*
X131837200Y-108021428D01*
X131837200Y-108021428D02*
X131741961Y-108116666D01*
X131741961Y-108116666D02*
X131646723Y-108164285D01*
X131646723Y-108164285D02*
X131456247Y-108211904D01*
X131456247Y-108211904D02*
X131313390Y-108211904D01*
X131313390Y-108211904D02*
X131122914Y-108164285D01*
X131122914Y-108164285D02*
X131027676Y-108116666D01*
X131027676Y-108116666D02*
X130932438Y-108021428D01*
X130932438Y-108021428D02*
X130884819Y-107878571D01*
X130884819Y-107878571D02*
X130884819Y-107783333D01*
X130884819Y-107783333D02*
X130932438Y-107640476D01*
X130932438Y-107640476D02*
X130980057Y-107592857D01*
X131218152Y-106735714D02*
X131884819Y-106735714D01*
X130837200Y-106973809D02*
X131551485Y-107211904D01*
X131551485Y-107211904D02*
X131551485Y-106592857D01*
X130884819Y-106021428D02*
X130884819Y-105926190D01*
X130884819Y-105926190D02*
X130932438Y-105830952D01*
X130932438Y-105830952D02*
X130980057Y-105783333D01*
X130980057Y-105783333D02*
X131075295Y-105735714D01*
X131075295Y-105735714D02*
X131265771Y-105688095D01*
X131265771Y-105688095D02*
X131503866Y-105688095D01*
X131503866Y-105688095D02*
X131694342Y-105735714D01*
X131694342Y-105735714D02*
X131789580Y-105783333D01*
X131789580Y-105783333D02*
X131837200Y-105830952D01*
X131837200Y-105830952D02*
X131884819Y-105926190D01*
X131884819Y-105926190D02*
X131884819Y-106021428D01*
X131884819Y-106021428D02*
X131837200Y-106116666D01*
X131837200Y-106116666D02*
X131789580Y-106164285D01*
X131789580Y-106164285D02*
X131694342Y-106211904D01*
X131694342Y-106211904D02*
X131503866Y-106259523D01*
X131503866Y-106259523D02*
X131265771Y-106259523D01*
X131265771Y-106259523D02*
X131075295Y-106211904D01*
X131075295Y-106211904D02*
X130980057Y-106164285D01*
X130980057Y-106164285D02*
X130932438Y-106116666D01*
X130932438Y-106116666D02*
X130884819Y-106021428D01*
X181684819Y-59448809D02*
X181208628Y-59782142D01*
X181684819Y-60020237D02*
X180684819Y-60020237D01*
X180684819Y-60020237D02*
X180684819Y-59639285D01*
X180684819Y-59639285D02*
X180732438Y-59544047D01*
X180732438Y-59544047D02*
X180780057Y-59496428D01*
X180780057Y-59496428D02*
X180875295Y-59448809D01*
X180875295Y-59448809D02*
X181018152Y-59448809D01*
X181018152Y-59448809D02*
X181113390Y-59496428D01*
X181113390Y-59496428D02*
X181161009Y-59544047D01*
X181161009Y-59544047D02*
X181208628Y-59639285D01*
X181208628Y-59639285D02*
X181208628Y-60020237D01*
X181684819Y-59020237D02*
X180684819Y-59020237D01*
X180684819Y-59020237D02*
X180684819Y-58639285D01*
X180684819Y-58639285D02*
X180732438Y-58544047D01*
X180732438Y-58544047D02*
X180780057Y-58496428D01*
X180780057Y-58496428D02*
X180875295Y-58448809D01*
X180875295Y-58448809D02*
X181018152Y-58448809D01*
X181018152Y-58448809D02*
X181113390Y-58496428D01*
X181113390Y-58496428D02*
X181161009Y-58544047D01*
X181161009Y-58544047D02*
X181208628Y-58639285D01*
X181208628Y-58639285D02*
X181208628Y-59020237D01*
X180780057Y-58067856D02*
X180732438Y-58020237D01*
X180732438Y-58020237D02*
X180684819Y-57924999D01*
X180684819Y-57924999D02*
X180684819Y-57686904D01*
X180684819Y-57686904D02*
X180732438Y-57591666D01*
X180732438Y-57591666D02*
X180780057Y-57544047D01*
X180780057Y-57544047D02*
X180875295Y-57496428D01*
X180875295Y-57496428D02*
X180970533Y-57496428D01*
X180970533Y-57496428D02*
X181113390Y-57544047D01*
X181113390Y-57544047D02*
X181684819Y-58115475D01*
X181684819Y-58115475D02*
X181684819Y-57496428D01*
X181780057Y-57305952D02*
X181780057Y-56544047D01*
X181684819Y-55782142D02*
X181684819Y-56353570D01*
X181684819Y-56067856D02*
X180684819Y-56067856D01*
X180684819Y-56067856D02*
X180827676Y-56163094D01*
X180827676Y-56163094D02*
X180922914Y-56258332D01*
X180922914Y-56258332D02*
X180970533Y-56353570D01*
D10*
X155801475Y-94604318D02*
X155801475Y-93334318D01*
X157131952Y-94483365D02*
X157071476Y-94543842D01*
X157071476Y-94543842D02*
X156890047Y-94604318D01*
X156890047Y-94604318D02*
X156769095Y-94604318D01*
X156769095Y-94604318D02*
X156587666Y-94543842D01*
X156587666Y-94543842D02*
X156466714Y-94422889D01*
X156466714Y-94422889D02*
X156406237Y-94301937D01*
X156406237Y-94301937D02*
X156345761Y-94060032D01*
X156345761Y-94060032D02*
X156345761Y-93878603D01*
X156345761Y-93878603D02*
X156406237Y-93636699D01*
X156406237Y-93636699D02*
X156466714Y-93515746D01*
X156466714Y-93515746D02*
X156587666Y-93394794D01*
X156587666Y-93394794D02*
X156769095Y-93334318D01*
X156769095Y-93334318D02*
X156890047Y-93334318D01*
X156890047Y-93334318D02*
X157071476Y-93394794D01*
X157071476Y-93394794D02*
X157131952Y-93455270D01*
X158341476Y-94604318D02*
X157615761Y-94604318D01*
X157978618Y-94604318D02*
X157978618Y-93334318D01*
X157978618Y-93334318D02*
X157857666Y-93515746D01*
X157857666Y-93515746D02*
X157736714Y-93636699D01*
X157736714Y-93636699D02*
X157615761Y-93697175D01*
X159127666Y-93334318D02*
X159248619Y-93334318D01*
X159248619Y-93334318D02*
X159369571Y-93394794D01*
X159369571Y-93394794D02*
X159430047Y-93455270D01*
X159430047Y-93455270D02*
X159490523Y-93576222D01*
X159490523Y-93576222D02*
X159551000Y-93818127D01*
X159551000Y-93818127D02*
X159551000Y-94120508D01*
X159551000Y-94120508D02*
X159490523Y-94362413D01*
X159490523Y-94362413D02*
X159430047Y-94483365D01*
X159430047Y-94483365D02*
X159369571Y-94543842D01*
X159369571Y-94543842D02*
X159248619Y-94604318D01*
X159248619Y-94604318D02*
X159127666Y-94604318D01*
X159127666Y-94604318D02*
X159006714Y-94543842D01*
X159006714Y-94543842D02*
X158946238Y-94483365D01*
X158946238Y-94483365D02*
X158885761Y-94362413D01*
X158885761Y-94362413D02*
X158825285Y-94120508D01*
X158825285Y-94120508D02*
X158825285Y-93818127D01*
X158825285Y-93818127D02*
X158885761Y-93576222D01*
X158885761Y-93576222D02*
X158946238Y-93455270D01*
X158946238Y-93455270D02*
X159006714Y-93394794D01*
X159006714Y-93394794D02*
X159127666Y-93334318D01*
D11*
X181684819Y-67223809D02*
X181208628Y-67557142D01*
X181684819Y-67795237D02*
X180684819Y-67795237D01*
X180684819Y-67795237D02*
X180684819Y-67414285D01*
X180684819Y-67414285D02*
X180732438Y-67319047D01*
X180732438Y-67319047D02*
X180780057Y-67271428D01*
X180780057Y-67271428D02*
X180875295Y-67223809D01*
X180875295Y-67223809D02*
X181018152Y-67223809D01*
X181018152Y-67223809D02*
X181113390Y-67271428D01*
X181113390Y-67271428D02*
X181161009Y-67319047D01*
X181161009Y-67319047D02*
X181208628Y-67414285D01*
X181208628Y-67414285D02*
X181208628Y-67795237D01*
X181684819Y-66795237D02*
X180684819Y-66795237D01*
X180684819Y-66795237D02*
X180684819Y-66414285D01*
X180684819Y-66414285D02*
X180732438Y-66319047D01*
X180732438Y-66319047D02*
X180780057Y-66271428D01*
X180780057Y-66271428D02*
X180875295Y-66223809D01*
X180875295Y-66223809D02*
X181018152Y-66223809D01*
X181018152Y-66223809D02*
X181113390Y-66271428D01*
X181113390Y-66271428D02*
X181161009Y-66319047D01*
X181161009Y-66319047D02*
X181208628Y-66414285D01*
X181208628Y-66414285D02*
X181208628Y-66795237D01*
X180684819Y-65890475D02*
X180684819Y-65271428D01*
X180684819Y-65271428D02*
X181065771Y-65604761D01*
X181065771Y-65604761D02*
X181065771Y-65461904D01*
X181065771Y-65461904D02*
X181113390Y-65366666D01*
X181113390Y-65366666D02*
X181161009Y-65319047D01*
X181161009Y-65319047D02*
X181256247Y-65271428D01*
X181256247Y-65271428D02*
X181494342Y-65271428D01*
X181494342Y-65271428D02*
X181589580Y-65319047D01*
X181589580Y-65319047D02*
X181637200Y-65366666D01*
X181637200Y-65366666D02*
X181684819Y-65461904D01*
X181684819Y-65461904D02*
X181684819Y-65747618D01*
X181684819Y-65747618D02*
X181637200Y-65842856D01*
X181637200Y-65842856D02*
X181589580Y-65890475D01*
X181780057Y-65080952D02*
X181780057Y-64319047D01*
X181684819Y-63557142D02*
X181684819Y-64128570D01*
X181684819Y-63842856D02*
X180684819Y-63842856D01*
X180684819Y-63842856D02*
X180827676Y-63938094D01*
X180827676Y-63938094D02*
X180922914Y-64033332D01*
X180922914Y-64033332D02*
X180970533Y-64128570D01*
X137241905Y-69984819D02*
X137241905Y-68984819D01*
X137241905Y-68984819D02*
X137480000Y-68984819D01*
X137480000Y-68984819D02*
X137622857Y-69032438D01*
X137622857Y-69032438D02*
X137718095Y-69127676D01*
X137718095Y-69127676D02*
X137765714Y-69222914D01*
X137765714Y-69222914D02*
X137813333Y-69413390D01*
X137813333Y-69413390D02*
X137813333Y-69556247D01*
X137813333Y-69556247D02*
X137765714Y-69746723D01*
X137765714Y-69746723D02*
X137718095Y-69841961D01*
X137718095Y-69841961D02*
X137622857Y-69937200D01*
X137622857Y-69937200D02*
X137480000Y-69984819D01*
X137480000Y-69984819D02*
X137241905Y-69984819D01*
X138765714Y-69984819D02*
X138194286Y-69984819D01*
X138480000Y-69984819D02*
X138480000Y-68984819D01*
X138480000Y-68984819D02*
X138384762Y-69127676D01*
X138384762Y-69127676D02*
X138289524Y-69222914D01*
X138289524Y-69222914D02*
X138194286Y-69270533D01*
X132638095Y-70354819D02*
X132638095Y-69354819D01*
X133209523Y-70354819D02*
X132780952Y-69783390D01*
X133209523Y-69354819D02*
X132638095Y-69926247D01*
X168882142Y-68629580D02*
X168834523Y-68677200D01*
X168834523Y-68677200D02*
X168691666Y-68724819D01*
X168691666Y-68724819D02*
X168596428Y-68724819D01*
X168596428Y-68724819D02*
X168453571Y-68677200D01*
X168453571Y-68677200D02*
X168358333Y-68581961D01*
X168358333Y-68581961D02*
X168310714Y-68486723D01*
X168310714Y-68486723D02*
X168263095Y-68296247D01*
X168263095Y-68296247D02*
X168263095Y-68153390D01*
X168263095Y-68153390D02*
X168310714Y-67962914D01*
X168310714Y-67962914D02*
X168358333Y-67867676D01*
X168358333Y-67867676D02*
X168453571Y-67772438D01*
X168453571Y-67772438D02*
X168596428Y-67724819D01*
X168596428Y-67724819D02*
X168691666Y-67724819D01*
X168691666Y-67724819D02*
X168834523Y-67772438D01*
X168834523Y-67772438D02*
X168882142Y-67820057D01*
X169263095Y-67820057D02*
X169310714Y-67772438D01*
X169310714Y-67772438D02*
X169405952Y-67724819D01*
X169405952Y-67724819D02*
X169644047Y-67724819D01*
X169644047Y-67724819D02*
X169739285Y-67772438D01*
X169739285Y-67772438D02*
X169786904Y-67820057D01*
X169786904Y-67820057D02*
X169834523Y-67915295D01*
X169834523Y-67915295D02*
X169834523Y-68010533D01*
X169834523Y-68010533D02*
X169786904Y-68153390D01*
X169786904Y-68153390D02*
X169215476Y-68724819D01*
X169215476Y-68724819D02*
X169834523Y-68724819D01*
X170691666Y-68058152D02*
X170691666Y-68724819D01*
X170453571Y-67677200D02*
X170215476Y-68391485D01*
X170215476Y-68391485D02*
X170834523Y-68391485D01*
X142802819Y-121038094D02*
X143802819Y-120371428D01*
X142802819Y-120371428D02*
X143802819Y-121038094D01*
X143802819Y-119419047D02*
X143326628Y-119752380D01*
X143802819Y-119990475D02*
X142802819Y-119990475D01*
X142802819Y-119990475D02*
X142802819Y-119609523D01*
X142802819Y-119609523D02*
X142850438Y-119514285D01*
X142850438Y-119514285D02*
X142898057Y-119466666D01*
X142898057Y-119466666D02*
X142993295Y-119419047D01*
X142993295Y-119419047D02*
X143136152Y-119419047D01*
X143136152Y-119419047D02*
X143231390Y-119466666D01*
X143231390Y-119466666D02*
X143279009Y-119514285D01*
X143279009Y-119514285D02*
X143326628Y-119609523D01*
X143326628Y-119609523D02*
X143326628Y-119990475D01*
X143279009Y-118990475D02*
X143279009Y-118657142D01*
X143802819Y-118514285D02*
X143802819Y-118990475D01*
X143802819Y-118990475D02*
X142802819Y-118990475D01*
X142802819Y-118990475D02*
X142802819Y-118514285D01*
X143755200Y-118133332D02*
X143802819Y-117990475D01*
X143802819Y-117990475D02*
X143802819Y-117752380D01*
X143802819Y-117752380D02*
X143755200Y-117657142D01*
X143755200Y-117657142D02*
X143707580Y-117609523D01*
X143707580Y-117609523D02*
X143612342Y-117561904D01*
X143612342Y-117561904D02*
X143517104Y-117561904D01*
X143517104Y-117561904D02*
X143421866Y-117609523D01*
X143421866Y-117609523D02*
X143374247Y-117657142D01*
X143374247Y-117657142D02*
X143326628Y-117752380D01*
X143326628Y-117752380D02*
X143279009Y-117942856D01*
X143279009Y-117942856D02*
X143231390Y-118038094D01*
X143231390Y-118038094D02*
X143183771Y-118085713D01*
X143183771Y-118085713D02*
X143088533Y-118133332D01*
X143088533Y-118133332D02*
X142993295Y-118133332D01*
X142993295Y-118133332D02*
X142898057Y-118085713D01*
X142898057Y-118085713D02*
X142850438Y-118038094D01*
X142850438Y-118038094D02*
X142802819Y-117942856D01*
X142802819Y-117942856D02*
X142802819Y-117704761D01*
X142802819Y-117704761D02*
X142850438Y-117561904D01*
X143802819Y-116609523D02*
X143802819Y-117180951D01*
X143802819Y-116895237D02*
X142802819Y-116895237D01*
X142802819Y-116895237D02*
X142945676Y-116990475D01*
X142945676Y-116990475D02*
X143040914Y-117085713D01*
X143040914Y-117085713D02*
X143088533Y-117180951D01*
X184989580Y-58542857D02*
X185037200Y-58590476D01*
X185037200Y-58590476D02*
X185084819Y-58733333D01*
X185084819Y-58733333D02*
X185084819Y-58828571D01*
X185084819Y-58828571D02*
X185037200Y-58971428D01*
X185037200Y-58971428D02*
X184941961Y-59066666D01*
X184941961Y-59066666D02*
X184846723Y-59114285D01*
X184846723Y-59114285D02*
X184656247Y-59161904D01*
X184656247Y-59161904D02*
X184513390Y-59161904D01*
X184513390Y-59161904D02*
X184322914Y-59114285D01*
X184322914Y-59114285D02*
X184227676Y-59066666D01*
X184227676Y-59066666D02*
X184132438Y-58971428D01*
X184132438Y-58971428D02*
X184084819Y-58828571D01*
X184084819Y-58828571D02*
X184084819Y-58733333D01*
X184084819Y-58733333D02*
X184132438Y-58590476D01*
X184132438Y-58590476D02*
X184180057Y-58542857D01*
X184180057Y-58161904D02*
X184132438Y-58114285D01*
X184132438Y-58114285D02*
X184084819Y-58019047D01*
X184084819Y-58019047D02*
X184084819Y-57780952D01*
X184084819Y-57780952D02*
X184132438Y-57685714D01*
X184132438Y-57685714D02*
X184180057Y-57638095D01*
X184180057Y-57638095D02*
X184275295Y-57590476D01*
X184275295Y-57590476D02*
X184370533Y-57590476D01*
X184370533Y-57590476D02*
X184513390Y-57638095D01*
X184513390Y-57638095D02*
X185084819Y-58209523D01*
X185084819Y-58209523D02*
X185084819Y-57590476D01*
X184084819Y-56685714D02*
X184084819Y-57161904D01*
X184084819Y-57161904D02*
X184561009Y-57209523D01*
X184561009Y-57209523D02*
X184513390Y-57161904D01*
X184513390Y-57161904D02*
X184465771Y-57066666D01*
X184465771Y-57066666D02*
X184465771Y-56828571D01*
X184465771Y-56828571D02*
X184513390Y-56733333D01*
X184513390Y-56733333D02*
X184561009Y-56685714D01*
X184561009Y-56685714D02*
X184656247Y-56638095D01*
X184656247Y-56638095D02*
X184894342Y-56638095D01*
X184894342Y-56638095D02*
X184989580Y-56685714D01*
X184989580Y-56685714D02*
X185037200Y-56733333D01*
X185037200Y-56733333D02*
X185084819Y-56828571D01*
X185084819Y-56828571D02*
X185084819Y-57066666D01*
X185084819Y-57066666D02*
X185037200Y-57161904D01*
X185037200Y-57161904D02*
X184989580Y-57209523D01*
X162356819Y-124246190D02*
X161880628Y-124579523D01*
X162356819Y-124817618D02*
X161356819Y-124817618D01*
X161356819Y-124817618D02*
X161356819Y-124436666D01*
X161356819Y-124436666D02*
X161404438Y-124341428D01*
X161404438Y-124341428D02*
X161452057Y-124293809D01*
X161452057Y-124293809D02*
X161547295Y-124246190D01*
X161547295Y-124246190D02*
X161690152Y-124246190D01*
X161690152Y-124246190D02*
X161785390Y-124293809D01*
X161785390Y-124293809D02*
X161833009Y-124341428D01*
X161833009Y-124341428D02*
X161880628Y-124436666D01*
X161880628Y-124436666D02*
X161880628Y-124817618D01*
X162356819Y-123341428D02*
X162356819Y-123817618D01*
X162356819Y-123817618D02*
X161356819Y-123817618D01*
X161356819Y-123150951D02*
X162356819Y-122817618D01*
X162356819Y-122817618D02*
X161356819Y-122484285D01*
X162356819Y-122150951D02*
X161356819Y-122150951D01*
X161356819Y-122150951D02*
X161356819Y-121912856D01*
X161356819Y-121912856D02*
X161404438Y-121769999D01*
X161404438Y-121769999D02*
X161499676Y-121674761D01*
X161499676Y-121674761D02*
X161594914Y-121627142D01*
X161594914Y-121627142D02*
X161785390Y-121579523D01*
X161785390Y-121579523D02*
X161928247Y-121579523D01*
X161928247Y-121579523D02*
X162118723Y-121627142D01*
X162118723Y-121627142D02*
X162213961Y-121674761D01*
X162213961Y-121674761D02*
X162309200Y-121769999D01*
X162309200Y-121769999D02*
X162356819Y-121912856D01*
X162356819Y-121912856D02*
X162356819Y-122150951D01*
X162309200Y-121198570D02*
X162356819Y-121055713D01*
X162356819Y-121055713D02*
X162356819Y-120817618D01*
X162356819Y-120817618D02*
X162309200Y-120722380D01*
X162309200Y-120722380D02*
X162261580Y-120674761D01*
X162261580Y-120674761D02*
X162166342Y-120627142D01*
X162166342Y-120627142D02*
X162071104Y-120627142D01*
X162071104Y-120627142D02*
X161975866Y-120674761D01*
X161975866Y-120674761D02*
X161928247Y-120722380D01*
X161928247Y-120722380D02*
X161880628Y-120817618D01*
X161880628Y-120817618D02*
X161833009Y-121008094D01*
X161833009Y-121008094D02*
X161785390Y-121103332D01*
X161785390Y-121103332D02*
X161737771Y-121150951D01*
X161737771Y-121150951D02*
X161642533Y-121198570D01*
X161642533Y-121198570D02*
X161547295Y-121198570D01*
X161547295Y-121198570D02*
X161452057Y-121150951D01*
X161452057Y-121150951D02*
X161404438Y-121103332D01*
X161404438Y-121103332D02*
X161356819Y-121008094D01*
X161356819Y-121008094D02*
X161356819Y-120769999D01*
X161356819Y-120769999D02*
X161404438Y-120627142D01*
X161452057Y-120246189D02*
X161404438Y-120198570D01*
X161404438Y-120198570D02*
X161356819Y-120103332D01*
X161356819Y-120103332D02*
X161356819Y-119865237D01*
X161356819Y-119865237D02*
X161404438Y-119769999D01*
X161404438Y-119769999D02*
X161452057Y-119722380D01*
X161452057Y-119722380D02*
X161547295Y-119674761D01*
X161547295Y-119674761D02*
X161642533Y-119674761D01*
X161642533Y-119674761D02*
X161785390Y-119722380D01*
X161785390Y-119722380D02*
X162356819Y-120293808D01*
X162356819Y-120293808D02*
X162356819Y-119674761D01*
X146754819Y-56111309D02*
X146278628Y-56444642D01*
X146754819Y-56682737D02*
X145754819Y-56682737D01*
X145754819Y-56682737D02*
X145754819Y-56301785D01*
X145754819Y-56301785D02*
X145802438Y-56206547D01*
X145802438Y-56206547D02*
X145850057Y-56158928D01*
X145850057Y-56158928D02*
X145945295Y-56111309D01*
X145945295Y-56111309D02*
X146088152Y-56111309D01*
X146088152Y-56111309D02*
X146183390Y-56158928D01*
X146183390Y-56158928D02*
X146231009Y-56206547D01*
X146231009Y-56206547D02*
X146278628Y-56301785D01*
X146278628Y-56301785D02*
X146278628Y-56682737D01*
X146754819Y-55682737D02*
X145754819Y-55682737D01*
X145754819Y-55682737D02*
X145754819Y-55301785D01*
X145754819Y-55301785D02*
X145802438Y-55206547D01*
X145802438Y-55206547D02*
X145850057Y-55158928D01*
X145850057Y-55158928D02*
X145945295Y-55111309D01*
X145945295Y-55111309D02*
X146088152Y-55111309D01*
X146088152Y-55111309D02*
X146183390Y-55158928D01*
X146183390Y-55158928D02*
X146231009Y-55206547D01*
X146231009Y-55206547D02*
X146278628Y-55301785D01*
X146278628Y-55301785D02*
X146278628Y-55682737D01*
X146754819Y-54158928D02*
X146754819Y-54730356D01*
X146754819Y-54444642D02*
X145754819Y-54444642D01*
X145754819Y-54444642D02*
X145897676Y-54539880D01*
X145897676Y-54539880D02*
X145992914Y-54635118D01*
X145992914Y-54635118D02*
X146040533Y-54730356D01*
X146850057Y-53968452D02*
X146850057Y-53206547D01*
X145850057Y-53016070D02*
X145802438Y-52968451D01*
X145802438Y-52968451D02*
X145754819Y-52873213D01*
X145754819Y-52873213D02*
X145754819Y-52635118D01*
X145754819Y-52635118D02*
X145802438Y-52539880D01*
X145802438Y-52539880D02*
X145850057Y-52492261D01*
X145850057Y-52492261D02*
X145945295Y-52444642D01*
X145945295Y-52444642D02*
X146040533Y-52444642D01*
X146040533Y-52444642D02*
X146183390Y-52492261D01*
X146183390Y-52492261D02*
X146754819Y-53063689D01*
X146754819Y-53063689D02*
X146754819Y-52444642D01*
X172900595Y-55104819D02*
X172900595Y-55914342D01*
X172900595Y-55914342D02*
X172948214Y-56009580D01*
X172948214Y-56009580D02*
X172995833Y-56057200D01*
X172995833Y-56057200D02*
X173091071Y-56104819D01*
X173091071Y-56104819D02*
X173281547Y-56104819D01*
X173281547Y-56104819D02*
X173376785Y-56057200D01*
X173376785Y-56057200D02*
X173424404Y-56009580D01*
X173424404Y-56009580D02*
X173472023Y-55914342D01*
X173472023Y-55914342D02*
X173472023Y-55104819D01*
X174472023Y-56104819D02*
X173900595Y-56104819D01*
X174186309Y-56104819D02*
X174186309Y-55104819D01*
X174186309Y-55104819D02*
X174091071Y-55247676D01*
X174091071Y-55247676D02*
X173995833Y-55342914D01*
X173995833Y-55342914D02*
X173900595Y-55390533D01*
X157407142Y-134679580D02*
X157359523Y-134727200D01*
X157359523Y-134727200D02*
X157216666Y-134774819D01*
X157216666Y-134774819D02*
X157121428Y-134774819D01*
X157121428Y-134774819D02*
X156978571Y-134727200D01*
X156978571Y-134727200D02*
X156883333Y-134631961D01*
X156883333Y-134631961D02*
X156835714Y-134536723D01*
X156835714Y-134536723D02*
X156788095Y-134346247D01*
X156788095Y-134346247D02*
X156788095Y-134203390D01*
X156788095Y-134203390D02*
X156835714Y-134012914D01*
X156835714Y-134012914D02*
X156883333Y-133917676D01*
X156883333Y-133917676D02*
X156978571Y-133822438D01*
X156978571Y-133822438D02*
X157121428Y-133774819D01*
X157121428Y-133774819D02*
X157216666Y-133774819D01*
X157216666Y-133774819D02*
X157359523Y-133822438D01*
X157359523Y-133822438D02*
X157407142Y-133870057D01*
X157740476Y-133774819D02*
X158359523Y-133774819D01*
X158359523Y-133774819D02*
X158026190Y-134155771D01*
X158026190Y-134155771D02*
X158169047Y-134155771D01*
X158169047Y-134155771D02*
X158264285Y-134203390D01*
X158264285Y-134203390D02*
X158311904Y-134251009D01*
X158311904Y-134251009D02*
X158359523Y-134346247D01*
X158359523Y-134346247D02*
X158359523Y-134584342D01*
X158359523Y-134584342D02*
X158311904Y-134679580D01*
X158311904Y-134679580D02*
X158264285Y-134727200D01*
X158264285Y-134727200D02*
X158169047Y-134774819D01*
X158169047Y-134774819D02*
X157883333Y-134774819D01*
X157883333Y-134774819D02*
X157788095Y-134727200D01*
X157788095Y-134727200D02*
X157740476Y-134679580D01*
X158835714Y-134774819D02*
X159026190Y-134774819D01*
X159026190Y-134774819D02*
X159121428Y-134727200D01*
X159121428Y-134727200D02*
X159169047Y-134679580D01*
X159169047Y-134679580D02*
X159264285Y-134536723D01*
X159264285Y-134536723D02*
X159311904Y-134346247D01*
X159311904Y-134346247D02*
X159311904Y-133965295D01*
X159311904Y-133965295D02*
X159264285Y-133870057D01*
X159264285Y-133870057D02*
X159216666Y-133822438D01*
X159216666Y-133822438D02*
X159121428Y-133774819D01*
X159121428Y-133774819D02*
X158930952Y-133774819D01*
X158930952Y-133774819D02*
X158835714Y-133822438D01*
X158835714Y-133822438D02*
X158788095Y-133870057D01*
X158788095Y-133870057D02*
X158740476Y-133965295D01*
X158740476Y-133965295D02*
X158740476Y-134203390D01*
X158740476Y-134203390D02*
X158788095Y-134298628D01*
X158788095Y-134298628D02*
X158835714Y-134346247D01*
X158835714Y-134346247D02*
X158930952Y-134393866D01*
X158930952Y-134393866D02*
X159121428Y-134393866D01*
X159121428Y-134393866D02*
X159216666Y-134346247D01*
X159216666Y-134346247D02*
X159264285Y-134298628D01*
X159264285Y-134298628D02*
X159311904Y-134203390D01*
X148857142Y-100039580D02*
X148809523Y-100087200D01*
X148809523Y-100087200D02*
X148666666Y-100134819D01*
X148666666Y-100134819D02*
X148571428Y-100134819D01*
X148571428Y-100134819D02*
X148428571Y-100087200D01*
X148428571Y-100087200D02*
X148333333Y-99991961D01*
X148333333Y-99991961D02*
X148285714Y-99896723D01*
X148285714Y-99896723D02*
X148238095Y-99706247D01*
X148238095Y-99706247D02*
X148238095Y-99563390D01*
X148238095Y-99563390D02*
X148285714Y-99372914D01*
X148285714Y-99372914D02*
X148333333Y-99277676D01*
X148333333Y-99277676D02*
X148428571Y-99182438D01*
X148428571Y-99182438D02*
X148571428Y-99134819D01*
X148571428Y-99134819D02*
X148666666Y-99134819D01*
X148666666Y-99134819D02*
X148809523Y-99182438D01*
X148809523Y-99182438D02*
X148857142Y-99230057D01*
X149761904Y-99134819D02*
X149285714Y-99134819D01*
X149285714Y-99134819D02*
X149238095Y-99611009D01*
X149238095Y-99611009D02*
X149285714Y-99563390D01*
X149285714Y-99563390D02*
X149380952Y-99515771D01*
X149380952Y-99515771D02*
X149619047Y-99515771D01*
X149619047Y-99515771D02*
X149714285Y-99563390D01*
X149714285Y-99563390D02*
X149761904Y-99611009D01*
X149761904Y-99611009D02*
X149809523Y-99706247D01*
X149809523Y-99706247D02*
X149809523Y-99944342D01*
X149809523Y-99944342D02*
X149761904Y-100039580D01*
X149761904Y-100039580D02*
X149714285Y-100087200D01*
X149714285Y-100087200D02*
X149619047Y-100134819D01*
X149619047Y-100134819D02*
X149380952Y-100134819D01*
X149380952Y-100134819D02*
X149285714Y-100087200D01*
X149285714Y-100087200D02*
X149238095Y-100039580D01*
X150142857Y-99134819D02*
X150809523Y-99134819D01*
X150809523Y-99134819D02*
X150380952Y-100134819D01*
X169224819Y-89176190D02*
X168748628Y-89509523D01*
X169224819Y-89747618D02*
X168224819Y-89747618D01*
X168224819Y-89747618D02*
X168224819Y-89366666D01*
X168224819Y-89366666D02*
X168272438Y-89271428D01*
X168272438Y-89271428D02*
X168320057Y-89223809D01*
X168320057Y-89223809D02*
X168415295Y-89176190D01*
X168415295Y-89176190D02*
X168558152Y-89176190D01*
X168558152Y-89176190D02*
X168653390Y-89223809D01*
X168653390Y-89223809D02*
X168701009Y-89271428D01*
X168701009Y-89271428D02*
X168748628Y-89366666D01*
X168748628Y-89366666D02*
X168748628Y-89747618D01*
X169224819Y-88271428D02*
X169224819Y-88747618D01*
X169224819Y-88747618D02*
X168224819Y-88747618D01*
X168224819Y-88080951D02*
X169224819Y-87747618D01*
X169224819Y-87747618D02*
X168224819Y-87414285D01*
X169224819Y-87080951D02*
X168224819Y-87080951D01*
X168224819Y-87080951D02*
X168224819Y-86842856D01*
X168224819Y-86842856D02*
X168272438Y-86699999D01*
X168272438Y-86699999D02*
X168367676Y-86604761D01*
X168367676Y-86604761D02*
X168462914Y-86557142D01*
X168462914Y-86557142D02*
X168653390Y-86509523D01*
X168653390Y-86509523D02*
X168796247Y-86509523D01*
X168796247Y-86509523D02*
X168986723Y-86557142D01*
X168986723Y-86557142D02*
X169081961Y-86604761D01*
X169081961Y-86604761D02*
X169177200Y-86699999D01*
X169177200Y-86699999D02*
X169224819Y-86842856D01*
X169224819Y-86842856D02*
X169224819Y-87080951D01*
X169177200Y-86128570D02*
X169224819Y-85985713D01*
X169224819Y-85985713D02*
X169224819Y-85747618D01*
X169224819Y-85747618D02*
X169177200Y-85652380D01*
X169177200Y-85652380D02*
X169129580Y-85604761D01*
X169129580Y-85604761D02*
X169034342Y-85557142D01*
X169034342Y-85557142D02*
X168939104Y-85557142D01*
X168939104Y-85557142D02*
X168843866Y-85604761D01*
X168843866Y-85604761D02*
X168796247Y-85652380D01*
X168796247Y-85652380D02*
X168748628Y-85747618D01*
X168748628Y-85747618D02*
X168701009Y-85938094D01*
X168701009Y-85938094D02*
X168653390Y-86033332D01*
X168653390Y-86033332D02*
X168605771Y-86080951D01*
X168605771Y-86080951D02*
X168510533Y-86128570D01*
X168510533Y-86128570D02*
X168415295Y-86128570D01*
X168415295Y-86128570D02*
X168320057Y-86080951D01*
X168320057Y-86080951D02*
X168272438Y-86033332D01*
X168272438Y-86033332D02*
X168224819Y-85938094D01*
X168224819Y-85938094D02*
X168224819Y-85699999D01*
X168224819Y-85699999D02*
X168272438Y-85557142D01*
X169224819Y-84604761D02*
X169224819Y-85176189D01*
X169224819Y-84890475D02*
X168224819Y-84890475D01*
X168224819Y-84890475D02*
X168367676Y-84985713D01*
X168367676Y-84985713D02*
X168462914Y-85080951D01*
X168462914Y-85080951D02*
X168510533Y-85176189D01*
D10*
X136360237Y-128424318D02*
X136360237Y-127154318D01*
X137690714Y-128303365D02*
X137630238Y-128363842D01*
X137630238Y-128363842D02*
X137448809Y-128424318D01*
X137448809Y-128424318D02*
X137327857Y-128424318D01*
X137327857Y-128424318D02*
X137146428Y-128363842D01*
X137146428Y-128363842D02*
X137025476Y-128242889D01*
X137025476Y-128242889D02*
X136964999Y-128121937D01*
X136964999Y-128121937D02*
X136904523Y-127880032D01*
X136904523Y-127880032D02*
X136904523Y-127698603D01*
X136904523Y-127698603D02*
X136964999Y-127456699D01*
X136964999Y-127456699D02*
X137025476Y-127335746D01*
X137025476Y-127335746D02*
X137146428Y-127214794D01*
X137146428Y-127214794D02*
X137327857Y-127154318D01*
X137327857Y-127154318D02*
X137448809Y-127154318D01*
X137448809Y-127154318D02*
X137630238Y-127214794D01*
X137630238Y-127214794D02*
X137690714Y-127275270D01*
X138174523Y-127275270D02*
X138234999Y-127214794D01*
X138234999Y-127214794D02*
X138355952Y-127154318D01*
X138355952Y-127154318D02*
X138658333Y-127154318D01*
X138658333Y-127154318D02*
X138779285Y-127214794D01*
X138779285Y-127214794D02*
X138839761Y-127275270D01*
X138839761Y-127275270D02*
X138900238Y-127396222D01*
X138900238Y-127396222D02*
X138900238Y-127517175D01*
X138900238Y-127517175D02*
X138839761Y-127698603D01*
X138839761Y-127698603D02*
X138114047Y-128424318D01*
X138114047Y-128424318D02*
X138900238Y-128424318D01*
X115897381Y-84704318D02*
X116623095Y-84704318D01*
X116260238Y-85974318D02*
X116260238Y-84704318D01*
X117772143Y-85974318D02*
X117348809Y-85369556D01*
X117046428Y-85974318D02*
X117046428Y-84704318D01*
X117046428Y-84704318D02*
X117530238Y-84704318D01*
X117530238Y-84704318D02*
X117651190Y-84764794D01*
X117651190Y-84764794D02*
X117711667Y-84825270D01*
X117711667Y-84825270D02*
X117772143Y-84946222D01*
X117772143Y-84946222D02*
X117772143Y-85127651D01*
X117772143Y-85127651D02*
X117711667Y-85248603D01*
X117711667Y-85248603D02*
X117651190Y-85309080D01*
X117651190Y-85309080D02*
X117530238Y-85369556D01*
X117530238Y-85369556D02*
X117046428Y-85369556D01*
X118981667Y-85974318D02*
X118255952Y-85974318D01*
X118618809Y-85974318D02*
X118618809Y-84704318D01*
X118618809Y-84704318D02*
X118497857Y-84885746D01*
X118497857Y-84885746D02*
X118376905Y-85006699D01*
X118376905Y-85006699D02*
X118255952Y-85067175D01*
X157794556Y-132329761D02*
X158399318Y-132329761D01*
X157129318Y-132753094D02*
X157794556Y-132329761D01*
X157794556Y-132329761D02*
X157129318Y-131906427D01*
X158399318Y-130817856D02*
X158399318Y-131543571D01*
X158399318Y-131180714D02*
X157129318Y-131180714D01*
X157129318Y-131180714D02*
X157310746Y-131301666D01*
X157310746Y-131301666D02*
X157431699Y-131422618D01*
X157431699Y-131422618D02*
X157492175Y-131543571D01*
D11*
X153484819Y-138533333D02*
X154199104Y-138533333D01*
X154199104Y-138533333D02*
X154341961Y-138580952D01*
X154341961Y-138580952D02*
X154437200Y-138676190D01*
X154437200Y-138676190D02*
X154484819Y-138819047D01*
X154484819Y-138819047D02*
X154484819Y-138914285D01*
X153580057Y-138104761D02*
X153532438Y-138057142D01*
X153532438Y-138057142D02*
X153484819Y-137961904D01*
X153484819Y-137961904D02*
X153484819Y-137723809D01*
X153484819Y-137723809D02*
X153532438Y-137628571D01*
X153532438Y-137628571D02*
X153580057Y-137580952D01*
X153580057Y-137580952D02*
X153675295Y-137533333D01*
X153675295Y-137533333D02*
X153770533Y-137533333D01*
X153770533Y-137533333D02*
X153913390Y-137580952D01*
X153913390Y-137580952D02*
X154484819Y-138152380D01*
X154484819Y-138152380D02*
X154484819Y-137533333D01*
X148907142Y-98339580D02*
X148859523Y-98387200D01*
X148859523Y-98387200D02*
X148716666Y-98434819D01*
X148716666Y-98434819D02*
X148621428Y-98434819D01*
X148621428Y-98434819D02*
X148478571Y-98387200D01*
X148478571Y-98387200D02*
X148383333Y-98291961D01*
X148383333Y-98291961D02*
X148335714Y-98196723D01*
X148335714Y-98196723D02*
X148288095Y-98006247D01*
X148288095Y-98006247D02*
X148288095Y-97863390D01*
X148288095Y-97863390D02*
X148335714Y-97672914D01*
X148335714Y-97672914D02*
X148383333Y-97577676D01*
X148383333Y-97577676D02*
X148478571Y-97482438D01*
X148478571Y-97482438D02*
X148621428Y-97434819D01*
X148621428Y-97434819D02*
X148716666Y-97434819D01*
X148716666Y-97434819D02*
X148859523Y-97482438D01*
X148859523Y-97482438D02*
X148907142Y-97530057D01*
X149764285Y-97434819D02*
X149573809Y-97434819D01*
X149573809Y-97434819D02*
X149478571Y-97482438D01*
X149478571Y-97482438D02*
X149430952Y-97530057D01*
X149430952Y-97530057D02*
X149335714Y-97672914D01*
X149335714Y-97672914D02*
X149288095Y-97863390D01*
X149288095Y-97863390D02*
X149288095Y-98244342D01*
X149288095Y-98244342D02*
X149335714Y-98339580D01*
X149335714Y-98339580D02*
X149383333Y-98387200D01*
X149383333Y-98387200D02*
X149478571Y-98434819D01*
X149478571Y-98434819D02*
X149669047Y-98434819D01*
X149669047Y-98434819D02*
X149764285Y-98387200D01*
X149764285Y-98387200D02*
X149811904Y-98339580D01*
X149811904Y-98339580D02*
X149859523Y-98244342D01*
X149859523Y-98244342D02*
X149859523Y-98006247D01*
X149859523Y-98006247D02*
X149811904Y-97911009D01*
X149811904Y-97911009D02*
X149764285Y-97863390D01*
X149764285Y-97863390D02*
X149669047Y-97815771D01*
X149669047Y-97815771D02*
X149478571Y-97815771D01*
X149478571Y-97815771D02*
X149383333Y-97863390D01*
X149383333Y-97863390D02*
X149335714Y-97911009D01*
X149335714Y-97911009D02*
X149288095Y-98006247D01*
X150478571Y-97434819D02*
X150573809Y-97434819D01*
X150573809Y-97434819D02*
X150669047Y-97482438D01*
X150669047Y-97482438D02*
X150716666Y-97530057D01*
X150716666Y-97530057D02*
X150764285Y-97625295D01*
X150764285Y-97625295D02*
X150811904Y-97815771D01*
X150811904Y-97815771D02*
X150811904Y-98053866D01*
X150811904Y-98053866D02*
X150764285Y-98244342D01*
X150764285Y-98244342D02*
X150716666Y-98339580D01*
X150716666Y-98339580D02*
X150669047Y-98387200D01*
X150669047Y-98387200D02*
X150573809Y-98434819D01*
X150573809Y-98434819D02*
X150478571Y-98434819D01*
X150478571Y-98434819D02*
X150383333Y-98387200D01*
X150383333Y-98387200D02*
X150335714Y-98339580D01*
X150335714Y-98339580D02*
X150288095Y-98244342D01*
X150288095Y-98244342D02*
X150240476Y-98053866D01*
X150240476Y-98053866D02*
X150240476Y-97815771D01*
X150240476Y-97815771D02*
X150288095Y-97625295D01*
X150288095Y-97625295D02*
X150335714Y-97530057D01*
X150335714Y-97530057D02*
X150383333Y-97482438D01*
X150383333Y-97482438D02*
X150478571Y-97434819D01*
X162356819Y-114896190D02*
X161880628Y-115229523D01*
X162356819Y-115467618D02*
X161356819Y-115467618D01*
X161356819Y-115467618D02*
X161356819Y-115086666D01*
X161356819Y-115086666D02*
X161404438Y-114991428D01*
X161404438Y-114991428D02*
X161452057Y-114943809D01*
X161452057Y-114943809D02*
X161547295Y-114896190D01*
X161547295Y-114896190D02*
X161690152Y-114896190D01*
X161690152Y-114896190D02*
X161785390Y-114943809D01*
X161785390Y-114943809D02*
X161833009Y-114991428D01*
X161833009Y-114991428D02*
X161880628Y-115086666D01*
X161880628Y-115086666D02*
X161880628Y-115467618D01*
X162356819Y-113991428D02*
X162356819Y-114467618D01*
X162356819Y-114467618D02*
X161356819Y-114467618D01*
X161356819Y-113800951D02*
X162356819Y-113467618D01*
X162356819Y-113467618D02*
X161356819Y-113134285D01*
X162356819Y-112800951D02*
X161356819Y-112800951D01*
X161356819Y-112800951D02*
X161356819Y-112562856D01*
X161356819Y-112562856D02*
X161404438Y-112419999D01*
X161404438Y-112419999D02*
X161499676Y-112324761D01*
X161499676Y-112324761D02*
X161594914Y-112277142D01*
X161594914Y-112277142D02*
X161785390Y-112229523D01*
X161785390Y-112229523D02*
X161928247Y-112229523D01*
X161928247Y-112229523D02*
X162118723Y-112277142D01*
X162118723Y-112277142D02*
X162213961Y-112324761D01*
X162213961Y-112324761D02*
X162309200Y-112419999D01*
X162309200Y-112419999D02*
X162356819Y-112562856D01*
X162356819Y-112562856D02*
X162356819Y-112800951D01*
X162309200Y-111848570D02*
X162356819Y-111705713D01*
X162356819Y-111705713D02*
X162356819Y-111467618D01*
X162356819Y-111467618D02*
X162309200Y-111372380D01*
X162309200Y-111372380D02*
X162261580Y-111324761D01*
X162261580Y-111324761D02*
X162166342Y-111277142D01*
X162166342Y-111277142D02*
X162071104Y-111277142D01*
X162071104Y-111277142D02*
X161975866Y-111324761D01*
X161975866Y-111324761D02*
X161928247Y-111372380D01*
X161928247Y-111372380D02*
X161880628Y-111467618D01*
X161880628Y-111467618D02*
X161833009Y-111658094D01*
X161833009Y-111658094D02*
X161785390Y-111753332D01*
X161785390Y-111753332D02*
X161737771Y-111800951D01*
X161737771Y-111800951D02*
X161642533Y-111848570D01*
X161642533Y-111848570D02*
X161547295Y-111848570D01*
X161547295Y-111848570D02*
X161452057Y-111800951D01*
X161452057Y-111800951D02*
X161404438Y-111753332D01*
X161404438Y-111753332D02*
X161356819Y-111658094D01*
X161356819Y-111658094D02*
X161356819Y-111419999D01*
X161356819Y-111419999D02*
X161404438Y-111277142D01*
X161356819Y-110372380D02*
X161356819Y-110848570D01*
X161356819Y-110848570D02*
X161833009Y-110896189D01*
X161833009Y-110896189D02*
X161785390Y-110848570D01*
X161785390Y-110848570D02*
X161737771Y-110753332D01*
X161737771Y-110753332D02*
X161737771Y-110515237D01*
X161737771Y-110515237D02*
X161785390Y-110419999D01*
X161785390Y-110419999D02*
X161833009Y-110372380D01*
X161833009Y-110372380D02*
X161928247Y-110324761D01*
X161928247Y-110324761D02*
X162166342Y-110324761D01*
X162166342Y-110324761D02*
X162261580Y-110372380D01*
X162261580Y-110372380D02*
X162309200Y-110419999D01*
X162309200Y-110419999D02*
X162356819Y-110515237D01*
X162356819Y-110515237D02*
X162356819Y-110753332D01*
X162356819Y-110753332D02*
X162309200Y-110848570D01*
X162309200Y-110848570D02*
X162261580Y-110896189D01*
X151984819Y-59658094D02*
X150984819Y-59658094D01*
X150984819Y-59658094D02*
X150984819Y-59419999D01*
X150984819Y-59419999D02*
X151032438Y-59277142D01*
X151032438Y-59277142D02*
X151127676Y-59181904D01*
X151127676Y-59181904D02*
X151222914Y-59134285D01*
X151222914Y-59134285D02*
X151413390Y-59086666D01*
X151413390Y-59086666D02*
X151556247Y-59086666D01*
X151556247Y-59086666D02*
X151746723Y-59134285D01*
X151746723Y-59134285D02*
X151841961Y-59181904D01*
X151841961Y-59181904D02*
X151937200Y-59277142D01*
X151937200Y-59277142D02*
X151984819Y-59419999D01*
X151984819Y-59419999D02*
X151984819Y-59658094D01*
X151080057Y-58705713D02*
X151032438Y-58658094D01*
X151032438Y-58658094D02*
X150984819Y-58562856D01*
X150984819Y-58562856D02*
X150984819Y-58324761D01*
X150984819Y-58324761D02*
X151032438Y-58229523D01*
X151032438Y-58229523D02*
X151080057Y-58181904D01*
X151080057Y-58181904D02*
X151175295Y-58134285D01*
X151175295Y-58134285D02*
X151270533Y-58134285D01*
X151270533Y-58134285D02*
X151413390Y-58181904D01*
X151413390Y-58181904D02*
X151984819Y-58753332D01*
X151984819Y-58753332D02*
X151984819Y-58134285D01*
X152354819Y-64261904D02*
X151354819Y-64261904D01*
X152354819Y-63690476D02*
X151783390Y-64119047D01*
X151354819Y-63690476D02*
X151926247Y-64261904D01*
X142732142Y-93829580D02*
X142684523Y-93877200D01*
X142684523Y-93877200D02*
X142541666Y-93924819D01*
X142541666Y-93924819D02*
X142446428Y-93924819D01*
X142446428Y-93924819D02*
X142303571Y-93877200D01*
X142303571Y-93877200D02*
X142208333Y-93781961D01*
X142208333Y-93781961D02*
X142160714Y-93686723D01*
X142160714Y-93686723D02*
X142113095Y-93496247D01*
X142113095Y-93496247D02*
X142113095Y-93353390D01*
X142113095Y-93353390D02*
X142160714Y-93162914D01*
X142160714Y-93162914D02*
X142208333Y-93067676D01*
X142208333Y-93067676D02*
X142303571Y-92972438D01*
X142303571Y-92972438D02*
X142446428Y-92924819D01*
X142446428Y-92924819D02*
X142541666Y-92924819D01*
X142541666Y-92924819D02*
X142684523Y-92972438D01*
X142684523Y-92972438D02*
X142732142Y-93020057D01*
X143589285Y-93258152D02*
X143589285Y-93924819D01*
X143351190Y-92877200D02*
X143113095Y-93591485D01*
X143113095Y-93591485D02*
X143732142Y-93591485D01*
X144017857Y-92924819D02*
X144636904Y-92924819D01*
X144636904Y-92924819D02*
X144303571Y-93305771D01*
X144303571Y-93305771D02*
X144446428Y-93305771D01*
X144446428Y-93305771D02*
X144541666Y-93353390D01*
X144541666Y-93353390D02*
X144589285Y-93401009D01*
X144589285Y-93401009D02*
X144636904Y-93496247D01*
X144636904Y-93496247D02*
X144636904Y-93734342D01*
X144636904Y-93734342D02*
X144589285Y-93829580D01*
X144589285Y-93829580D02*
X144541666Y-93877200D01*
X144541666Y-93877200D02*
X144446428Y-93924819D01*
X144446428Y-93924819D02*
X144160714Y-93924819D01*
X144160714Y-93924819D02*
X144065476Y-93877200D01*
X144065476Y-93877200D02*
X144017857Y-93829580D01*
X130088095Y-114556819D02*
X130659523Y-114556819D01*
X130373809Y-115556819D02*
X130373809Y-114556819D01*
X130992857Y-115556819D02*
X130992857Y-114556819D01*
X130992857Y-114556819D02*
X131373809Y-114556819D01*
X131373809Y-114556819D02*
X131469047Y-114604438D01*
X131469047Y-114604438D02*
X131516666Y-114652057D01*
X131516666Y-114652057D02*
X131564285Y-114747295D01*
X131564285Y-114747295D02*
X131564285Y-114890152D01*
X131564285Y-114890152D02*
X131516666Y-114985390D01*
X131516666Y-114985390D02*
X131469047Y-115033009D01*
X131469047Y-115033009D02*
X131373809Y-115080628D01*
X131373809Y-115080628D02*
X130992857Y-115080628D01*
X132040476Y-115556819D02*
X132230952Y-115556819D01*
X132230952Y-115556819D02*
X132326190Y-115509200D01*
X132326190Y-115509200D02*
X132373809Y-115461580D01*
X132373809Y-115461580D02*
X132469047Y-115318723D01*
X132469047Y-115318723D02*
X132516666Y-115128247D01*
X132516666Y-115128247D02*
X132516666Y-114747295D01*
X132516666Y-114747295D02*
X132469047Y-114652057D01*
X132469047Y-114652057D02*
X132421428Y-114604438D01*
X132421428Y-114604438D02*
X132326190Y-114556819D01*
X132326190Y-114556819D02*
X132135714Y-114556819D01*
X132135714Y-114556819D02*
X132040476Y-114604438D01*
X132040476Y-114604438D02*
X131992857Y-114652057D01*
X131992857Y-114652057D02*
X131945238Y-114747295D01*
X131945238Y-114747295D02*
X131945238Y-114985390D01*
X131945238Y-114985390D02*
X131992857Y-115080628D01*
X131992857Y-115080628D02*
X132040476Y-115128247D01*
X132040476Y-115128247D02*
X132135714Y-115175866D01*
X132135714Y-115175866D02*
X132326190Y-115175866D01*
X132326190Y-115175866D02*
X132421428Y-115128247D01*
X132421428Y-115128247D02*
X132469047Y-115080628D01*
X132469047Y-115080628D02*
X132516666Y-114985390D01*
X162236819Y-117551190D02*
X161760628Y-117884523D01*
X162236819Y-118122618D02*
X161236819Y-118122618D01*
X161236819Y-118122618D02*
X161236819Y-117741666D01*
X161236819Y-117741666D02*
X161284438Y-117646428D01*
X161284438Y-117646428D02*
X161332057Y-117598809D01*
X161332057Y-117598809D02*
X161427295Y-117551190D01*
X161427295Y-117551190D02*
X161570152Y-117551190D01*
X161570152Y-117551190D02*
X161665390Y-117598809D01*
X161665390Y-117598809D02*
X161713009Y-117646428D01*
X161713009Y-117646428D02*
X161760628Y-117741666D01*
X161760628Y-117741666D02*
X161760628Y-118122618D01*
X162236819Y-116646428D02*
X162236819Y-117122618D01*
X162236819Y-117122618D02*
X161236819Y-117122618D01*
X161236819Y-116455951D02*
X162236819Y-116122618D01*
X162236819Y-116122618D02*
X161236819Y-115789285D01*
X162236819Y-115455951D02*
X161236819Y-115455951D01*
X161236819Y-115455951D02*
X161236819Y-115217856D01*
X161236819Y-115217856D02*
X161284438Y-115074999D01*
X161284438Y-115074999D02*
X161379676Y-114979761D01*
X161379676Y-114979761D02*
X161474914Y-114932142D01*
X161474914Y-114932142D02*
X161665390Y-114884523D01*
X161665390Y-114884523D02*
X161808247Y-114884523D01*
X161808247Y-114884523D02*
X161998723Y-114932142D01*
X161998723Y-114932142D02*
X162093961Y-114979761D01*
X162093961Y-114979761D02*
X162189200Y-115074999D01*
X162189200Y-115074999D02*
X162236819Y-115217856D01*
X162236819Y-115217856D02*
X162236819Y-115455951D01*
X162189200Y-114503570D02*
X162236819Y-114360713D01*
X162236819Y-114360713D02*
X162236819Y-114122618D01*
X162236819Y-114122618D02*
X162189200Y-114027380D01*
X162189200Y-114027380D02*
X162141580Y-113979761D01*
X162141580Y-113979761D02*
X162046342Y-113932142D01*
X162046342Y-113932142D02*
X161951104Y-113932142D01*
X161951104Y-113932142D02*
X161855866Y-113979761D01*
X161855866Y-113979761D02*
X161808247Y-114027380D01*
X161808247Y-114027380D02*
X161760628Y-114122618D01*
X161760628Y-114122618D02*
X161713009Y-114313094D01*
X161713009Y-114313094D02*
X161665390Y-114408332D01*
X161665390Y-114408332D02*
X161617771Y-114455951D01*
X161617771Y-114455951D02*
X161522533Y-114503570D01*
X161522533Y-114503570D02*
X161427295Y-114503570D01*
X161427295Y-114503570D02*
X161332057Y-114455951D01*
X161332057Y-114455951D02*
X161284438Y-114408332D01*
X161284438Y-114408332D02*
X161236819Y-114313094D01*
X161236819Y-114313094D02*
X161236819Y-114074999D01*
X161236819Y-114074999D02*
X161284438Y-113932142D01*
X161570152Y-113074999D02*
X162236819Y-113074999D01*
X161189200Y-113313094D02*
X161903485Y-113551189D01*
X161903485Y-113551189D02*
X161903485Y-112932142D01*
X135457142Y-93829580D02*
X135409523Y-93877200D01*
X135409523Y-93877200D02*
X135266666Y-93924819D01*
X135266666Y-93924819D02*
X135171428Y-93924819D01*
X135171428Y-93924819D02*
X135028571Y-93877200D01*
X135028571Y-93877200D02*
X134933333Y-93781961D01*
X134933333Y-93781961D02*
X134885714Y-93686723D01*
X134885714Y-93686723D02*
X134838095Y-93496247D01*
X134838095Y-93496247D02*
X134838095Y-93353390D01*
X134838095Y-93353390D02*
X134885714Y-93162914D01*
X134885714Y-93162914D02*
X134933333Y-93067676D01*
X134933333Y-93067676D02*
X135028571Y-92972438D01*
X135028571Y-92972438D02*
X135171428Y-92924819D01*
X135171428Y-92924819D02*
X135266666Y-92924819D01*
X135266666Y-92924819D02*
X135409523Y-92972438D01*
X135409523Y-92972438D02*
X135457142Y-93020057D01*
X136314285Y-93258152D02*
X136314285Y-93924819D01*
X136076190Y-92877200D02*
X135838095Y-93591485D01*
X135838095Y-93591485D02*
X136457142Y-93591485D01*
X136790476Y-93020057D02*
X136838095Y-92972438D01*
X136838095Y-92972438D02*
X136933333Y-92924819D01*
X136933333Y-92924819D02*
X137171428Y-92924819D01*
X137171428Y-92924819D02*
X137266666Y-92972438D01*
X137266666Y-92972438D02*
X137314285Y-93020057D01*
X137314285Y-93020057D02*
X137361904Y-93115295D01*
X137361904Y-93115295D02*
X137361904Y-93210533D01*
X137361904Y-93210533D02*
X137314285Y-93353390D01*
X137314285Y-93353390D02*
X136742857Y-93924819D01*
X136742857Y-93924819D02*
X137361904Y-93924819D01*
X171889580Y-126717857D02*
X171937200Y-126765476D01*
X171937200Y-126765476D02*
X171984819Y-126908333D01*
X171984819Y-126908333D02*
X171984819Y-127003571D01*
X171984819Y-127003571D02*
X171937200Y-127146428D01*
X171937200Y-127146428D02*
X171841961Y-127241666D01*
X171841961Y-127241666D02*
X171746723Y-127289285D01*
X171746723Y-127289285D02*
X171556247Y-127336904D01*
X171556247Y-127336904D02*
X171413390Y-127336904D01*
X171413390Y-127336904D02*
X171222914Y-127289285D01*
X171222914Y-127289285D02*
X171127676Y-127241666D01*
X171127676Y-127241666D02*
X171032438Y-127146428D01*
X171032438Y-127146428D02*
X170984819Y-127003571D01*
X170984819Y-127003571D02*
X170984819Y-126908333D01*
X170984819Y-126908333D02*
X171032438Y-126765476D01*
X171032438Y-126765476D02*
X171080057Y-126717857D01*
X170984819Y-125860714D02*
X170984819Y-126051190D01*
X170984819Y-126051190D02*
X171032438Y-126146428D01*
X171032438Y-126146428D02*
X171080057Y-126194047D01*
X171080057Y-126194047D02*
X171222914Y-126289285D01*
X171222914Y-126289285D02*
X171413390Y-126336904D01*
X171413390Y-126336904D02*
X171794342Y-126336904D01*
X171794342Y-126336904D02*
X171889580Y-126289285D01*
X171889580Y-126289285D02*
X171937200Y-126241666D01*
X171937200Y-126241666D02*
X171984819Y-126146428D01*
X171984819Y-126146428D02*
X171984819Y-125955952D01*
X171984819Y-125955952D02*
X171937200Y-125860714D01*
X171937200Y-125860714D02*
X171889580Y-125813095D01*
X171889580Y-125813095D02*
X171794342Y-125765476D01*
X171794342Y-125765476D02*
X171556247Y-125765476D01*
X171556247Y-125765476D02*
X171461009Y-125813095D01*
X171461009Y-125813095D02*
X171413390Y-125860714D01*
X171413390Y-125860714D02*
X171365771Y-125955952D01*
X171365771Y-125955952D02*
X171365771Y-126146428D01*
X171365771Y-126146428D02*
X171413390Y-126241666D01*
X171413390Y-126241666D02*
X171461009Y-126289285D01*
X171461009Y-126289285D02*
X171556247Y-126336904D01*
X171080057Y-125384523D02*
X171032438Y-125336904D01*
X171032438Y-125336904D02*
X170984819Y-125241666D01*
X170984819Y-125241666D02*
X170984819Y-125003571D01*
X170984819Y-125003571D02*
X171032438Y-124908333D01*
X171032438Y-124908333D02*
X171080057Y-124860714D01*
X171080057Y-124860714D02*
X171175295Y-124813095D01*
X171175295Y-124813095D02*
X171270533Y-124813095D01*
X171270533Y-124813095D02*
X171413390Y-124860714D01*
X171413390Y-124860714D02*
X171984819Y-125432142D01*
X171984819Y-125432142D02*
X171984819Y-124813095D01*
D10*
X179175237Y-108849318D02*
X179175237Y-107579318D01*
X180505714Y-108728365D02*
X180445238Y-108788842D01*
X180445238Y-108788842D02*
X180263809Y-108849318D01*
X180263809Y-108849318D02*
X180142857Y-108849318D01*
X180142857Y-108849318D02*
X179961428Y-108788842D01*
X179961428Y-108788842D02*
X179840476Y-108667889D01*
X179840476Y-108667889D02*
X179779999Y-108546937D01*
X179779999Y-108546937D02*
X179719523Y-108305032D01*
X179719523Y-108305032D02*
X179719523Y-108123603D01*
X179719523Y-108123603D02*
X179779999Y-107881699D01*
X179779999Y-107881699D02*
X179840476Y-107760746D01*
X179840476Y-107760746D02*
X179961428Y-107639794D01*
X179961428Y-107639794D02*
X180142857Y-107579318D01*
X180142857Y-107579318D02*
X180263809Y-107579318D01*
X180263809Y-107579318D02*
X180445238Y-107639794D01*
X180445238Y-107639794D02*
X180505714Y-107700270D01*
X181715238Y-108849318D02*
X180989523Y-108849318D01*
X181352380Y-108849318D02*
X181352380Y-107579318D01*
X181352380Y-107579318D02*
X181231428Y-107760746D01*
X181231428Y-107760746D02*
X181110476Y-107881699D01*
X181110476Y-107881699D02*
X180989523Y-107942175D01*
D11*
X162358819Y-99862381D02*
X161882628Y-100195714D01*
X162358819Y-100433809D02*
X161358819Y-100433809D01*
X161358819Y-100433809D02*
X161358819Y-100052857D01*
X161358819Y-100052857D02*
X161406438Y-99957619D01*
X161406438Y-99957619D02*
X161454057Y-99910000D01*
X161454057Y-99910000D02*
X161549295Y-99862381D01*
X161549295Y-99862381D02*
X161692152Y-99862381D01*
X161692152Y-99862381D02*
X161787390Y-99910000D01*
X161787390Y-99910000D02*
X161835009Y-99957619D01*
X161835009Y-99957619D02*
X161882628Y-100052857D01*
X161882628Y-100052857D02*
X161882628Y-100433809D01*
X162358819Y-98957619D02*
X162358819Y-99433809D01*
X162358819Y-99433809D02*
X161358819Y-99433809D01*
X161358819Y-98767142D02*
X162358819Y-98433809D01*
X162358819Y-98433809D02*
X161358819Y-98100476D01*
X162358819Y-97767142D02*
X161358819Y-97767142D01*
X161358819Y-97767142D02*
X161358819Y-97529047D01*
X161358819Y-97529047D02*
X161406438Y-97386190D01*
X161406438Y-97386190D02*
X161501676Y-97290952D01*
X161501676Y-97290952D02*
X161596914Y-97243333D01*
X161596914Y-97243333D02*
X161787390Y-97195714D01*
X161787390Y-97195714D02*
X161930247Y-97195714D01*
X161930247Y-97195714D02*
X162120723Y-97243333D01*
X162120723Y-97243333D02*
X162215961Y-97290952D01*
X162215961Y-97290952D02*
X162311200Y-97386190D01*
X162311200Y-97386190D02*
X162358819Y-97529047D01*
X162358819Y-97529047D02*
X162358819Y-97767142D01*
X162311200Y-96814761D02*
X162358819Y-96671904D01*
X162358819Y-96671904D02*
X162358819Y-96433809D01*
X162358819Y-96433809D02*
X162311200Y-96338571D01*
X162311200Y-96338571D02*
X162263580Y-96290952D01*
X162263580Y-96290952D02*
X162168342Y-96243333D01*
X162168342Y-96243333D02*
X162073104Y-96243333D01*
X162073104Y-96243333D02*
X161977866Y-96290952D01*
X161977866Y-96290952D02*
X161930247Y-96338571D01*
X161930247Y-96338571D02*
X161882628Y-96433809D01*
X161882628Y-96433809D02*
X161835009Y-96624285D01*
X161835009Y-96624285D02*
X161787390Y-96719523D01*
X161787390Y-96719523D02*
X161739771Y-96767142D01*
X161739771Y-96767142D02*
X161644533Y-96814761D01*
X161644533Y-96814761D02*
X161549295Y-96814761D01*
X161549295Y-96814761D02*
X161454057Y-96767142D01*
X161454057Y-96767142D02*
X161406438Y-96719523D01*
X161406438Y-96719523D02*
X161358819Y-96624285D01*
X161358819Y-96624285D02*
X161358819Y-96386190D01*
X161358819Y-96386190D02*
X161406438Y-96243333D01*
X162358819Y-95290952D02*
X162358819Y-95862380D01*
X162358819Y-95576666D02*
X161358819Y-95576666D01*
X161358819Y-95576666D02*
X161501676Y-95671904D01*
X161501676Y-95671904D02*
X161596914Y-95767142D01*
X161596914Y-95767142D02*
X161644533Y-95862380D01*
X161358819Y-94671904D02*
X161358819Y-94576666D01*
X161358819Y-94576666D02*
X161406438Y-94481428D01*
X161406438Y-94481428D02*
X161454057Y-94433809D01*
X161454057Y-94433809D02*
X161549295Y-94386190D01*
X161549295Y-94386190D02*
X161739771Y-94338571D01*
X161739771Y-94338571D02*
X161977866Y-94338571D01*
X161977866Y-94338571D02*
X162168342Y-94386190D01*
X162168342Y-94386190D02*
X162263580Y-94433809D01*
X162263580Y-94433809D02*
X162311200Y-94481428D01*
X162311200Y-94481428D02*
X162358819Y-94576666D01*
X162358819Y-94576666D02*
X162358819Y-94671904D01*
X162358819Y-94671904D02*
X162311200Y-94767142D01*
X162311200Y-94767142D02*
X162263580Y-94814761D01*
X162263580Y-94814761D02*
X162168342Y-94862380D01*
X162168342Y-94862380D02*
X161977866Y-94909999D01*
X161977866Y-94909999D02*
X161739771Y-94909999D01*
X161739771Y-94909999D02*
X161549295Y-94862380D01*
X161549295Y-94862380D02*
X161454057Y-94814761D01*
X161454057Y-94814761D02*
X161406438Y-94767142D01*
X161406438Y-94767142D02*
X161358819Y-94671904D01*
D12*
%TO.C,IC3*%
X130075000Y-60950000D02*
G75*
G02*
X129825000Y-60950000I-125000J0D01*
G01*
X129825000Y-60950000D02*
G75*
G02*
X130075000Y-60950000I125000J0D01*
G01*
D13*
X137500000Y-69500000D02*
X133100000Y-69500000D01*
X133100000Y-69500000D02*
X133100000Y-59500000D01*
X133100000Y-59500000D02*
X137500000Y-59500000D01*
D14*
%TO.C,C28*%
X185990000Y-57734420D02*
X185990000Y-58015580D01*
X187010000Y-57734420D02*
X187010000Y-58015580D01*
%TO.C,2V1*%
X196700000Y-64900000D02*
G75*
G02*
X195300000Y-64900000I-700000J0D01*
G01*
X195300000Y-64900000D02*
G75*
G02*
X196700000Y-64900000I700000J0D01*
G01*
%TO.C,J3*%
X108770000Y-113140000D02*
X108770000Y-109460000D01*
X108770000Y-113140000D02*
X109030000Y-113140000D01*
X108770000Y-113910000D02*
X108770000Y-117590000D01*
X108770000Y-117590000D02*
X113600000Y-117590000D01*
X109030000Y-113140000D02*
X109030000Y-113910000D01*
X109030000Y-113910000D02*
X108770000Y-113910000D01*
X113600000Y-109460000D02*
X108770000Y-109460000D01*
X115510000Y-109460000D02*
X113600000Y-109460000D01*
X115510000Y-109460000D02*
X115510000Y-117590000D01*
X115510000Y-110730000D02*
X116900000Y-110730000D01*
X115510000Y-116320000D02*
X116900000Y-116320000D01*
X115510000Y-117590000D02*
X113600000Y-117590000D01*
X115760000Y-110730000D02*
X115760000Y-116320000D01*
X115800000Y-109120000D02*
X113600000Y-109120000D01*
X115800000Y-110420000D02*
X115800000Y-109120000D01*
X116650000Y-110730000D02*
X116650000Y-116320000D01*
X116900000Y-110730000D02*
X116900000Y-116320000D01*
%TO.C,J4*%
X108785000Y-119100000D02*
X121185000Y-119100000D01*
X108785000Y-135250000D02*
X108785000Y-119100000D01*
X108785000Y-135250000D02*
X121185000Y-135250000D01*
X124685000Y-119100000D02*
X130965000Y-119100000D01*
X124685000Y-135250000D02*
X130965000Y-135250000D01*
X130965000Y-119100000D02*
X130965000Y-135250000D01*
%TO.C,RP3_2*%
X179112258Y-68377500D02*
X178637742Y-68377500D01*
X179112258Y-69422500D02*
X178637742Y-69422500D01*
D13*
%TO.C,IC4*%
X129965000Y-86075000D02*
X135965000Y-86075000D01*
X129965000Y-92425000D02*
X129965000Y-86075000D01*
X135965000Y-86075000D02*
X135965000Y-92425000D01*
X135965000Y-92425000D02*
X129965000Y-92425000D01*
D12*
X135720000Y-84875000D02*
G75*
G02*
X135470000Y-84875000I-125000J0D01*
G01*
X135470000Y-84875000D02*
G75*
G02*
X135720000Y-84875000I125000J0D01*
G01*
D14*
%TO.C,R1*%
X123672936Y-84490000D02*
X125127064Y-84490000D01*
X123672936Y-86310000D02*
X125127064Y-86310000D01*
%TO.C,C63*%
X176788748Y-80665000D02*
X177311252Y-80665000D01*
X176788748Y-82135000D02*
X177311252Y-82135000D01*
%TO.C,Q1*%
X162870000Y-131330000D02*
X163140000Y-131330000D01*
X162870000Y-137750000D02*
X162870000Y-131330000D01*
X169770000Y-131330000D02*
X169500000Y-131330000D01*
X169770000Y-137750000D02*
X169770000Y-131330000D01*
X169930000Y-129940000D02*
X169460000Y-129600000D01*
X169930000Y-129260000D01*
X169930000Y-129940000D01*
G36*
X169930000Y-129940000D02*
G01*
X169460000Y-129600000D01*
X169930000Y-129260000D01*
X169930000Y-129940000D01*
G37*
%TO.C,R3*%
X137112258Y-121977500D02*
X136637742Y-121977500D01*
X137112258Y-123022500D02*
X136637742Y-123022500D01*
%TO.C,3V3*%
X167900000Y-52500000D02*
G75*
G02*
X166500000Y-52500000I-700000J0D01*
G01*
X166500000Y-52500000D02*
G75*
G02*
X167900000Y-52500000I700000J0D01*
G01*
%TO.C,VCORE1*%
X173700000Y-124200000D02*
G75*
G02*
X172300000Y-124200000I-700000J0D01*
G01*
X172300000Y-124200000D02*
G75*
G02*
X173700000Y-124200000I700000J0D01*
G01*
%TO.C,R2*%
X123672936Y-88690000D02*
X125127064Y-88690000D01*
X123672936Y-90510000D02*
X125127064Y-90510000D01*
%TO.C,R6*%
X166560436Y-125665000D02*
X167014564Y-125665000D01*
X166560436Y-127135000D02*
X167014564Y-127135000D01*
%TO.C,C21*%
X121690000Y-58237500D02*
X121690000Y-66297500D01*
X121690000Y-66297500D02*
X126210000Y-66297500D01*
X126210000Y-66297500D02*
X126210000Y-58237500D01*
%TO.C,C48*%
X131540000Y-106809420D02*
X131540000Y-107090580D01*
X132560000Y-106809420D02*
X132560000Y-107090580D01*
%TO.C,R5*%
X181040000Y-89222936D02*
X181040000Y-90677064D01*
X182860000Y-89222936D02*
X182860000Y-90677064D01*
%TO.C,C26*%
X182690000Y-65534420D02*
X182690000Y-65815580D01*
X183710000Y-65534420D02*
X183710000Y-65815580D01*
%TO.C,C30*%
X127540000Y-106809420D02*
X127540000Y-107090580D01*
X128560000Y-106809420D02*
X128560000Y-107090580D01*
%TO.C,Cin1*%
X117040000Y-64711252D02*
X117040000Y-63288748D01*
X118860000Y-64711252D02*
X118860000Y-63288748D01*
%TO.C,RP2_2*%
X179112258Y-60477500D02*
X178637742Y-60477500D01*
X179112258Y-61522500D02*
X178637742Y-61522500D01*
D13*
%TO.C,IC7*%
X172200000Y-86950000D02*
X175100000Y-86950000D01*
X172200000Y-87550000D02*
X172200000Y-86950000D01*
X175100000Y-86950000D02*
X175100000Y-87550000D01*
X175100000Y-87550000D02*
X172200000Y-87550000D01*
X175150000Y-85400000D02*
X175150000Y-86600000D01*
D14*
%TO.C,RLVDS3*%
X162809500Y-119407258D02*
X162809500Y-118932742D01*
X163854500Y-119407258D02*
X163854500Y-118932742D01*
%TO.C,RLVDS11*%
X162811500Y-94447258D02*
X162811500Y-93972742D01*
X163856500Y-94447258D02*
X163856500Y-93972742D01*
%TO.C,U2*%
X173537500Y-64290000D02*
X172737500Y-64290000D01*
X173537500Y-64290000D02*
X174337500Y-64290000D01*
X173537500Y-67410000D02*
X172737500Y-67410000D01*
X173537500Y-67410000D02*
X174337500Y-67410000D01*
X172237500Y-64340000D02*
X171997500Y-64010000D01*
X172477500Y-64010000D01*
X172237500Y-64340000D01*
G36*
X172237500Y-64340000D02*
G01*
X171997500Y-64010000D01*
X172477500Y-64010000D01*
X172237500Y-64340000D01*
G37*
%TO.C,TP11*%
X130400000Y-79400000D02*
X132800000Y-79400000D01*
X130400000Y-81800000D02*
X130400000Y-79400000D01*
X132800000Y-79400000D02*
X132800000Y-81800000D01*
X132800000Y-81800000D02*
X130400000Y-81800000D01*
%TO.C,RLVDS7*%
X162823500Y-107002258D02*
X162823500Y-106527742D01*
X163868500Y-107002258D02*
X163868500Y-106527742D01*
D13*
%TO.C,TR2*%
X117475000Y-90300000D02*
X117475000Y-88900000D01*
D14*
%TO.C,RP1_1*%
X135715000Y-55639564D02*
X135715000Y-55185436D01*
X137185000Y-55639564D02*
X137185000Y-55185436D01*
%TO.C,3V0*%
X196700000Y-57100000D02*
G75*
G02*
X195300000Y-57100000I-700000J0D01*
G01*
X195300000Y-57100000D02*
G75*
G02*
X196700000Y-57100000I700000J0D01*
G01*
%TO.C,C37*%
X156859420Y-127490000D02*
X157140580Y-127490000D01*
X156859420Y-128510000D02*
X157140580Y-128510000D01*
%TO.C,R4*%
X132765000Y-134764564D02*
X132765000Y-133310436D01*
X134585000Y-134764564D02*
X134585000Y-133310436D01*
D13*
%TO.C,IC5*%
X137235000Y-86075000D02*
X143235000Y-86075000D01*
X137235000Y-92425000D02*
X137235000Y-86075000D01*
X143235000Y-86075000D02*
X143235000Y-92425000D01*
X143235000Y-92425000D02*
X137235000Y-92425000D01*
D12*
X142990000Y-84875000D02*
G75*
G02*
X142740000Y-84875000I-125000J0D01*
G01*
X142740000Y-84875000D02*
G75*
G02*
X142990000Y-84875000I125000J0D01*
G01*
D14*
%TO.C,C55*%
X149715580Y-94290000D02*
X149434420Y-94290000D01*
X149715580Y-95310000D02*
X149434420Y-95310000D01*
%TO.C,C27*%
X185990000Y-65559420D02*
X185990000Y-65840580D01*
X187010000Y-65559420D02*
X187010000Y-65840580D01*
%TO.C,C23*%
X169784420Y-61290000D02*
X170065580Y-61290000D01*
X169784420Y-62310000D02*
X170065580Y-62310000D01*
%TO.C,RLVDS8*%
X162823500Y-103902258D02*
X162823500Y-103427742D01*
X163868500Y-103902258D02*
X163868500Y-103427742D01*
%TO.C,C64*%
X176634420Y-83090000D02*
X176915580Y-83090000D01*
X176634420Y-84110000D02*
X176915580Y-84110000D01*
%TO.C,RLVDS6*%
X162823500Y-110102258D02*
X162823500Y-109627742D01*
X163868500Y-110102258D02*
X163868500Y-109627742D01*
D13*
%TO.C,IC9*%
X156058000Y-100235000D02*
X159258000Y-100235000D01*
X156058000Y-110135000D02*
X156058000Y-100235000D01*
X159258000Y-100235000D02*
X159258000Y-110135000D01*
X159258000Y-110135000D02*
X156058000Y-110135000D01*
X161133000Y-110305000D02*
X159608000Y-110305000D01*
D14*
%TO.C,RLVDS9*%
X162823500Y-100802258D02*
X162823500Y-100327742D01*
X163868500Y-100802258D02*
X163868500Y-100327742D01*
%TO.C,C22*%
X130540000Y-55711252D02*
X130540000Y-54288748D01*
X132360000Y-55711252D02*
X132360000Y-54288748D01*
D13*
%TO.C,IC6*%
X135000000Y-100000000D02*
X149800000Y-100000000D01*
X135000000Y-116000000D02*
X135000000Y-100000000D01*
X149800000Y-100000000D02*
X151000000Y-101200000D01*
X151000000Y-101200000D02*
X151000000Y-116000000D01*
X151000000Y-116000000D02*
X135000000Y-116000000D01*
X151100000Y-100000000D02*
G75*
G02*
X150900000Y-100000000I-100000J0D01*
G01*
X150900000Y-100000000D02*
G75*
G02*
X151100000Y-100000000I100000J0D01*
G01*
D14*
%TO.C,Cin2*%
X151540000Y-69763748D02*
X151540000Y-71186252D01*
X153360000Y-69763748D02*
X153360000Y-71186252D01*
D13*
%TO.C,IC8*%
X156020000Y-112670000D02*
X159220000Y-112670000D01*
X156020000Y-122570000D02*
X156020000Y-112670000D01*
X159220000Y-112670000D02*
X159220000Y-122570000D01*
X159220000Y-122570000D02*
X156020000Y-122570000D01*
X161095000Y-122740000D02*
X159570000Y-122740000D01*
D14*
%TO.C,C40*%
X129490000Y-106809420D02*
X129490000Y-107090580D01*
X130510000Y-106809420D02*
X130510000Y-107090580D01*
%TO.C,RP2_1*%
X179277500Y-57687742D02*
X179277500Y-58162258D01*
X180322500Y-57687742D02*
X180322500Y-58162258D01*
D13*
%TO.C,IC10*%
X156046000Y-89080000D02*
X159246000Y-89080000D01*
X156046000Y-98980000D02*
X156046000Y-89080000D01*
X159246000Y-89080000D02*
X159246000Y-98980000D01*
X159246000Y-98980000D02*
X156046000Y-98980000D01*
X161121000Y-99150000D02*
X159596000Y-99150000D01*
D14*
%TO.C,RP3_1*%
X179277500Y-65462742D02*
X179277500Y-65937258D01*
X180322500Y-65462742D02*
X180322500Y-65937258D01*
%TO.C,D1*%
X134240000Y-72030000D02*
X135260000Y-72030000D01*
X135260000Y-70560000D02*
X135260000Y-73500000D01*
X135260000Y-73500000D02*
X140700000Y-73500000D01*
X136040000Y-70560000D02*
X136040000Y-73500000D01*
X136160000Y-70560000D02*
X136160000Y-73500000D01*
X136280000Y-70560000D02*
X136280000Y-73500000D01*
X140700000Y-70560000D02*
X135260000Y-70560000D01*
X140700000Y-73500000D02*
X140700000Y-70560000D01*
X141720000Y-72030000D02*
X140700000Y-72030000D01*
%TO.C,C24*%
X169384420Y-69190000D02*
X169665580Y-69190000D01*
X169384420Y-70210000D02*
X169665580Y-70210000D01*
%TO.C,XRES1*%
X142600000Y-118800000D02*
G75*
G02*
X141200000Y-118800000I-700000J0D01*
G01*
X141200000Y-118800000D02*
G75*
G02*
X142600000Y-118800000I700000J0D01*
G01*
%TO.C,C25*%
X182690000Y-57759420D02*
X182690000Y-58040580D01*
X183710000Y-57759420D02*
X183710000Y-58040580D01*
%TO.C,RLVDS2*%
X162809500Y-122507258D02*
X162809500Y-122032742D01*
X163854500Y-122507258D02*
X163854500Y-122032742D01*
%TO.C,RP1_2*%
X147215000Y-54814564D02*
X147215000Y-54360436D01*
X148685000Y-54814564D02*
X148685000Y-54360436D01*
%TO.C,U1*%
X173662500Y-56490000D02*
X172862500Y-56490000D01*
X173662500Y-56490000D02*
X174462500Y-56490000D01*
X173662500Y-59610000D02*
X172862500Y-59610000D01*
X173662500Y-59610000D02*
X174462500Y-59610000D01*
X172362500Y-56540000D02*
X172122500Y-56210000D01*
X172602500Y-56210000D01*
X172362500Y-56540000D01*
G36*
X172362500Y-56540000D02*
G01*
X172122500Y-56210000D01*
X172602500Y-56210000D01*
X172362500Y-56540000D01*
G37*
%TO.C,C39*%
X157788748Y-135265000D02*
X158311252Y-135265000D01*
X157788748Y-136735000D02*
X158311252Y-136735000D01*
%TO.C,C57*%
X149640580Y-97740000D02*
X149359420Y-97740000D01*
X149640580Y-98760000D02*
X149359420Y-98760000D01*
%TO.C,RLVDS1*%
X169677500Y-87437258D02*
X169677500Y-86962742D01*
X170722500Y-87437258D02*
X170722500Y-86962742D01*
D13*
%TO.C,IC2*%
X134800000Y-125450000D02*
G75*
G02*
X134600000Y-125450000I-100000J0D01*
G01*
X134600000Y-125450000D02*
G75*
G02*
X134800000Y-125450000I100000J0D01*
G01*
%TO.C,TR1*%
X117500000Y-86100000D02*
X117500000Y-84700000D01*
D15*
%TO.C,Y1*%
X159325000Y-132550000D02*
X159325000Y-132550000D01*
X159425000Y-132550000D02*
X159425000Y-132550000D01*
X159325000Y-132550000D02*
G75*
G02*
X159425000Y-132550000I50000J0D01*
G01*
X159425000Y-132550000D02*
G75*
G02*
X159325000Y-132550000I-50000J0D01*
G01*
D14*
%TO.C,J2*%
X142750000Y-136870000D02*
X142750000Y-139530000D01*
X150430000Y-136870000D02*
X142750000Y-136870000D01*
X150430000Y-136870000D02*
X150430000Y-139530000D01*
X150430000Y-139530000D02*
X142750000Y-139530000D01*
X151700000Y-136870000D02*
X153030000Y-136870000D01*
X153030000Y-136870000D02*
X153030000Y-138200000D01*
%TO.C,C60*%
X149690580Y-96040000D02*
X149409420Y-96040000D01*
X149690580Y-97060000D02*
X149409420Y-97060000D01*
%TO.C,RLVDS5*%
X162809500Y-113157258D02*
X162809500Y-112682742D01*
X163854500Y-113157258D02*
X163854500Y-112682742D01*
%TO.C,D2*%
X152530000Y-56200000D02*
X152530000Y-61640000D01*
X152530000Y-60620000D02*
X155470000Y-60620000D01*
X152530000Y-60740000D02*
X155470000Y-60740000D01*
X152530000Y-60860000D02*
X155470000Y-60860000D01*
X152530000Y-61640000D02*
X155470000Y-61640000D01*
X154000000Y-55180000D02*
X154000000Y-56200000D01*
X154000000Y-62660000D02*
X154000000Y-61640000D01*
X155470000Y-56200000D02*
X152530000Y-56200000D01*
X155470000Y-61640000D02*
X155470000Y-56200000D01*
%TO.C,C43*%
X143234420Y-94390000D02*
X143515580Y-94390000D01*
X143234420Y-95410000D02*
X143515580Y-95410000D01*
%TO.C,TP9*%
X130150000Y-115900000D02*
X132550000Y-115900000D01*
X130150000Y-118300000D02*
X130150000Y-115900000D01*
X132550000Y-115900000D02*
X132550000Y-118300000D01*
X132550000Y-118300000D02*
X130150000Y-118300000D01*
%TO.C,RLVDS4*%
X162809500Y-116307258D02*
X162809500Y-115832742D01*
X163854500Y-116307258D02*
X163854500Y-115832742D01*
%TO.C,C42*%
X135959420Y-94390000D02*
X136240580Y-94390000D01*
X135959420Y-95410000D02*
X136240580Y-95410000D01*
%TO.C,C62*%
X169590000Y-125934420D02*
X169590000Y-126215580D01*
X170610000Y-125934420D02*
X170610000Y-126215580D01*
D15*
%TO.C,IC1*%
X170470000Y-102560000D02*
X170470000Y-102560000D01*
X170570000Y-102560000D02*
X170570000Y-102560000D01*
D13*
X171090000Y-98950000D02*
X171090000Y-117600000D01*
X171090000Y-117600000D02*
X189740000Y-117600000D01*
X189740000Y-98950000D02*
X171090000Y-98950000D01*
X189740000Y-117600000D02*
X189740000Y-98950000D01*
D15*
X170470000Y-102560000D02*
G75*
G02*
X170570000Y-102560000I50000J0D01*
G01*
X170570000Y-102560000D02*
G75*
G02*
X170470000Y-102560000I-50000J0D01*
G01*
D14*
%TO.C,RLVDS10*%
X162811500Y-97647258D02*
X162811500Y-97172742D01*
X163856500Y-97647258D02*
X163856500Y-97172742D01*
%TD*%
M02*
